<svg width="90" height="49" viewBox="0 0 90 49" fill="none" xmlns="http://www.w3.org/2000/svg">
<path d="M27.5894 23.1213C27.5894 23.1213 23.6502 22.9923 22.0802 19.4506C22.0802 19.4506 18.4097 23.5605 12.7156 25.0281L13.0959 26.039V39.1286L12.0178 40.2022C12.0178 40.2022 7.69136 37.4135 7.33547 33.2478C7.0075 29.4482 7.57971 26.5897 11.8224 22.9226C12.8774 22.0469 14.0785 21.3636 15.3707 20.9042V20.4615C8.5357 20.4615 0.622559 26.6595 0.622559 33.8718C0.622559 41.0179 6.05151 45.2533 13.2215 45.2533C13.2215 45.2533 17.7782 45.2951 21.1521 43.4406V45.2219C21.1521 45.3649 20.8799 45.3405 20.8799 45.3405C19.903 45.3405 19.111 45.9888 19.111 46.7871C19.111 47.5854 19.903 48.2373 20.8799 48.2373C21.8569 48.2373 22.6489 47.5889 22.6489 46.7871V42.7539C22.6489 42.7539 23.6014 42.0254 23.9154 41.7744C23.9996 41.7328 24.0638 41.6594 24.0939 41.5705C24.124 41.4816 24.1175 41.3844 24.0759 41.3003C24.0343 41.2162 23.9609 41.152 23.8719 41.1219C23.7829 41.0919 23.6856 41.0983 23.6014 41.1399C23.2211 41.2654 22.6524 41.5199 22.6524 41.5199V24.7631C22.6524 24.7631 25.9425 25.0803 27.5894 23.1213ZM21.1346 41.8894C15.437 42.5204 13.9193 41.255 13.9193 41.255L18.6016 37.2741V23.6267C18.6016 22.9923 21.1346 24.5749 21.1346 24.5749V41.8894Z" fill="black"/>
<path d="M65.0131 9.15668C64.9101 9.11109 64.7976 9.09108 64.6852 9.09836C64.5728 9.10565 64.4638 9.14001 64.3676 9.19851C63.6698 9.7214 63.0801 10.0421 62.5951 10.0839C62.3867 10.0846 62.181 10.1319 61.9932 10.2224C61.8054 10.3129 61.6403 10.4442 61.5101 10.6068L61.0251 11.0495C60.9832 11.1297 60.7843 11.2517 60.1389 11.3319C60.0167 11.4121 59.6539 11.6143 59.8144 11.8129C60.0265 12.107 60.2155 12.417 60.3796 12.7402C60.4707 13.1111 60.4629 13.4994 60.3569 13.8664C60.251 14.2334 60.0507 14.5662 59.776 14.8317C59.6556 14.963 59.5036 15.0613 59.3344 15.1174C59.1653 15.1736 58.9846 15.1856 58.8095 15.1525C58.6072 15.1141 58.3629 14.9921 58.3629 14.7516C58.3729 14.6311 58.4093 14.5142 58.4696 14.4094C58.53 14.3046 58.6126 14.2143 58.7118 14.145C59.1166 13.6221 59.1166 13.1794 58.6735 12.7785C58.5252 12.698 58.359 12.6558 58.1902 12.6558C58.0214 12.6558 57.8553 12.698 57.707 12.7785C57.0615 13.0609 56.9813 13.6221 57.3825 14.145C57.3753 14.3525 57.3341 14.5574 57.2604 14.7516C57.1864 14.8931 57.0659 15.005 56.9192 15.0684C56.7725 15.1319 56.6084 15.1431 56.4544 15.1002C55.8508 14.776 55.5682 14.2113 55.652 13.2457C55.9174 12.8244 56.2274 12.4329 56.5765 12.0779C56.2245 11.4585 55.693 10.9602 55.0518 10.6487C54.4056 10.9636 53.8712 11.4684 53.5201 12.0953C53.8485 12.4319 54.1091 12.8283 54.2877 13.2631C54.3491 13.5509 54.345 13.8489 54.2755 14.1349C54.2061 14.4209 54.0731 14.6877 53.8865 14.9154C53.4818 15.1978 53.0805 15.3581 52.6758 15.1176C52.5499 14.993 52.4694 14.8298 52.4472 14.6541C52.4251 14.4784 52.4626 14.3004 52.5537 14.1485C52.6973 13.9615 52.7611 13.7253 52.731 13.4915C52.701 13.2576 52.5795 13.0452 52.3932 12.9006C52.2468 12.7938 52.0703 12.7362 51.889 12.7362C51.7078 12.7362 51.5312 12.7938 51.3849 12.9006C50.9836 13.2247 51.036 13.6256 51.3465 14.1485C51.3747 14.3236 51.3604 14.503 51.3046 14.6714C50.9836 15.3686 50.4986 15.2779 49.9369 15.02C48.9286 14.0544 48.967 13.047 50.1358 12.0814C50.1769 12.0381 50.209 11.9872 50.2303 11.9316C50.2517 11.8759 50.2619 11.8166 50.2602 11.757C50.2586 11.6975 50.2453 11.6388 50.2209 11.5844C50.1966 11.53 50.1617 11.4809 50.1183 11.44C50.0362 11.3624 49.9278 11.3188 49.8148 11.3179C49.0001 11.1408 48.2731 10.6845 47.7597 10.0282C47.2748 9.02073 46.6293 9.02073 46.1478 10.0282C45.6152 10.6629 44.8963 11.1142 44.0928 11.3179C43.6462 11.3981 43.5275 11.7607 43.7439 12.0395C44.9546 13.047 44.9546 14.0126 43.9881 15.02C43.4229 15.264 42.9414 15.3023 42.6169 14.6714C42.5399 14.4943 42.5264 14.2961 42.5785 14.1102C42.8995 13.6256 42.9274 13.1829 42.5366 12.9006C42.3832 12.7935 42.2005 12.7361 42.0133 12.7361C41.8261 12.7361 41.6434 12.7935 41.4899 12.9006C41.3086 13.0502 41.194 13.2655 41.1711 13.4994C41.1482 13.7332 41.219 13.9666 41.3678 14.1485C41.4391 14.2982 41.4658 14.4651 41.4448 14.6295C41.4237 14.7939 41.3558 14.9488 41.2492 15.0758C40.8061 15.3163 40.4432 15.1943 40.0385 14.9154C39.8543 14.6863 39.7228 14.4195 39.6535 14.1339C39.5841 13.8484 39.5786 13.551 39.6373 13.2631C39.8062 12.8204 40.0518 12.411 40.363 12.0535C40.0098 11.4282 39.476 10.924 38.8313 10.6068C38.2187 10.9683 37.6952 11.4627 37.2996 12.0535C37.6738 12.4017 37.9865 12.8107 38.2242 13.2631C38.3463 14.1903 38.0637 14.7934 37.4601 15.0758C37.0554 15.1559 36.7623 15.0758 36.6157 14.7272C36.57 14.5433 36.5431 14.3553 36.5355 14.1659C36.691 14.0092 36.7783 13.7975 36.7783 13.5768C36.7783 13.3561 36.691 13.1444 36.5355 12.9877C36.4469 12.9007 36.3394 12.8351 36.2215 12.796C36.0657 12.7153 35.8928 12.6732 35.7173 12.6732C35.5418 12.6732 35.3689 12.7153 35.2132 12.796C34.8119 13.1969 34.77 13.6396 35.1748 14.1659C35.2692 14.222 35.3491 14.2995 35.4079 14.3921C35.4667 14.4848 35.5028 14.59 35.5132 14.6993C35.5551 14.9816 35.3143 15.1036 35.0701 15.142C34.9015 15.1664 34.7296 15.1499 34.5687 15.0941C34.4078 15.0383 34.2627 14.9448 34.1455 14.8213C33.8547 14.5574 33.6411 14.2195 33.5274 13.8438C33.4137 13.4681 33.4043 13.0686 33.5 12.6879C33.6694 12.3722 33.8768 12.0783 34.1176 11.8129C34.2781 11.6143 33.9152 11.3702 33.7687 11.3319C33.1232 11.2099 32.9243 11.1297 32.9243 11.0495L32.4394 10.565C32.1402 10.2733 31.744 10.1021 31.3264 10.0839C30.6551 9.95069 30.0299 9.64559 29.5121 9.19851C29.4234 9.1407 29.3213 9.10651 29.2157 9.09919C29.1101 9.09187 29.0043 9.11166 28.9085 9.15668C28.8208 9.22696 28.758 9.32339 28.7291 9.43189C28.7002 9.54039 28.7068 9.65526 28.748 9.75974C30.591 11.3388 31.8412 13.4976 32.2928 15.881H61.6322C62.0789 13.5223 63.314 11.3849 65.1352 9.81901C65.1953 9.71497 65.2165 9.59291 65.1947 9.47473C65.173 9.35655 65.1098 9.24997 65.0165 9.17411" fill="black"/>
<path d="M30.998 8.75231C31.7613 8.9267 32.4948 9.2121 33.1752 9.59938C33.3955 9.64983 33.624 9.65419 33.8462 9.61219C34.0683 9.5702 34.2794 9.48276 34.4661 9.35537C36.2927 7.87386 38.385 6.75351 40.6312 6.05421C40.9801 5.9322 41.1965 6.05421 41.0743 6.4028C40.1298 7.13067 39.428 8.1272 39.0612 9.26125C39.0612 9.60984 39.3019 9.78414 39.8253 9.74579C39.9818 9.68441 40.1503 9.65972 40.3178 9.67362C40.4854 9.68752 40.6475 9.73964 40.7917 9.82597C41.1406 9.90614 41.4372 9.78414 41.6779 9.22291C41.9222 7.65076 42.8886 6.56315 44.2982 5.79625C44.9437 5.71956 45.2263 5.99844 45.1461 6.60499C44.6365 7.10823 44.2621 7.73165 44.0575 8.41766C44.0993 9.02072 44.4064 9.22291 44.9437 9.05907C45.2647 9.05907 45.5089 8.78019 45.7113 8.25731C45.8284 8.03868 46.0027 7.85591 46.2156 7.72849C46.4285 7.60106 46.672 7.53376 46.9202 7.53376C47.1684 7.53376 47.412 7.60106 47.6249 7.72849C47.8378 7.85591 48.0121 8.03868 48.1292 8.25731C48.3316 8.78019 48.5723 9.05907 48.8549 9.05907C49.4201 9.22291 49.7411 9.02072 49.783 8.41766C49.5783 7.73165 49.2039 7.10823 48.6944 6.60499C48.6142 5.99844 48.8933 5.71956 49.5388 5.79625C50.9518 6.56315 51.9183 7.65076 52.159 9.22291C52.3614 9.78414 52.6824 9.92009 53.0069 9.82597C53.159 9.74009 53.328 9.68842 53.5022 9.67457C53.6763 9.66072 53.8514 9.68503 54.0152 9.74579C54.5386 9.78414 54.7793 9.62379 54.7793 9.26125C54.4135 8.12671 53.7115 7.12991 52.7661 6.4028C52.644 6.05421 52.8464 5.91826 53.2092 6.05421C55.4554 6.75351 57.5478 7.87386 59.3744 9.35537C59.5606 9.48248 59.771 9.56977 59.9926 9.61176C60.2141 9.65375 60.442 9.64954 60.6618 9.59938C61.339 9.20561 62.0736 8.91982 62.839 8.75231C63.324 8.67213 63.4845 8.3096 63.3658 7.74836C63.1834 7.48341 62.944 7.2626 62.6651 7.10215C62.3861 6.9417 62.0748 6.84567 61.7539 6.82111C61.6225 6.84356 61.4875 6.83336 61.361 6.79141C61.2344 6.74947 61.1201 6.67706 61.0282 6.58058C60.5851 5.81368 59.7791 5.53481 58.6905 5.69516C58.1672 5.08861 57.4379 4.97009 56.6738 4.99798C56.3941 4.69233 56.035 4.47021 55.6365 4.35635C55.2379 4.2425 54.8156 4.24137 54.4164 4.35309C53.5302 3.79185 52.7243 3.58967 52.0404 3.95221C51.5752 3.74515 51.0651 3.65894 50.5576 3.7016C50.0501 3.74426 49.5616 3.91441 49.1375 4.19622C49.0167 3.90141 48.8363 3.63469 48.6075 3.41276C48.3788 3.19082 48.1067 3.01845 47.8082 2.90643V2.19182H48.8549V1.14605H47.8082V0.0584412H46.0358V1.14256H44.9891V2.18833H46.0358V2.9134C45.7335 3.01934 45.4578 3.18951 45.2277 3.41218C44.9976 3.63485 44.8186 3.90472 44.7029 4.20319C44.2789 3.92289 43.7911 3.75363 43.2845 3.71099C42.7778 3.66835 42.2686 3.7537 41.8036 3.95918C41.0778 3.61059 40.2719 3.79883 39.424 4.36006C39.0248 4.24874 38.6026 4.25008 38.2041 4.36391C37.8057 4.47774 37.4466 4.69963 37.1666 5.00495C36.3606 4.96661 35.6768 5.08513 35.1534 5.70213C34.0649 5.5383 33.2589 5.82065 32.8158 6.58756C32.7235 6.68354 32.6092 6.7556 32.4827 6.79751C32.3563 6.83942 32.2215 6.84992 32.0901 6.82808C31.7689 6.85166 31.4572 6.94727 31.1781 7.1078C30.899 7.26834 30.6598 7.48967 30.4781 7.75534C30.356 8.31657 30.5165 8.68259 31.0015 8.75928M46.9569 3.47812C47.5221 3.47812 47.9652 4.03935 47.9652 4.76791C47.9652 5.49646 47.5221 6.09604 46.9569 6.09604C46.3916 6.09604 45.9102 5.49298 45.9102 4.76791C45.9102 4.04284 46.3951 3.47812 46.9569 3.47812Z" fill="black"/>
<path d="M32.2891 20.6253H61.6284V17.8924H32.2891V20.6253ZM58.3243 18.4919C58.4837 18.4919 58.6395 18.5392 58.7721 18.6277C58.9046 18.7161 59.0079 18.8419 59.0689 18.989C59.1299 19.1362 59.1459 19.2981 59.1148 19.4543C59.0837 19.6105 59.0069 19.754 58.8942 19.8666C58.7815 19.9792 58.6379 20.0559 58.4815 20.087C58.3252 20.118 58.1631 20.1021 58.0159 20.0411C57.8686 19.9802 57.7427 19.877 57.6541 19.7446C57.5656 19.6121 57.5183 19.4564 57.5183 19.2972C57.5192 19.0839 57.6044 18.8796 57.7554 18.7288C57.9063 18.578 58.1108 18.4929 58.3243 18.4919ZM52.7209 18.4919C52.8798 18.4926 53.035 18.5403 53.167 18.6289C53.2989 18.7175 53.4017 18.8431 53.4623 18.9899C53.523 19.1366 53.5389 19.2981 53.5079 19.4539C53.477 19.6096 53.4007 19.7528 53.2885 19.8653C53.1763 19.9779 53.0334 20.0548 52.8776 20.0864C52.7218 20.1179 52.5602 20.1028 52.413 20.0428C52.2658 19.9828 52.1396 19.8807 52.0504 19.7493C51.9612 19.6178 51.9128 19.463 51.9114 19.3042C51.9123 19.0909 51.9976 18.8866 52.1485 18.7358C52.2995 18.585 52.5039 18.4998 52.7174 18.4989M46.9535 18.4989C47.1129 18.4989 47.2687 18.5461 47.4013 18.6346C47.5338 18.7231 47.6371 18.8489 47.6981 18.996C47.7591 19.1431 47.7751 19.3051 47.744 19.4613C47.7129 19.6175 47.6361 19.7609 47.5234 19.8736C47.4107 19.9862 47.2671 20.0629 47.1107 20.0939C46.9544 20.125 46.7923 20.1091 46.6451 20.0481C46.4978 19.9872 46.3719 19.884 46.2834 19.7515C46.1948 19.6191 46.1475 19.4634 46.1475 19.3042C46.1484 19.0909 46.2337 18.8866 46.3846 18.7358C46.5356 18.585 46.74 18.4998 46.9535 18.4989ZM41.1896 18.4989C41.3496 18.4961 41.5068 18.541 41.6411 18.6278C41.7755 18.7146 41.881 18.8393 41.9441 18.9862C42.0072 19.1331 42.0252 19.2954 41.9957 19.4525C41.9662 19.6096 41.8906 19.7544 41.7784 19.8684C41.6663 19.9825 41.5227 20.0605 41.366 20.0928C41.2093 20.125 41.0465 20.1099 40.8984 20.0493C40.7504 19.9888 40.6236 19.8857 40.5345 19.7529C40.4453 19.6202 40.3976 19.464 40.3976 19.3042C40.3971 19.1983 40.4177 19.0934 40.458 18.9955C40.4983 18.8976 40.5577 18.8086 40.6326 18.7337C40.7076 18.6589 40.7966 18.5996 40.8946 18.5593C40.9926 18.519 41.0976 18.4985 41.2036 18.4989M35.5618 18.4989C35.7212 18.4989 35.877 18.5461 36.0096 18.6346C36.1421 18.7231 36.2454 18.8489 36.3064 18.996C36.3674 19.1431 36.3834 19.3051 36.3523 19.4613C36.3212 19.6175 36.2444 19.7609 36.1317 19.8736C36.019 19.9862 35.8754 20.0629 35.719 20.0939C35.5627 20.125 35.4006 20.1091 35.2534 20.0481C35.1061 19.9872 34.9802 19.884 34.8916 19.7515C34.8031 19.6191 34.7558 19.4634 34.7558 19.3042C34.7554 19.1983 34.7759 19.0934 34.8162 18.9955C34.8566 18.8976 34.9159 18.8086 34.9908 18.7337C35.0658 18.6589 35.1548 18.5996 35.2528 18.5593C35.3508 18.519 35.4558 18.4985 35.5618 18.4989Z" fill="black"/>
<path d="M61.6284 16.5259H32.2891V17.251H61.6284V16.5259Z" fill="black"/>
<path d="M34.927 29.124C34.927 28.6534 35.5585 28.1131 35.5585 28.1131C33.2209 27.8621 29.4876 26.1609 29.4876 26.1609C27.3942 27.9283 24.0482 28.1165 24.0482 28.1165C23.9854 28.4965 24.5541 29.1902 24.5541 29.1902V37.5773C24.253 37.8091 23.9914 38.0881 23.7795 38.4035C23.6654 38.5509 23.565 38.7084 23.4795 38.8741C28.1583 39.3795 30.0563 41.8022 30.0563 41.8022C32.1498 39.4667 35.6842 38.9612 35.6842 38.9612C35.112 38.7067 34.9235 37.9154 34.9235 37.7621L34.927 29.124ZM31.131 38.4035C28.6049 37.898 28.0955 37.3298 28.0955 37.3298V28.6429C28.0955 28.4512 31.131 29.7166 31.131 29.7166V38.4035Z" fill="black"/>
<path d="M58.3663 29.124C58.3663 28.6534 59.0014 28.1131 59.0014 28.1131C56.6637 27.8621 52.9304 26.1609 52.9304 26.1609C50.837 27.9283 47.4945 28.1165 47.4945 28.1165C47.4317 28.4965 48.0004 29.1902 48.0004 29.1902V37.5773C47.6976 37.8111 47.4348 38.0925 47.2223 38.4104C47.1085 38.5574 47.0092 38.715 46.9258 38.881C51.6046 39.3865 53.4991 41.8092 53.4991 41.8092C55.5926 39.4736 59.127 38.9682 59.127 38.9682C58.5582 38.7137 58.3663 37.9224 58.3663 37.769V29.124ZM54.5738 38.4035C52.0442 37.898 51.5383 37.3298 51.5383 37.3298V28.6429C51.5383 28.4512 54.5738 29.7166 54.5738 29.7166V38.4035Z" fill="black"/>
<path d="M85.6193 38.6963C85.3079 38.6556 85.0175 38.5173 84.7899 38.3011C84.5623 38.085 84.4092 37.8023 84.3528 37.4936V27.991C81.6348 27.1091 78.9797 26.1609 78.9797 26.1609C77.3581 27.1033 75.5886 27.7645 73.7461 28.1165C73.6833 28.4965 74.252 29.1937 74.252 29.1937V37.9956C74.252 37.9956 74.1508 38.1455 73.9031 38.4627C73.8019 38.5987 73.624 38.8113 73.5542 38.8845C76.2652 39.2331 79.2553 41.8127 79.2553 41.8127L81.4325 39.4736L83.8748 41.8127L86.7881 38.8845L85.6193 38.6963ZM80.5602 38.4035C79.7204 37.7999 78.807 37.3056 77.8422 36.9324V28.6115C77.9678 28.7684 80.5602 29.6852 80.5602 29.6852V38.4035Z" fill="black"/>
<path d="M42.9553 38.8846C40.492 40.3033 39.8151 41.8127 39.8151 41.8127C39.8151 41.8127 39.1417 40.3033 36.675 38.8846H37.8229V29.7619C37.791 29.3423 37.6118 28.9474 37.3169 28.647C37.0219 28.3466 36.6302 28.1599 36.2109 28.1201L39.4034 26.161C39.4034 26.161 41.4271 27.3601 41.7446 27.8656C41.7446 27.8656 41.3608 28.1689 43.9531 26.4712L44.3927 26.1575C44.3927 26.1575 45.9803 27.9458 47.2084 28.2107C46.8944 29.3506 45.7465 30.7589 42.5819 29.009C42.5819 29.009 41.8143 28.8416 41.8143 29.3576V38.895L42.9553 38.8846Z" fill="black"/>
<path d="M72.2247 28.1165C70.9721 27.632 68.6205 26.1505 68.6205 26.1505L68.1774 26.4677C65.5851 28.1723 64.9954 27.9457 64.9954 27.9457C64.6814 27.4403 62.6578 26.2411 62.6578 26.2411L59.5874 28.1165C60.0067 28.1579 60.3981 28.3454 60.6929 28.6463C60.9876 28.9472 61.1669 29.3421 61.1993 29.7619V38.8845H60.0549C62.5182 40.3033 63.1951 41.8162 63.1951 41.8162C63.1951 41.8162 63.8685 40.3103 66.3352 38.888H65.1699V29.6887L66.8132 28.7545L68.0762 29.6887V38.8915H66.9318C69.3951 40.3103 69.9289 41.8197 69.9289 41.8197C69.9289 41.8197 70.5988 40.3103 73.0691 38.8915H71.9247V29.3262C71.9247 29.3262 72.5422 28.2455 72.2247 28.1165Z" fill="black"/>
<path d="M88.0091 42.2554C88.1098 42.2316 88.2001 42.1761 88.2667 42.0969C88.3334 42.0178 88.3727 41.9194 88.3789 41.8162C88.3789 41.5722 88.2079 41.363 87.7823 41.363H87.0845V42.97H87.3741V42.2972H87.6951C87.8745 42.5011 88.027 42.7272 88.1486 42.97H88.515C88.378 42.718 88.2104 42.4838 88.016 42.2728M87.7613 42.0637H87.3776V41.6105H87.7613C87.9009 41.6105 88.0649 41.6454 88.0649 41.8301C88.0649 42.0149 87.9044 42.0602 87.7613 42.0602" fill="black"/>
<path d="M86.2261 42.1508C86.2261 42.4514 86.3153 42.7453 86.4824 42.9952C86.6496 43.2452 86.8872 43.44 87.1651 43.555C87.4431 43.67 87.749 43.7001 88.0441 43.6415C88.3392 43.5829 88.6102 43.4381 88.823 43.2255C89.0357 43.013 89.1806 42.7422 89.2393 42.4474C89.298 42.1525 89.2679 41.8469 89.1527 41.5692C89.0376 41.2915 88.8426 41.0541 88.5924 40.8871C88.3423 40.7201 88.0482 40.631 87.7473 40.631C87.5475 40.631 87.3497 40.6703 87.1651 40.7467C86.9806 40.8231 86.8129 40.935 86.6716 41.0761C86.5304 41.2173 86.4183 41.3848 86.3419 41.5692C86.2654 41.7536 86.2261 41.9513 86.2261 42.1508ZM86.5087 42.1508C86.508 41.9059 86.5801 41.6663 86.7157 41.4624C86.8514 41.2584 87.0446 41.0993 87.2709 41.0051C87.4971 40.9109 87.7463 40.8859 87.9868 40.9332C88.2273 40.9806 88.4483 41.0982 88.6219 41.2711C88.7955 41.444 88.9138 41.6645 88.9618 41.9046C89.0099 42.1448 88.9856 42.3938 88.892 42.6201C88.7983 42.8464 88.6396 43.0399 88.4358 43.1761C88.232 43.3122 87.9924 43.3849 87.7473 43.3849C87.4194 43.3849 87.1049 43.255 86.8727 43.0236C86.6405 42.7923 86.5096 42.4784 86.5087 42.1508Z" fill="black"/>
</svg>
