<svg width="81" height="55" viewBox="0 0 81 55" fill="none" xmlns="http://www.w3.org/2000/svg">
<path d="M40.25 47.0689C40.25 44.91 42.0084 43.2308 44.0865 43.2308C46.1646 43.2308 47.923 44.9899 47.923 47.0689C47.923 49.1479 46.1646 50.9071 44.0865 50.9071C42.0084 50.9071 40.25 49.2279 40.25 47.0689ZM55.9956 47.0689C55.9956 44.91 57.7539 43.2308 59.832 43.2308C61.99 43.2308 63.6685 44.9899 63.6685 47.0689C63.6685 49.1479 61.9101 50.9071 59.832 50.9071C57.7539 50.9871 55.9956 49.2279 55.9956 47.0689ZM19.549 47.0689C19.549 44.91 21.3074 43.2308 23.3855 43.2308C25.5435 43.2308 27.222 44.9899 27.222 47.0689C27.222 49.1479 25.4636 50.9071 23.3855 50.9071C21.2275 50.9871 19.549 49.2279 19.549 47.0689ZM3.80351 47.0689C3.80351 44.91 5.56189 43.2308 7.63998 43.2308C9.798 43.2308 11.4765 44.9899 11.4765 47.0689C11.4765 49.1479 9.71807 50.9071 7.63998 50.9071C5.56189 50.9871 3.80351 49.2279 3.80351 47.0689ZM35.6143 40.2722H32.2574V53.7857H35.6143V40.2722ZM11.5564 53.7857H14.9133V40.2722H11.5564V41.3916C10.4374 40.592 9.07866 40.1123 7.56006 40.1123C3.72358 40.1123 0.606445 43.2308 0.606445 47.0689C0.606445 50.9871 3.72358 54.0256 7.56006 54.0256C9.07866 54.0256 10.4374 53.5458 11.5564 52.7462V53.7857ZM63.7484 53.7857H67.1053V40.2722H63.7484V41.3916C62.6295 40.592 61.2707 40.1123 59.7521 40.1123C55.9156 40.1123 52.7985 43.2308 52.7985 47.0689C52.7985 50.9871 55.9156 54.0256 59.7521 54.0256C61.2707 54.0256 62.6295 53.5458 63.7484 52.7462V53.7857ZM68.3042 49.3878C68.3842 52.1065 70.702 54.0256 74.6184 54.0256C77.8155 54.0256 80.4531 52.6663 80.4531 49.6277C80.4531 47.4687 79.2542 46.2693 76.5367 45.7096L74.3787 45.3098C73.0199 45.0699 72.0608 44.75 72.0608 43.9504C72.0608 43.0708 73.0199 42.671 74.1389 42.671C75.8173 42.671 76.5367 43.5506 76.5367 44.5102H79.8936C79.7337 41.8714 77.5757 40.1123 74.1389 40.1123C70.6221 40.1123 68.544 42.0313 68.544 44.5901C68.544 47.6287 71.0217 48.1884 73.1798 48.5882L74.9381 48.9081C76.217 49.1479 76.7765 49.5478 76.7765 50.2674C76.7765 50.9071 76.137 51.6268 74.6184 51.6268C72.3805 51.6268 71.7411 50.5073 71.6612 49.4678H68.3042V49.3878ZM27.222 35.6344V41.3117C26.103 40.5121 24.7443 40.0323 23.2257 40.0323C19.3892 40.0323 16.2721 43.1508 16.2721 46.989C16.2721 50.9071 19.3892 53.9457 23.2257 53.9457C24.7443 53.9457 26.103 53.4659 27.222 52.6663V53.6258H30.5789V35.6344H27.222ZM48.0029 35.6344V41.3117C46.8839 40.5121 45.5252 40.0323 44.0066 40.0323C40.1701 40.0323 37.053 43.1508 37.053 46.989C37.053 50.9071 40.1701 53.9457 44.0066 53.9457C45.5252 53.9457 46.8839 53.4659 48.0029 52.6663V53.6258H51.3598V35.6344H48.0029ZM9.23851 31.6363L11.5564 35.6344H27.222L20.9877 24.8395L9.23851 31.6363ZM35.6143 38.9928V35.6344H48.0029L34.815 12.8453L23.0658 19.5621L32.2574 35.6344V38.9928H35.6143ZM52.9583 35.6344H68.7039L48.4025 0.45118L36.6533 7.24794L52.9583 35.6344Z" fill="black"/>
</svg>
