<svg width="89" height="73" viewBox="0 0 89 73" fill="none" xmlns="http://www.w3.org/2000/svg">
<path d="M16 28.332C16 25.7106 16 23.0883 16 20.467C16.0894 19.7957 16.1591 19.1201 16.2735 18.4533C16.4183 17.6114 16.6015 16.7766 16.7785 15.8847C16.9581 16.008 17.0573 16.0724 17.1521 16.1421C20.6055 18.7054 23.3234 21.8961 25.2951 25.7187C26.2871 27.6438 27.0236 29.6646 27.5366 31.7694C27.5714 31.9124 27.7082 32.1385 27.8029 32.1412C28.7646 32.1689 29.7281 32.1582 30.7327 32.1582C30.7327 31.9383 30.7327 31.7774 30.7327 31.6166C30.7327 29.7102 30.73 27.8038 30.7327 25.8965C30.7371 23.1295 32.5961 21.2704 35.3569 21.2704C41.985 21.2704 48.614 21.2704 55.2421 21.2704C60.3213 21.2704 65.4005 21.2642 70.4797 21.274C72.253 21.2776 73.6052 22.0561 74.4543 23.6174C74.7036 24.0768 74.8136 24.6131 74.9878 25.1136V44.955C74.9637 44.9898 74.9262 45.022 74.9172 45.0604C74.3863 47.4628 72.7454 48.7829 70.2822 48.7829C59.4553 48.7829 48.6292 48.7892 37.8023 48.7793C34.2621 48.7758 30.8766 48.0286 27.7556 46.3403C21.3035 42.8511 17.4425 37.4787 16.2538 30.2187C16.151 29.5931 16.084 28.9612 16 28.332Z" fill="black"/>
<path d="M74.988 10.9932C74.7949 10.9985 74.601 11.0075 74.408 11.0075C56.0878 11.0075 37.7676 11.0075 19.4474 11.0075C19.2847 11.0075 19.122 11.0075 18.9004 11.0075C18.9603 10.868 18.9907 10.7617 19.047 10.6705C22.5264 5.04879 27.4912 1.57387 34.0057 0.362834C34.8369 0.208214 35.6887 0.168889 36.5306 0.0723637C36.6298 0.0607448 36.7263 0.0241009 36.8238 -3.05176e-05C48.2048 -3.05176e-05 59.5859 -3.05176e-05 70.9661 -3.05176e-05C71.0617 0.0285697 71.1556 0.0670011 71.253 0.08577C73.0932 0.440591 74.2909 1.50595 74.8227 3.30955C74.8754 3.4883 74.9326 3.66526 74.988 3.84312V10.9932Z" fill="black"/>
<path d="M56.4872 72.7516C56.472 72.5899 56.4443 72.4281 56.4443 72.2663C56.4416 67.8449 56.4425 63.4226 56.4425 59.0012V58.5293H59.795V69.3339H63.9903V58.5284H67.3338V69.3473C68.5306 69.3473 69.6728 69.3804 70.8114 69.3303C71.2351 69.3116 71.5175 68.9639 71.5953 68.5242C71.631 68.3204 71.6346 68.1095 71.6346 67.9021C71.6373 64.9688 71.6364 62.0364 71.6364 59.1031C71.6364 58.9261 71.6364 58.7492 71.6364 58.5409H74.9888V68.9085C74.9531 69.0157 74.9084 69.1212 74.8825 69.2311C74.5035 70.8122 73.5579 71.8999 72.035 72.4692C71.6918 72.5979 71.3236 72.6596 70.9669 72.7516H56.4881H56.4872Z" fill="black"/>
<path d="M37.4502 72.7517C37.4476 69.3572 37.4127 65.9618 37.4565 62.5682C37.4806 60.6619 39.1287 58.5303 41.8037 58.507C44.468 58.4838 47.135 58.4641 49.7975 58.5454C52.014 58.6134 53.8024 60.5787 53.8051 62.7917C53.8086 66.112 53.806 69.4323 53.806 72.7526H50.4991V68.3249H40.7571V72.7526H37.4502V72.7517ZM50.4749 64.9421C50.4749 64.1976 50.5053 63.4995 50.4651 62.8051C50.4338 62.2581 49.9968 61.8559 49.4614 61.8532C46.9035 61.8425 44.3456 61.8434 41.7876 61.8532C41.2988 61.855 40.8447 62.2018 40.8117 62.671C40.7589 63.4182 40.7974 64.1725 40.7974 64.9421H50.4749Z" fill="black"/>
<path d="M20.0218 72.7516C19.9968 72.6229 19.9503 72.4942 19.9503 72.3646C19.9468 67.8395 19.9477 63.3145 19.9486 58.7894C19.9486 58.7161 19.9593 58.6419 19.9682 58.5293C20.0996 58.5177 20.2274 58.4971 20.3561 58.4971C23.7801 58.4953 27.2032 58.4837 30.6271 58.4998C33.0725 58.5114 34.8761 60.0201 35.1558 62.3671C35.3354 63.8722 35.314 65.3933 34.2406 66.6464C33.8965 67.0486 33.4773 67.3864 33.051 67.7922C33.169 68.0648 33.3093 68.3892 33.4514 68.7127C34.0395 70.0587 34.6276 71.4047 35.2157 72.7507H31.6407C31.5558 72.5952 31.4601 72.4442 31.3877 72.2824C30.847 71.0767 30.3 69.8728 29.7799 68.6591C29.661 68.382 29.5162 68.2882 29.2168 68.29C27.3873 68.3043 25.5578 68.2962 23.7282 68.298C23.5978 68.298 23.4682 68.3123 23.284 68.324C23.284 68.6743 23.2876 68.9978 23.284 69.3214C23.2706 70.4645 23.2546 71.6085 23.2394 72.7516H20.0218ZM23.3153 64.8964C23.3716 64.925 23.3976 64.9491 23.4235 64.9491C25.9072 64.9536 28.391 64.9661 30.8747 64.9509C31.4226 64.9473 31.8015 64.53 31.8498 63.9723C31.8739 63.6916 31.8641 63.4074 31.8623 63.125C31.8569 62.2268 31.4789 61.8487 30.5851 61.8487C28.3096 61.8487 26.0332 61.8487 23.7577 61.8487H23.3144V64.8973L23.3153 64.8964Z" fill="black"/>
</svg>
