<svg width="144" height="31" viewBox="0 0 144 31" fill="none" xmlns="http://www.w3.org/2000/svg">
<path d="M2.07048 0.613747H3.39989V1.32277H14.9805L15.1873 1.26368V2.38629C15.1873 2.38629 14.301 2.68172 14.0056 3.27257C13.7102 3.86342 13.6216 3.80433 13.592 5.78367C13.5625 7.76302 13.592 10.4514 13.592 10.6582V23.8046C13.592 23.8046 13.5034 25.9021 13.7397 26.6406L10.6082 27.7633L6.97452 30.4812L1.86368 23.9818C1.86368 23.9818 0.681981 22.8592 1.06603 20.5549C1.391 18.6346 1.98185 17.9847 2.27727 17.5711C2.5727 17.128 2.48407 17.3348 2.48407 17.3348L3.134 17.3643L2.95675 18.1029C2.95675 18.1029 2.86812 18.2801 3.19309 18.8414C3.51806 19.3732 8.92432 25.8725 8.92432 25.8725C8.92432 25.8725 9.10158 26.1975 9.13112 25.843C9.13112 25.4885 9.07203 19.2846 9.07203 19.2846V12.3421H5.82237L5.52694 12.7557L4.55204 16.0349L4.5225 9.15151H5.99962V9.80145H8.95386V6.55178L8.77661 5.63596C8.77661 5.63596 9.01295 5.60642 9.92877 4.92694C10.8446 4.24747 10.9332 4.18838 10.9332 4.18838L10.8446 4.1293C10.8446 4.1293 8.56981 4.63152 8.2153 4.6906C7.86079 4.74969 7.32903 4.77923 7.12223 4.77923H3.66577L3.39989 4.86786L2.04093 8.67883L2.07048 0.613747Z" fill="black"/>
<path d="M22.4253 0.584229L24.4342 1.35233L22.0708 4.09978L21.48 3.92252L22.4253 0.584229Z" fill="black"/>
<path d="M26.0589 0.584229L28.0678 1.32279L25.7339 4.09978L25.1431 3.89298L26.0589 0.584229Z" fill="black"/>
<path d="M53.7402 7.79259C53.7402 7.79259 54.3902 7.02449 54.8333 6.31547C55.306 5.60645 55.9264 4.66109 55.9264 4.66109L59.3533 5.87233L58.9692 6.99495L58.9988 9.71285L61.8349 4.66109H62.7802L64.2573 10.0969C64.2573 10.0969 64.5232 11.8695 64.1687 12.7853C63.8142 13.7306 63.3415 14.6169 62.7507 15.1782C62.1598 15.7395 61.8349 16.0645 61.8349 16.0645L61.0077 15.2373C61.0077 15.2373 61.8349 14.351 61.8644 13.8193C61.8939 13.2875 61.6281 12.5785 61.3326 11.5445C61.0372 10.5105 60.535 9.06292 60.535 9.06292L60.1805 9.59468L58.9988 11.6331V21.9434L61.4804 22.6229L61.8053 21.323L63.1938 21.7662L60.535 26.0498L54.9219 24.5432C54.9219 24.5432 55.4242 24.1886 55.3946 21.2344C55.3651 18.2802 55.3651 8.38344 55.3651 8.38344L53.7402 7.79259Z" fill="black"/>
<path d="M65.1138 7.67443L67.2113 4.6611L71.0223 6.10868C71.0223 6.10868 70.6087 7.20175 70.6087 8.02894C70.6087 8.85613 70.6382 10.3628 70.6382 10.3628L73.9765 4.6611L78.9692 6.43365C78.9692 6.43365 78.526 7.55626 78.526 8.70842C78.526 9.86057 78.5851 10.8059 78.5851 10.8059L81.8643 4.63156L86.7979 6.40411C86.7979 6.40411 86.0889 7.82215 86.0889 8.7675C86.0594 10.6287 86.148 22.357 86.148 22.357L87.7433 22.8297L86.0889 25.9907L81.7757 24.809C81.7757 24.809 82.2779 23.9523 82.2779 21.7662C82.3075 19.58 82.2779 8.79705 82.2779 8.79705L81.0076 8.29482L78.4965 12.5194L78.5556 22.4161L79.9145 22.8297L78.1715 25.9612L74.2719 24.9272C74.2719 24.9272 74.7446 24.2773 74.7446 21.9139C74.7446 19.5505 74.7151 10.481 74.7151 10.481V8.94476L73.0016 8.26528L70.6678 12.1649L70.7564 22.4752L71.9085 22.8592L70.2542 25.9612L66.325 24.9272C66.325 24.9272 66.8272 23.9819 66.8568 22.3275C66.8863 20.6731 66.8272 8.50162 66.8272 8.50162L65.1138 7.67443Z" fill="black"/>
<path d="M104.583 22.2093L106.444 22.7706L104.523 25.9317L100.21 24.8386C100.21 24.8386 100.831 24.1591 100.801 20.4959C100.772 16.8326 100.772 8.61979 100.772 8.61979L99.0581 7.96986L101.126 4.63156L105.203 6.22685L104.553 7.70398L104.583 22.2093Z" fill="black"/>
<path d="M103.519 0.40699L105.558 1.20464L103.105 3.98163L102.574 3.83391L103.519 0.40699Z" fill="black"/>
<path d="M112.352 0.377441L114.538 1.76594C114.538 1.76594 115.425 2.38633 116.045 1.79548C116.695 1.20463 116.695 1.14554 116.695 1.14554L117.434 1.61822L115.366 4.36567C115.366 4.36567 113.948 5.10423 113.179 4.86789C112.411 4.63155 111.614 4.27704 111.614 4.27704L111.555 12.224L111.584 28.1769C111.584 28.1769 110.964 28.1473 110.491 28.4132C109.989 28.6496 109.575 28.9154 109.398 29.3586C109.221 29.8017 109.191 30.3926 109.191 30.3926L107.714 30.363L107.655 5.19286L107.212 3.56803L110.107 2.71129L112.352 0.377441Z" fill="black"/>
<path d="M119.147 1.14554L119.118 4.57246L122.87 4.54292L121.333 7.52671L119.177 7.55625L119.118 22.2093L120.949 22.7115L119.059 25.9317L114.745 24.75C114.745 24.75 115.366 23.6569 115.366 21.4707C115.366 19.2846 115.336 7.58579 115.336 7.58579H113.948L116.518 4.89743L119.147 1.14554Z" fill="black"/>
<path d="M132.471 7.61536C132.471 7.61536 133.121 6.84726 133.564 6.13824C134.036 5.42922 134.657 4.48386 134.657 4.48386L138.084 5.6951L137.7 6.81772L137.729 9.53562L140.565 4.48386H141.511L142.988 9.91967C142.988 9.91967 143.254 11.6922 142.899 12.608C142.545 13.5534 142.072 14.4397 141.481 15.001C140.89 15.5623 140.565 15.8872 140.565 15.8872L139.738 15.0601C139.738 15.0601 140.565 14.1738 140.595 13.642C140.624 13.1103 140.359 12.4012 140.093 11.3673C139.797 10.3333 139.295 8.88569 139.295 8.88569L138.94 9.41745L137.759 11.4559V21.7662L140.24 22.4457L140.565 21.1458L141.954 21.5889L139.295 25.8726L133.682 24.3659C133.682 24.3659 134.184 24.0114 134.155 21.0572C134.125 18.1029 134.125 8.20621 134.125 8.20621L132.471 7.61536Z" fill="black"/>
<path fill-rule="evenodd" clip-rule="evenodd" d="M16.2214 25.0749L16.4578 23.8637C16.4578 23.8637 16.4578 14.3805 16.4282 13.7897C16.3987 13.2284 16.0737 12.3126 16.0737 12.3126L18.9098 11.249C18.9098 11.249 18.9393 11.249 18.5553 11.0127C17.6099 10.4514 16.96 9.80147 16.7532 9.56513L16.1624 8.61977L19.4416 6.96539L21.3323 4.74971L28.0089 7.20173L27.6544 7.79258L27.3294 8.61977L27.3589 22.2684L27.6248 22.4161L28.9542 22.7706L26.9454 25.9907L23.2821 25.0158L23.5184 22.4752L23.4298 21.6775L22.6026 22.9774L20.8891 26.0203L16.2214 25.0749ZM20.2983 8.20618L20.5051 8.73794C20.8005 9.2697 21.155 9.50604 21.7163 9.74238C22.2186 9.97872 22.5731 9.97872 23.1048 9.94918C23.7843 9.91964 24.7888 9.53559 24.7888 9.53559L20.2983 8.20618ZM20.2983 21.9434L21.9231 22.4752L23.5184 19.7277L23.4889 10.8059L20.2983 12.3421V21.9434Z" fill="black"/>
<path fill-rule="evenodd" clip-rule="evenodd" d="M30.0176 8.20619L33.0309 6.87678L34.8626 4.69064L42.0414 7.11312C42.0414 7.11312 41.5687 7.64488 41.5096 8.32436C41.4505 9.00383 41.4505 15.8281 41.4505 15.8281L41.4801 27.1724L39.0281 27.8815L36.8124 30.1562C36.8124 30.1562 34.3899 28.9745 33.0309 28.945C31.672 28.9154 31.4652 28.9745 31.0811 29.27C30.6971 29.5654 30.2244 30.4221 30.2244 30.4221L29.3086 30.0971C29.3086 30.0971 30.1062 28.5314 30.963 27.6747C31.8197 26.8179 32.5287 26.2566 33.1787 26.0203C33.8286 25.8135 34.1536 25.7839 34.1536 25.7839L34.0945 25.6067L29.9585 24.5136C29.9585 24.5136 30.313 23.4501 30.3721 22.5047C30.4312 21.5594 30.3721 15.4736 30.3721 15.4736L30.4017 9.65377L30.0176 8.20619ZM34.7149 25.6953L37.7577 26.4339V20.4663L34.7149 25.6953ZM34.2126 8.29481L34.2422 21.973L35.6011 22.357L37.7577 18.487V12.0762C37.7577 11.4854 37.4032 10.6582 37.4032 10.6582L38.319 9.68331L34.2126 8.29481Z" fill="black"/>
<path fill-rule="evenodd" clip-rule="evenodd" d="M44.0798 24.2773L44.4343 22.357C44.4343 22.357 44.4639 12.7853 44.4343 10.9832C44.4048 9.18108 44.0503 8.11755 44.0503 8.11755L46.65 7.43807L49.0134 4.74971L53.8288 9.74238L53.238 10.4514L48.3044 19.2846L48.3635 21.6775L52.2336 22.6524L52.6767 21.4412L53.8879 21.8252L51.4359 26.1384L44.0798 24.2773ZM48.2453 9.21062L48.2749 17.5416L51.0519 12.4012L48.2453 9.21062Z" fill="black"/>
<path fill-rule="evenodd" clip-rule="evenodd" d="M88.8958 24.1591L89.2503 22.2389C89.2503 22.2389 89.2798 12.6671 89.2503 10.865C89.2207 9.06293 88.8662 7.9994 88.8662 7.9994L91.466 7.31992L93.8293 4.63156L98.6448 9.62423L98.0539 10.3333L93.1203 19.1369L93.1794 21.5298L97.0495 22.5047L97.4926 21.2935L98.7038 21.648L96.2518 25.9612L88.8958 24.1591ZM93.0612 9.09247L93.0908 17.4234L95.8678 12.2831L93.0612 9.09247Z" fill="black"/>
<path fill-rule="evenodd" clip-rule="evenodd" d="M122.958 24.0705L123.313 22.1502C123.313 22.1502 123.342 12.5785 123.313 10.7764C123.283 8.97427 122.929 7.91075 122.929 7.91075L125.528 7.23127L127.892 4.54291L132.707 9.53558L132.116 10.2446L127.183 19.0778L127.242 21.4707L131.112 22.3865L131.555 21.1753L132.766 21.5298L130.314 25.843L122.958 24.0705ZM127.124 9.00382L127.153 17.3348L129.93 12.1944L127.124 9.00382Z" fill="black"/>
</svg>
