<svg width="79" height="56" viewBox="0 0 79 56" fill="none" xmlns="http://www.w3.org/2000/svg">
<path d="M0.859375 45.4309V35.0092L5.99238 35.0721C10.6997 35.1299 11.2156 35.1594 12.2132 35.4276C15.8497 36.4054 17.3713 38.4375 17.3713 42.3165C17.3713 45.4961 16.3059 47.4886 14.0058 48.6102C12.668 49.2626 11.6504 49.4647 9.25574 49.5537L7.11416 49.6333V52.743V55.8527H3.98677H0.859375V45.4309ZM10.6132 44.2471C11.6844 43.6751 11.8867 41.6547 10.965 40.733C10.513 40.2811 9.61119 40.0718 8.1154 40.0718H7.11416V42.3312V44.5906L8.64386 44.5362C9.74875 44.497 10.2956 44.4167 10.6132 44.2471ZM15.3007 55.6851C15.3332 55.5902 16.852 50.9058 18.6758 45.2754L21.9919 35.0383H26.0362H30.0805L31.1175 38.2693C31.6879 40.0463 32.6349 42.9695 33.222 44.7653C35.0856 50.465 36.7564 55.6622 36.7564 55.7591C36.7564 55.8105 35.2726 55.8525 33.459 55.8523L30.1617 55.8518L29.7002 54.1517L29.2388 52.4516H25.9308H22.6227L22.4232 53.1658C22.3135 53.5586 22.1078 54.3086 21.966 54.8323L21.7084 55.7846L18.475 55.8211C15.9104 55.8501 15.2538 55.822 15.3007 55.6851ZM27.7821 47.2677C27.7821 46.8303 25.9519 40.4904 25.8693 40.6418C25.8158 40.7398 25.3913 42.2261 24.9259 43.9445C24.4605 45.663 24.0496 47.1475 24.0127 47.2435C23.9602 47.3805 24.359 47.4181 25.864 47.4181C27.1737 47.4181 27.7821 47.3704 27.7821 47.2677ZM37.8442 45.4339V35.0152L43.5211 35.0722C48.896 35.1261 49.2516 35.1452 50.2057 35.4304C52.3344 36.0666 53.8361 37.1355 54.4954 38.4838C55.4687 40.4742 55.4617 43.3436 54.4786 45.3751C54.2616 45.8234 53.7373 46.4997 53.1765 47.0546L52.2376 47.9835L53.9696 51.2038C54.9222 52.9751 55.8809 54.7456 56.1001 55.1384L56.4985 55.8527H53.1189H49.7393L48.0753 52.5196L46.4112 49.1866H45.2551H44.099V52.5196V55.8527H40.9716H37.8442V45.4339ZM48.0464 44.0763C48.3058 43.9264 48.6251 43.5915 48.7559 43.3322C49.0838 42.6818 49.0698 41.4902 48.7276 40.9287C48.2734 40.1835 47.7793 40.0181 45.8326 39.9601L44.099 39.9084V42.1829V44.4573L45.8368 44.4031C47.2622 44.3587 47.6595 44.2999 48.0464 44.0763ZM57.8289 55.6826C57.827 55.5891 57.8117 50.9058 57.7949 45.2754L57.7643 35.0382L61.0617 35.0382L64.359 35.0383L64.363 38.4733L64.367 41.9084L64.7369 41.4917C64.9404 41.2625 66.173 39.7167 67.476 38.0566L69.845 35.0383H73.3052H76.7654L76.2449 35.6845C75.9586 36.0399 75.0785 37.0959 74.289 38.0312C70.2389 42.8295 70.2759 42.7792 70.5061 43.1793C71.1486 44.296 77.2978 55.4777 77.3633 55.6485C77.4317 55.8268 76.9935 55.8527 73.9035 55.8527H70.3653L69.6913 54.5943C69.3205 53.9022 68.5394 52.4176 67.9556 51.2953C67.3717 50.1729 66.698 48.8975 66.4585 48.461L66.023 47.6674L65.191 48.6563L64.359 49.6452V52.7489V55.8527H61.0957C58.5775 55.8527 57.8315 55.8138 57.8289 55.6826ZM2.2191 17.3868L2.21911 0.483615L4.08875 0.476795C7.95791 0.462681 12.8825 0.495746 12.9228 0.536109C12.9719 0.585237 12.9753 34.118 12.9263 34.1639C12.908 34.181 10.4914 34.2164 7.55606 34.2425L2.21908 34.29L2.2191 17.3868ZM28.8412 34.2543L23.9855 34.2186L23.5806 32.8939C23.3579 32.1653 21.1846 24.9576 18.7511 16.8767C16.3175 8.79577 14.2084 1.80152 14.0641 1.33388L13.8018 0.483615H19.5569H25.312L28.0725 11.6365C29.5908 17.7706 30.8741 22.7446 30.9242 22.6899C30.9744 22.6352 31.6745 19.8968 32.4801 16.6046C33.2857 13.3124 34.503 8.35364 35.1854 5.58519L36.4259 0.551636L46.4833 0.519165L56.5406 0.486694L59.045 6.50501C60.4225 9.81508 61.591 12.5721 61.6416 12.6317C61.6923 12.6912 62.8925 9.99762 64.3087 6.64582L66.8837 0.551636L72.4913 0.516114L78.0988 0.480592L77.6356 1.33237C76.85 2.77698 70.4765 15.0526 68.6607 18.6182L66.9425 21.9923V28.1072C66.9425 31.4703 66.8966 34.2318 66.8405 34.2438C66.7845 34.2557 64.3675 34.2768 61.4696 34.2905L56.2006 34.3155V28.0751V21.8348L54.9642 19.4237C51.446 12.5635 46.9011 3.88466 46.8266 3.88466C46.7801 3.88466 46.4225 4.94069 46.032 6.23139C45.1911 9.01104 44.3781 11.6901 43.4414 14.768C43.0657 16.0026 42.5772 17.6555 42.3558 18.4411C42.0143 19.6529 40.8019 23.633 38.7299 30.3448C38.4758 31.1679 38.0981 32.4053 37.8905 33.0946L37.5131 34.348L35.6051 34.319C34.5556 34.3031 31.5119 34.274 28.8412 34.2543Z" fill="black"/>
</svg>
