<svg width="162" height="27" viewBox="0 0 162 27" fill="none" xmlns="http://www.w3.org/2000/svg">
<path d="M0.401855 26.3172C0.474983 26.1588 0.575411 26.0073 0.616362 25.8402C1.20138 23.4382 1.77567 21.0334 2.35679 18.6305C3.42348 14.2177 4.49309 9.80488 5.5588 5.3911C5.92541 3.87292 6.29494 2.35474 6.64108 0.831664C6.71908 0.488533 6.85266 0.335053 7.22025 0.338963C8.73155 0.355582 10.2428 0.356559 11.7541 0.344828C12.0847 0.341896 12.2046 0.484623 12.2768 0.781807C13.5219 5.91998 14.7738 11.0562 16.0267 16.1934C16.8516 19.5758 17.6765 22.9592 18.515 26.3377C18.6184 26.7522 18.5296 26.8989 18.0918 26.893C16.6781 26.8735 15.2643 26.8686 13.8514 26.8891C13.4868 26.894 13.323 26.7669 13.2362 26.4296C12.9476 25.3113 12.6248 24.2017 12.3538 23.0795C12.266 22.7178 12.1022 22.6083 11.7541 22.6132C10.6816 22.6278 9.60908 22.6092 8.53654 22.6259C8.17285 22.6317 8.07145 22.5056 8.16018 22.1586C8.56189 20.5817 8.96751 19.0059 9.33899 17.4222C9.43162 17.0263 9.59348 16.8963 9.99616 16.9119C10.8045 16.9432 10.7967 16.9227 10.5812 16.1044C10.2818 14.9714 9.99714 13.8355 9.70365 12.7015C9.65783 12.5226 9.59933 12.3466 9.54667 12.1687C9.49792 12.1677 9.4482 12.1657 9.39944 12.1648C9.24246 12.7464 9.07866 13.3252 8.93045 13.9088C7.8745 18.0742 6.81951 22.2397 5.77525 26.4071C5.6836 26.7718 5.50809 26.9008 5.13076 26.8979C3.55511 26.8842 1.97946 26.9008 0.403806 26.9057C0.403806 26.7102 0.403806 26.5147 0.403806 26.3192L0.401855 26.3172Z" fill="black"/>
<path d="M58.2045 26.8608C57.9715 26.8715 57.7989 26.8872 57.6264 26.8872C56.1648 26.8901 54.7022 26.8696 53.2416 26.9028C52.7551 26.9136 52.5211 26.7405 52.3378 26.3006C51.0225 23.1499 49.674 20.0138 48.3626 16.8621C48.1627 16.3821 47.9092 16.1983 47.3856 16.2208C46.355 16.2648 46.4476 16.3997 46.4505 15.3136C46.4525 14.0437 46.4613 12.7728 46.434 11.503C46.4252 11.0826 46.5695 10.9819 46.9673 10.9888C48.2173 11.0112 49.4683 10.9809 50.7192 10.9995C51.1658 11.0064 51.4846 10.8695 51.8356 10.5684C52.5533 9.95349 52.7746 9.25648 52.8526 8.30529C52.955 7.0579 52.251 6.4342 51.4993 5.75674C51.3754 5.64529 51.1414 5.6189 50.9581 5.61694C49.6428 5.60326 48.3265 5.58859 47.0112 5.61303C46.5929 5.62085 46.4349 5.52114 46.4427 5.07634C46.4661 3.67645 46.4593 2.27557 46.4427 0.874697C46.4379 0.482687 46.5519 0.332139 46.9673 0.33605C48.9973 0.353646 51.0283 0.332139 53.0583 0.357557C53.3177 0.360489 53.6375 0.49344 53.8237 0.67527C55.1595 1.97741 56.4739 3.30301 57.7785 4.63643C57.9198 4.78111 58.031 5.02551 58.0329 5.22493C58.0554 7.26026 58.0602 9.29558 58.0437 11.3309C58.0417 11.5479 57.9276 11.8158 57.7755 11.9722C56.585 13.1932 55.3643 14.3858 54.1786 15.6117C54.049 15.7457 53.9846 16.0741 54.0529 16.2491C55.101 18.9277 56.1765 21.5955 57.2461 24.2653C57.5298 24.974 57.8175 25.6808 58.0963 26.3915C58.147 26.5196 58.1607 26.6633 58.2065 26.8608H58.2045Z" fill="black"/>
<path d="M78.7904 13.6087C78.7904 16.3606 78.7992 19.1125 78.7777 21.8634C78.7758 22.1254 78.6636 22.4529 78.4862 22.6376C77.1923 23.9808 75.875 25.3015 74.5461 26.6105C74.393 26.7611 74.1278 26.8676 73.9113 26.8725C72.8729 26.8989 71.8326 26.8725 70.7942 26.8881C70.4422 26.894 70.3417 26.7415 70.3437 26.4218C70.3495 24.9731 70.3505 23.5233 70.3408 22.0745C70.3378 21.7255 70.5065 21.574 70.8166 21.6366C71.8833 21.8516 72.5892 21.3169 73.2278 20.5593C73.4521 20.2934 73.5671 20.05 73.5662 19.6971C73.5554 15.643 73.5554 11.589 73.5671 7.53497C73.5681 7.14589 73.4911 6.83307 73.1732 6.59942C73.1216 6.5613 73.0718 6.51535 73.0338 6.46354C72.5151 5.77043 71.8482 5.44685 70.9736 5.6062C70.4792 5.69614 70.3281 5.46641 70.3378 4.97762C70.3642 3.60998 70.3534 2.24234 70.3388 0.874706C70.3349 0.484651 70.4558 0.326283 70.8722 0.338014C71.8462 0.366364 72.8212 0.324328 73.7943 0.364409C74.0673 0.37614 74.3949 0.510069 74.5909 0.699719C75.917 1.98719 77.2225 3.29618 78.5106 4.62275C78.6773 4.79481 78.7787 5.10568 78.7806 5.35301C78.7992 8.1049 78.7923 10.8558 78.7933 13.6077L78.7904 13.6087Z" fill="black"/>
<path d="M60.7898 13.5832C60.7898 10.8314 60.783 8.07849 60.8015 5.32659C60.8035 5.09588 60.9097 4.80945 61.0687 4.6462C62.3928 3.2854 63.7363 1.94416 65.0877 0.609764C65.2233 0.475835 65.4456 0.363413 65.6308 0.359503C66.6858 0.335063 67.7418 0.353638 68.7977 0.341907C69.138 0.337996 69.2511 0.478768 69.2482 0.810168C69.2384 2.25992 69.2394 3.7087 69.2501 5.15845C69.2531 5.49669 69.1224 5.6619 68.7909 5.60227C67.8061 5.42533 67.0953 5.82516 66.4772 6.57203C66.1905 6.91907 66.0306 7.22995 66.0316 7.68941C66.0472 11.7122 66.0345 15.7339 66.054 19.7567C66.055 20.0118 66.2509 20.2689 66.367 20.5202C66.3992 20.5905 66.4781 20.6385 66.5269 20.703C67.0778 21.4293 67.772 21.8037 68.708 21.6297C69.1468 21.5486 69.2599 21.7812 69.254 22.1918C69.2345 23.5917 69.2336 24.9926 69.2501 26.3935C69.255 26.7825 69.1244 26.9018 68.7422 26.894C67.7359 26.8715 66.7277 26.9008 65.7215 26.8735C65.5021 26.8676 65.233 26.7718 65.079 26.6212C63.7334 25.3035 62.4015 23.972 61.0891 22.621C60.9195 22.447 60.8083 22.1381 60.8064 21.8907C60.7869 19.1222 60.7937 16.3537 60.7937 13.5852H60.7898V13.5832Z" fill="black"/>
<path d="M161.724 0.454315C161.357 0.955814 161.023 1.42603 160.676 1.88647C158.571 4.67453 156.463 7.45966 154.355 10.2458C154.061 10.6348 153.74 11.0073 153.485 11.4198C153.389 11.5733 153.361 11.8666 153.444 12.0181C155.472 15.7105 157.517 19.393 159.564 23.0755C160.157 24.1411 160.761 25.2008 161.356 26.2654C161.438 26.413 161.497 26.5743 161.6 26.804C161.307 26.8187 161.103 26.8383 160.897 26.8383C159.32 26.8392 157.745 26.8265 156.168 26.8422C155.791 26.8461 155.596 26.7063 155.414 26.3778C153.58 23.0648 151.725 19.7645 149.887 16.4534C149.766 16.2364 149.693 15.9617 149.692 15.7124C149.677 13.1873 149.675 10.6612 149.692 8.13615C149.694 7.89566 149.785 7.6151 149.927 7.42349C151.617 5.15844 153.322 2.90413 155.036 0.657652C155.149 0.509059 155.373 0.356557 155.547 0.354602C157.529 0.334072 159.511 0.341893 161.494 0.345803C161.536 0.345803 161.578 0.383929 161.725 0.453337L161.724 0.454315Z" fill="black"/>
<path d="M137.792 26.8343C137.126 26.8343 136.459 26.8197 135.794 26.8402C135.46 26.85 135.26 26.7425 135.105 26.4345C133.349 22.968 131.582 19.5064 129.815 16.0448C127.791 12.0778 125.763 8.11171 123.738 4.14468C123.361 3.40661 122.952 2.68222 122.633 1.91971C122.478 1.54823 122.467 1.10538 122.455 0.691866C122.451 0.582377 122.677 0.367309 122.8 0.365354C124.246 0.343847 125.692 0.339937 127.137 0.373175C127.317 0.377085 127.567 0.584332 127.658 0.762252C129.101 3.54836 130.524 6.34522 131.952 9.13817C134.24 13.6096 136.527 18.0801 138.816 22.5506C139.29 23.4764 139.803 24.3835 140.223 25.3338C140.384 25.6974 140.358 26.1569 140.354 26.5724C140.354 26.6623 140.086 26.8216 139.937 26.8275C139.223 26.8549 138.508 26.8392 137.793 26.8392V26.8353L137.792 26.8343Z" fill="black"/>
<path d="M119.673 11.4355C119.673 14.9059 119.669 18.3763 119.679 21.8458C119.68 22.1987 119.577 22.4538 119.324 22.7041C118.065 23.9485 116.821 25.2077 115.581 26.4707C115.324 26.7317 115.053 26.8539 114.679 26.8451C113.688 26.8217 112.697 26.8197 111.706 26.8422C111.354 26.85 111.255 26.7298 111.258 26.3935C111.27 24.976 111.263 23.5585 111.258 22.141C111.257 21.8546 111.289 21.5574 111.659 21.6385C112.832 21.8956 113.55 21.2084 114.209 20.4273C114.356 20.2523 114.411 19.9512 114.412 19.7078C114.42 13.5823 114.416 7.45577 114.416 1.33025C114.416 0.124891 114.344 0.365376 115.406 0.349735C116.674 0.330183 117.941 0.349735 119.209 0.339959C119.562 0.337026 119.686 0.460201 119.685 0.829727C119.672 4.36466 119.677 7.90057 119.677 11.4355H119.675H119.673Z" fill="black"/>
<path d="M101.674 11.4121C101.674 7.9436 101.674 4.47612 101.674 1.00766C101.674 0.349751 101.674 0.347795 102.314 0.346818C103.63 0.34584 104.945 0.34584 106.26 0.346818C106.912 0.346818 106.919 0.352683 106.919 0.995932C106.919 6.90639 106.92 12.8168 106.916 18.7273C106.915 20.352 106.903 20.3579 108.144 21.4088C108.289 21.532 108.514 21.5985 108.709 21.619C109.029 21.6522 109.357 21.6346 109.682 21.6229C109.99 21.6121 110.127 21.7451 110.126 22.056C110.121 23.5047 110.121 24.9545 110.126 26.4033C110.127 26.7083 110.007 26.8451 109.692 26.8432C108.636 26.8354 107.581 26.8539 106.526 26.8315C106.34 26.8275 106.115 26.7161 105.978 26.5812C104.601 25.2272 103.23 23.8655 101.88 22.4832C101.736 22.3356 101.683 22.0423 101.682 21.8165C101.671 18.348 101.674 14.8805 101.674 11.4121Z" fill="black"/>
<path d="M20.5762 13.6438C20.5762 9.42753 20.5762 5.21025 20.5762 0.993938C20.5762 0.563151 20.7926 0.347105 21.2255 0.345802C22.5409 0.344824 23.8562 0.345802 25.1715 0.345802C25.8131 0.345802 25.8218 0.35069 25.8218 1.00078C25.8228 8.92897 25.8218 16.8581 25.8228 24.7863C25.8228 25.324 25.8189 25.8607 25.8316 26.3983C25.8394 26.7395 25.7234 26.9008 25.3519 26.8969C23.9069 26.8813 22.4619 26.8793 21.0169 26.894C20.6327 26.8979 20.5693 26.7337 20.5703 26.3925C20.5801 22.1429 20.5771 17.8944 20.5771 13.6448L20.5762 13.6438Z" fill="black"/>
<path d="M87.0089 13.6585C87.0089 17.8279 87.0089 21.9983 87.0089 26.1677C87.0089 26.8285 86.9953 26.8422 86.3254 26.8412C85.0091 26.8393 83.6938 26.8451 82.3775 26.8363C81.7359 26.8314 81.733 26.8197 81.733 26.1774C81.732 19.7919 81.7311 13.4073 81.7311 7.02172C81.7311 5.00204 81.7428 2.98236 81.7223 0.962675C81.7174 0.501257 81.8481 0.329202 82.3239 0.337023C83.7201 0.360485 85.1183 0.355597 86.5146 0.337023C86.9485 0.331158 87.0128 0.533517 87.0118 0.904998C87.0021 5.1565 87.006 9.408 87.006 13.6585H87.0079H87.0089Z" fill="black"/>
<path d="M148.583 13.5559C148.583 17.8064 148.578 22.0569 148.591 26.3075C148.592 26.6877 148.479 26.8402 148.1 26.8393C146.655 26.8344 145.21 26.8442 143.765 26.8451C143.471 26.8451 143.322 26.7151 143.329 26.3964C143.342 25.7453 143.33 25.0933 143.33 24.4422C143.33 16.6578 143.33 8.8723 143.33 1.08782C143.33 0.340946 143.33 0.343879 144.091 0.345834C145.407 0.348766 146.723 0.356587 148.038 0.341923C148.45 0.337035 148.592 0.457278 148.59 0.9011C148.572 5.11936 148.579 9.33763 148.579 13.5549H148.582L148.583 13.5559Z" fill="black"/>
<path d="M45.3042 13.6575C45.3042 17.8602 45.2955 22.0628 45.3159 26.2654C45.3189 26.7747 45.1531 26.9038 44.6763 26.8959C43.3122 26.8725 41.9462 26.8735 40.5822 26.9018C40.1336 26.9106 40.0449 26.7405 40.0459 26.3309C40.0576 18.7889 40.0576 11.2468 40.0586 3.70478C40.0586 2.76044 40.0673 1.81512 40.0449 0.870774C40.0352 0.468988 40.1726 0.326261 40.5792 0.333104C41.9765 0.353633 43.3737 0.360476 44.7709 0.335059C45.2175 0.327239 45.3159 0.491472 45.315 0.903034C45.3033 5.15454 45.3081 9.40604 45.3081 13.6575C45.3072 13.6575 45.3062 13.6575 45.3052 13.6575H45.3042Z" fill="black"/>
<path d="M91.7137 16.2081C90.6909 16.2081 89.6671 16.1963 88.6443 16.2139C88.2611 16.2208 88.1373 16.081 88.1412 15.6997C88.1588 14.2998 88.1588 12.8989 88.1393 11.499C88.1334 11.1119 88.2631 10.9868 88.6434 10.9907C89.9743 11.0044 91.3062 11.0083 92.6371 10.9751C92.8955 10.9692 93.2075 10.845 93.3966 10.6691C94.5101 9.63871 94.4487 9.62502 94.5228 8.1303C94.5637 7.31011 94.3327 6.72356 93.7359 6.17416C93.2884 5.76162 92.8672 5.5358 92.2403 5.56317C91.0575 5.61498 89.8699 5.56317 88.6853 5.58175C88.2875 5.58761 88.1315 5.45564 88.1363 5.04896C88.1529 3.63245 88.1529 2.21593 88.1432 0.799418C88.1412 0.459219 88.2719 0.340932 88.6034 0.34191C90.7143 0.34973 92.8253 0.338977 94.9362 0.358529C95.1332 0.360484 95.373 0.484637 95.5183 0.628341C96.8375 1.92657 98.148 3.2336 99.4379 4.56115C99.6076 4.73614 99.7343 5.03528 99.7373 5.2787C99.7616 7.28078 99.7616 9.28385 99.7373 11.2859C99.7343 11.5313 99.6105 11.8344 99.4399 12.0103C98.2211 13.2694 96.9721 14.4983 95.7426 15.7457C95.4315 16.0614 95.102 16.2354 94.6349 16.2188C93.6618 16.1846 92.6868 16.2081 91.7128 16.2081H91.7137Z" fill="black"/>
<path d="M140.207 22.7862C140.059 22.5076 139.906 22.2319 139.762 21.9504C138.281 19.0362 136.798 16.122 135.328 13.202C135.216 12.9801 135.146 12.7093 135.145 12.462C135.132 8.61714 135.14 4.77329 135.125 0.928461C135.123 0.481707 135.265 0.330182 135.715 0.338002C137.079 0.361464 138.445 0.366352 139.809 0.336047C140.274 0.325294 140.384 0.48464 140.383 0.924551C140.374 7.26123 140.379 13.5989 140.382 19.9356C140.382 20.7665 140.392 21.5965 140.392 22.4274C140.392 22.533 140.367 22.6396 140.353 22.7451L140.208 22.7872L140.207 22.7862Z" fill="black"/>
<path d="M122.54 4.27274C122.9 4.97269 123.264 5.67166 123.62 6.37357C124.884 8.86542 126.153 11.3553 127.401 13.856C127.54 14.1346 127.62 14.4748 127.621 14.7866C127.635 18.5972 127.621 22.4069 127.637 26.2175C127.639 26.7092 127.498 26.8617 127.002 26.85C125.703 26.8177 124.404 26.8441 123.105 26.8422C122.435 26.8412 122.43 26.8363 122.43 26.1637C122.428 20.5299 122.43 14.8961 122.423 9.26134C122.421 7.74805 122.395 6.23377 122.381 4.72048C122.38 4.58166 122.398 4.44284 122.407 4.30403C122.451 4.29327 122.494 4.2835 122.539 4.27274H122.54Z" fill="black"/>
<path d="M32.778 5.60616C31.0248 5.60616 29.2727 5.59443 27.5196 5.61398C27.0526 5.61985 26.9053 5.46735 26.9161 4.99518C26.9453 3.61288 26.9414 2.2296 26.919 0.84632C26.9122 0.447467 27.0604 0.339933 27.426 0.340911C30.98 0.348731 34.534 0.348731 38.088 0.344821C38.4448 0.344821 38.6008 0.440624 38.5921 0.851208C38.5628 2.26577 38.5706 3.68228 38.5891 5.09782C38.594 5.48299 38.4663 5.61496 38.0841 5.61203C36.3154 5.59932 34.5467 5.60616 32.777 5.60616H32.778Z" fill="black"/>
<path d="M30.8281 16.2344C29.6756 16.2344 28.5241 16.2276 27.3716 16.2393C27.0498 16.2423 26.9123 16.1621 26.9172 15.7984C26.9377 14.3829 26.9377 12.9674 26.9162 11.5518C26.9104 11.1363 27.0225 10.978 27.4613 10.9819C29.7331 11.0014 32.0049 11.0005 34.2767 10.9887C34.6326 10.9868 34.7672 11.0875 34.7633 11.457C34.7487 12.8882 34.7487 14.3203 34.7643 15.7525C34.7691 16.1543 34.6005 16.2442 34.2348 16.2383C33.0989 16.2198 31.963 16.2315 30.8271 16.2315V16.2344H30.8281Z" fill="black"/>
</svg>
