<svg width="98" height="46" viewBox="0 0 98 46" fill="none" xmlns="http://www.w3.org/2000/svg">
<path d="M7.61968 1.15938C7.66187 1.15076 7.7052 1.13639 7.7491 1.13352C8.11114 1.11225 10.1881 1.12949 10.3928 1.15708C10.4264 1.22778 10.4686 1.30768 10.5034 1.39102C10.9778 2.52507 11.4515 3.65913 11.9242 4.79376C12.3512 5.8186 12.7765 6.84402 13.2035 7.86829C13.6346 8.90119 14.0719 9.93178 14.4966 10.9675C14.8307 11.7826 15.1483 12.6045 15.4767 13.4213C15.5069 13.4972 15.5017 13.6374 15.6272 13.6093C15.7258 13.5869 15.6853 13.4673 15.6842 13.3908C15.6728 12.4172 15.6574 11.4435 15.6431 10.4698C15.642 10.387 15.6414 10.3042 15.6414 10.2215C15.6414 7.31707 15.6414 4.41268 15.6414 1.50885V1.16628C15.7167 1.15306 15.7765 1.13352 15.837 1.13294C16.6032 1.13064 17.3695 1.13064 18.1358 1.13294C18.2053 1.13294 18.2754 1.15018 18.3598 1.16111C18.3746 1.53529 18.3655 1.89223 18.3672 2.24918C18.3689 2.60784 18.3672 2.96594 18.3672 3.3246V5.44787C18.3672 5.80653 18.3672 6.16463 18.3672 6.52329V18.2967C18.3672 18.6553 18.3672 19.0134 18.3672 19.3721C18.3672 19.7296 18.3649 20.0871 18.3689 20.4228C18.4499 20.5165 18.536 20.5067 18.6158 20.5142C19.0622 20.5544 19.4995 20.6412 19.9254 20.7843C21.2458 21.2286 22.1848 22.0954 22.7407 23.3801C23.0959 24.2003 23.2464 25.0659 23.2607 25.9563C23.2664 26.3144 23.2567 26.6736 23.2322 27.0305C23.1763 27.8249 23.0024 28.5911 22.6694 29.3182C22.2242 30.2902 21.5161 31.0029 20.5776 31.4915C20.4898 31.5374 20.4015 31.5823 20.2988 31.6352C20.4642 32.1737 20.6409 32.6928 20.8091 33.2147C20.9756 33.7297 21.1421 34.2447 21.308 34.7597C21.4773 35.2833 21.646 35.8075 21.8154 36.3312C21.9853 36.8554 22.1563 37.379 22.3251 37.9026C22.4916 38.4177 22.6586 38.9327 22.8205 39.4494C22.9841 39.9713 23.174 40.4852 23.3228 41.0306C23.2242 41.0421 23.1626 41.0542 23.0999 41.0559C22.0292 41.0841 20.4721 41.0691 20.2087 41.0255C20.0012 40.461 19.837 39.8696 19.6466 39.2873C19.4528 38.6941 19.2697 38.0975 19.081 37.5026C18.8952 36.9163 18.7076 36.3312 18.5212 35.7449C18.3319 35.1506 18.1426 34.5557 17.9556 33.9608C17.7714 33.375 17.5839 32.7905 17.3923 32.2059C17.1523 32.1473 16.9242 32.1841 16.699 32.1703C16.4624 32.1559 16.2252 32.1559 15.9881 32.153C15.7623 32.1502 15.5365 32.153 15.2976 32.153C15.2868 32.2157 15.2731 32.2674 15.2708 32.3197C15.2663 32.4117 15.2691 32.5037 15.2691 32.5956C15.2691 35.2793 15.2691 37.963 15.2691 40.6467C15.2691 40.7645 15.2646 40.8829 15.2623 41.0099C15.1956 41.0283 15.1454 41.0536 15.0947 41.0536C14.2828 41.0559 13.4709 41.0559 12.6591 41.0548C12.6152 41.0548 12.5713 41.0398 12.5217 41.0312C12.5108 40.9818 12.4949 40.9381 12.4926 40.8938C12.488 40.8024 12.4897 40.7099 12.4897 40.6179C12.4897 34.0372 12.4897 27.457 12.4909 20.8763C12.4909 20.7493 12.4704 20.6199 12.5183 20.4854C12.7623 20.4418 13.0074 20.4711 13.2509 20.4659C13.4972 20.4607 13.7435 20.4648 13.9898 20.4648H14.7286C14.9744 20.4648 15.2201 20.4648 15.4539 20.4648C15.5189 20.3866 15.475 20.3291 15.4521 20.2733C15.1078 19.4428 14.7606 18.6134 14.4162 17.7828C13.8079 16.3171 13.2013 14.8502 12.5929 13.3845C12.1745 12.3763 11.7514 11.3699 11.3381 10.3594C11.0673 9.69727 10.8113 9.02879 10.5479 8.36319C10.5074 8.26087 10.4658 8.15914 10.423 8.0574C10.4122 8.03211 10.4099 8.03268 10.2947 8.02061C10.2503 8.35744 10.2907 8.69541 10.2902 9.03166C10.2902 9.37136 10.305 9.71106 10.3084 10.0508C10.3118 10.391 10.309 10.7307 10.309 11.071C10.309 11.4113 10.309 11.751 10.309 12.0913V21.3005C10.309 21.6408 10.3118 21.9805 10.3084 22.3207C10.305 22.6576 10.3255 22.9955 10.2936 23.3209C10.1642 23.3835 10.053 23.3628 9.94525 23.3628C8.00224 23.364 6.05923 23.3634 4.1168 23.3646C4.00904 23.3646 3.89787 23.3462 3.79353 23.3921C3.72968 23.4749 3.75305 23.5697 3.75248 23.6588C3.7502 24.2744 3.75134 24.8906 3.75134 25.5062C3.75134 26.5081 3.75134 27.5099 3.75134 28.5118C3.75134 28.6118 3.75533 28.7124 3.75762 28.8273C3.82888 28.84 3.88875 28.8589 3.94861 28.8601C4.17666 28.8641 4.40471 28.8618 4.63277 28.8618C5.59059 28.8618 6.54841 28.8618 7.50623 28.8618H7.81353C7.82949 28.9285 7.85287 28.9802 7.85287 29.032C7.85515 29.8775 7.85458 30.723 7.85344 31.5685C7.85344 31.6122 7.83918 31.6564 7.83234 31.6949C7.72687 31.7524 7.62481 31.7306 7.52675 31.7306C6.37737 31.7323 5.22798 31.7312 4.0786 31.7323C3.98054 31.7323 3.87905 31.7168 3.77586 31.7639C3.76731 31.8099 3.75476 31.8536 3.75305 31.8973C3.74906 31.9892 3.75077 32.0812 3.75077 32.1732C3.75077 35.004 3.75077 37.8348 3.7502 40.6656C3.7502 40.7829 3.76731 40.9036 3.71885 41.0289C3.66468 41.0387 3.6128 41.0565 3.56092 41.0565C2.7673 41.0582 1.97367 41.0582 1.18005 41.0571C1.12703 41.0571 1.07401 41.0433 1.01072 41.0341C1.00046 40.976 0.986778 40.9243 0.983357 40.8714C0.978796 40.7984 0.981647 40.7243 0.981647 40.6507C0.981647 34.0516 0.981647 27.453 0.981647 20.8539C0.981647 20.7361 0.971955 20.6171 0.999321 20.4843C1.08712 20.478 1.1658 20.467 1.24505 20.467C1.82886 20.4659 2.41268 20.4665 2.99649 20.4665C4.41042 20.4665 5.82434 20.4665 7.2377 20.4665H7.54785C7.56324 20.4021 7.58206 20.3515 7.58548 20.2998C7.59118 20.2084 7.58776 20.1164 7.58776 20.0245C7.58776 13.8576 7.58776 7.69069 7.5889 1.52322C7.5889 1.40596 7.56837 1.28526 7.6174 1.16053L7.61968 1.15938ZM15.2993 23.3893C15.2554 23.5071 15.2703 23.618 15.2703 23.7261C15.2691 25.4528 15.2697 27.18 15.2697 28.9066C15.2697 28.971 15.2663 29.0354 15.272 29.0992C15.2765 29.1509 15.2925 29.2021 15.3045 29.2596C15.3797 29.2665 15.4425 29.2768 15.5046 29.2768C16.2247 29.278 16.9453 29.2849 17.6648 29.2739C17.9368 29.2699 18.2121 29.244 18.479 29.1912C19.3347 29.0216 19.918 28.5279 20.2053 27.6847C20.341 27.288 20.3918 26.8794 20.4089 26.4667C20.4322 25.8936 20.3667 25.3292 20.1381 24.7952C19.8667 24.1601 19.4037 23.7336 18.7509 23.5186C18.4277 23.4123 18.093 23.368 17.7549 23.3657C16.9983 23.3594 16.2418 23.3634 15.4852 23.3646C15.4242 23.3646 15.3626 23.3801 15.2993 23.3887V23.3893Z" fill="black"/>
<path d="M63.9803 1.18063C64.0063 1.16971 64.0306 1.14959 64.0555 1.14959C64.9164 1.14615 65.7768 1.14442 66.6378 1.14442C66.6725 1.14442 66.7066 1.16339 66.7384 1.17258C66.7841 1.29615 66.765 1.41684 66.765 1.53524C66.7662 6.24915 66.765 10.9636 66.7668 15.6775C66.7668 16.2885 66.8651 16.8845 67.0902 17.4569C67.1955 17.7247 67.3373 17.9719 67.5184 18.1943C67.8493 18.6012 68.2717 18.8656 68.7901 18.977C69.3184 19.0903 69.8408 19.0713 70.3506 18.8989C71.0652 18.6569 71.517 18.1431 71.7878 17.4609C71.9938 16.9425 72.0806 16.4 72.0916 15.8442C72.0933 15.7523 72.0916 15.6603 72.0916 15.5683C72.0916 10.8906 72.0916 6.21351 72.0922 1.53581C72.0922 1.41799 72.0748 1.29845 72.1176 1.16914C72.179 1.15936 72.2409 1.14327 72.3028 1.14097C73.3257 1.10706 74.6368 1.12603 74.8613 1.17948C74.8688 1.21799 74.8827 1.26167 74.8839 1.30592C74.8879 1.42546 74.8868 1.54501 74.8868 1.66398C74.8868 6.30489 74.8879 10.9452 74.8856 15.5862C74.8856 16.3787 74.804 17.1621 74.6027 17.9322C74.362 18.8535 73.9529 19.688 73.3275 20.4133C73.298 20.4478 73.2702 20.4834 73.2343 20.5265C73.2904 20.7771 73.346 21.0271 73.4027 21.2771C73.6353 22.2978 73.8661 23.3191 74.1022 24.3398C74.307 25.2261 74.5194 26.1106 74.7236 26.9968C74.9817 28.1158 75.2328 29.2359 75.4902 30.3549C75.7524 31.4917 76.0208 32.6274 76.2841 33.7642C76.5427 34.8832 76.7967 36.0033 77.0542 37.1223C77.3319 38.331 77.6114 39.5391 77.8885 40.7477C77.9088 40.8362 77.9209 40.9264 77.9383 41.0276C77.8781 41.0408 77.8353 41.0586 77.7919 41.0586C76.8939 41.0604 75.9959 41.0604 75.098 41.0604C75.0702 41.0604 75.0424 41.0604 75.0146 41.0575C74.9198 41.0471 74.8874 41.023 74.8648 40.9247C74.822 40.7368 74.7844 40.5477 74.7444 40.3586C74.5911 39.6304 74.4378 38.9023 74.2856 38.1741C74.141 37.4815 73.9992 36.7884 73.8522 36.0964C73.8222 35.9551 73.817 35.8039 73.7359 35.6826C73.4825 35.6499 70.6931 35.6344 69.8391 35.6602C69.7853 35.6619 69.7315 35.6729 69.6598 35.6821C69.6193 35.8545 69.5747 36.0223 69.5406 36.1913C69.2877 37.4425 69.0372 38.6948 68.7849 39.946C68.7288 40.2253 68.6692 40.504 68.6102 40.7822C68.5911 40.8713 68.5859 40.9661 68.5124 41.0345C68.3232 41.0644 66.1714 41.0839 65.7398 41.0586C65.6952 41.0558 65.6518 41.0414 65.598 41.0299C65.5888 40.7879 65.6837 40.5741 65.7247 40.3517C65.7664 40.1264 65.8289 39.9046 65.8821 39.681C65.9371 39.4482 65.992 39.2161 66.0464 38.9833C66.0985 38.7597 66.1494 38.5356 66.2015 38.312C66.2536 38.0884 66.3056 37.8649 66.3577 37.6413C66.4098 37.4177 66.463 37.1942 66.5151 36.9706C66.5689 36.7378 66.6216 36.5051 66.6742 36.2723C66.7245 36.0482 66.7726 35.824 66.8235 35.5999C66.8744 35.3757 66.9271 35.1522 66.9797 34.9286C67.0324 34.705 67.0856 34.4815 67.1377 34.2579C67.1903 34.0343 67.2424 33.8108 67.2945 33.5866C67.3488 33.3538 67.4038 33.1217 67.4582 32.8889C67.5109 32.6653 67.5647 32.4418 67.6167 32.2182C67.6688 31.9946 67.7191 31.7705 67.7706 31.5469C67.8221 31.3233 67.8731 31.0992 67.9245 30.8756C67.9766 30.6521 68.0299 30.4285 68.0819 30.2049C68.1357 29.9721 68.1895 29.7394 68.2428 29.5066C68.2943 29.2825 68.3446 29.0589 68.3961 28.8348C68.447 28.6106 68.4979 28.3865 68.55 28.1629C68.6021 27.9393 68.6559 27.7158 68.708 27.4922C68.7624 27.2594 68.8167 27.0272 68.8711 26.7945C68.9232 26.5709 68.9747 26.3468 69.0268 26.1232C69.0788 25.8996 69.1321 25.6761 69.1841 25.4525C69.2362 25.2289 69.2889 25.0054 69.3404 24.7818C69.3919 24.5582 69.441 24.3335 69.4925 24.1099C69.5458 23.8772 69.6007 23.645 69.6545 23.4122C69.7066 23.1886 69.7627 22.9657 69.8102 22.7409C69.8571 22.5185 69.9305 22.3001 69.9444 22.0553C69.8883 22.0478 69.8455 22.0363 69.8027 22.038C69.3583 22.0536 68.9157 22.0484 68.4742 21.9754C67.5866 21.8283 66.798 21.4696 66.1014 20.9064C65.4725 20.3983 65.0044 19.7661 64.6538 19.0466C64.2239 18.1661 64.0057 17.2322 63.9658 16.2563C63.9565 16.027 63.9508 15.7971 63.9508 15.5678C63.9502 10.8993 63.9502 6.23133 63.9508 1.56282C63.9508 1.43581 63.9288 1.30592 63.9774 1.17891L63.9803 1.18063ZM73.1701 32.7981C73.1545 32.6923 73.1458 32.6021 73.1273 32.5136C73.0052 31.9291 72.8785 31.3457 72.7593 30.7607C72.5672 29.8158 72.3751 28.8704 72.1923 27.9238C72.0546 27.2117 71.9319 26.4962 71.8017 25.7824C71.7826 25.6784 71.7479 25.6353 71.7005 25.6479C71.6316 25.6669 71.6322 25.7266 71.6223 25.7789C71.5194 26.3301 71.4198 26.8813 71.314 27.4319C71.1178 28.4508 70.9211 29.4698 70.7186 30.4877C70.5768 31.1992 70.4235 31.9084 70.2777 32.6193C70.2655 32.6774 70.2696 32.7389 70.2655 32.7975C70.512 32.8308 72.8779 32.832 73.1701 32.7975V32.7981Z" fill="black"/>
<path d="M42.2548 41.0363C41.9857 41.0789 39.8129 41.076 39.5851 41.034C39.576 40.9869 39.5599 40.9351 39.557 40.8822C39.5519 40.7908 39.5553 40.6982 39.5553 40.6062C39.5553 34.0232 39.5553 27.4403 39.5547 20.8573C39.5547 20.7406 39.5714 20.621 39.5272 20.4893C39.296 20.464 39.0677 20.4801 38.8411 20.4772C38.6209 20.4744 38.4006 20.4767 38.1803 20.4767H36.8243C36.8071 20.4094 36.7853 20.3594 36.7824 20.3082C36.7761 20.2076 36.7796 20.1058 36.7796 20.0052C36.7796 14.8286 36.7796 9.65263 36.779 4.47607C36.779 4.34957 36.7945 4.22078 36.7572 4.09601C36.6545 4.04196 36.5518 4.05978 36.4532 4.05978C35.5078 4.05806 34.5625 4.05921 33.6172 4.05863C33.5088 4.05863 33.4004 4.05288 33.2822 4.05001C33.2707 3.99136 33.2547 3.94824 33.2541 3.90454C33.2524 3.03114 33.2529 2.15774 33.2535 1.28435C33.2535 1.2487 33.2627 1.21247 33.269 1.16245C33.3212 1.15095 33.3711 1.13428 33.4227 1.12968C33.4864 1.12393 33.5512 1.12738 33.6155 1.12738C36.6534 1.12738 39.6913 1.12738 42.7286 1.12853C42.845 1.12853 42.9661 1.10668 43.0733 1.159C43.1198 1.37749 43.1336 2.43488 43.1089 3.80967C43.1077 3.88096 43.0957 3.95226 43.09 4.01379C42.9701 4.08163 42.8576 4.05806 42.7498 4.05806C41.8045 4.05978 40.8591 4.05921 39.9138 4.05978C39.8146 4.05978 39.7148 4.06553 39.6029 4.06898C39.5897 4.13568 39.5754 4.18685 39.5708 4.2386C39.5656 4.30243 39.5691 4.3674 39.5691 4.4318C39.5691 9.65436 39.5691 14.8763 39.5702 20.0989C39.5702 20.2156 39.541 20.3381 39.6201 20.468C40.5184 20.4698 41.4259 20.468 42.3465 20.4692C42.3833 20.5342 42.4246 20.594 42.4521 20.6595C42.9322 21.8026 43.4095 22.9474 43.8902 24.0904C44.4311 25.3778 44.9755 26.6635 45.5164 27.9509C45.8221 28.6788 46.1296 29.4067 46.4273 30.1381C46.7869 31.023 47.1369 31.9119 47.4914 32.7985C47.5051 32.8325 47.5189 32.867 47.5321 32.9009C47.5499 32.9457 47.5803 32.9935 47.6284 32.971C47.6594 32.9567 47.6778 32.9015 47.6875 32.8606C47.6979 32.8169 47.6921 32.7692 47.6915 32.7232C47.6806 32.227 47.6692 31.7314 47.6583 31.2352C47.6566 31.1524 47.6571 31.0696 47.6571 30.9868C47.6571 27.6128 47.6571 24.2382 47.6571 20.8642C47.6571 20.7463 47.6611 20.6285 47.664 20.4962C47.7214 20.4853 47.7638 20.4703 47.8063 20.4703C48.6139 20.4686 49.4216 20.4686 50.2292 20.4698C50.2728 20.4698 50.3164 20.4813 50.3715 20.4893C50.3784 20.5439 50.3876 20.5876 50.3887 20.6313C50.4214 21.5398 50.4002 40.7672 50.3663 41.0133C50.2946 41.0921 50.1971 41.0662 50.1094 41.0662C49.522 41.0685 48.9346 41.0679 48.3472 41.0668C48.2566 41.0668 48.1665 41.0587 48.0719 41.0547C48.038 40.9869 48.0065 40.9322 47.9818 40.8742C47.2286 39.0687 46.4766 37.2621 45.7229 35.4573C45.0678 33.8893 44.4053 32.3242 43.7565 30.7539C43.3183 29.6931 42.8989 28.6242 42.4693 27.5593C42.4423 27.4926 42.4056 27.4294 42.3695 27.3673C42.3546 27.342 42.284 27.3546 42.276 27.3828C42.2662 27.4173 42.2553 27.4535 42.2553 27.4886C42.2594 27.9572 42.2645 28.4258 42.2714 28.8944C42.2731 29.0232 42.2852 29.1514 42.2852 29.2796C42.2857 33.0768 42.2857 36.874 42.2852 40.6712C42.2852 40.7885 42.303 40.9092 42.2548 41.0374V41.0363Z" fill="black"/>
<path d="M29.1261 35.7055C28.9432 36.604 28.7636 37.4922 28.5813 38.3804C28.3989 39.2675 28.232 40.1579 28.0404 41.0387C27.9816 41.0525 27.9467 41.0679 27.9118 41.0679C27.0245 41.0691 26.1378 41.0691 25.2505 41.0679C25.2157 41.0679 25.1808 41.0547 25.1442 41.0479C25.0985 40.9503 25.1356 40.8637 25.1556 40.7765C25.298 40.1511 25.4392 39.5251 25.5827 38.9002C25.7874 38.0063 25.9926 37.1129 26.1978 36.2196C26.4545 35.103 26.7124 33.987 26.9691 32.8705C27.1617 32.0305 27.3533 31.1905 27.5453 30.3505C27.8987 28.8048 28.2508 27.2584 28.6059 25.7133C28.9569 24.1853 29.3108 22.6585 29.6629 21.1312C29.6709 21.0973 29.6721 21.0612 29.6778 21.0187C29.584 21.0084 29.5366 21.0703 29.4828 21.1099C29.1067 21.3911 28.7048 21.624 28.268 21.7967C27.5682 22.0739 26.845 22.1875 26.0927 22.1335C25.6713 22.1031 25.2574 22.0429 24.8521 21.9224C24.0385 21.6808 23.333 21.2505 22.7145 20.675C22.1879 20.185 21.7552 19.6181 21.3853 19.0019C21.3527 18.948 21.3264 18.89 21.2915 18.8217C21.3281 18.7787 21.3584 18.7334 21.3978 18.6984C22.0502 18.1235 22.7036 17.5491 23.3576 16.9759C23.3845 16.9524 23.4171 16.9352 23.4571 16.9076C23.4971 16.9489 23.536 16.9845 23.5697 17.0253C23.827 17.3357 24.0757 17.653 24.3415 17.9553C24.6199 18.2726 24.9252 18.5653 25.2883 18.7856C25.9852 19.209 26.7055 19.2326 27.4333 18.8745C28.045 18.5733 28.4624 18.0821 28.6922 17.4464C29.0461 16.467 28.8991 15.5524 28.2771 14.7164C27.957 14.2855 27.5522 13.9424 27.14 13.6073C26.4723 13.064 25.7616 12.5785 25.0607 12.0799C24.4639 11.6553 23.8739 11.2221 23.3382 10.7195C22.3017 9.74699 21.6871 8.56502 21.5528 7.13805C21.5059 6.64289 21.4927 6.1506 21.5482 5.65601C21.6528 4.7265 21.9718 3.87732 22.4949 3.10388C22.9546 2.42453 23.5349 1.87486 24.2563 1.48355C24.951 1.10544 25.6925 0.910353 26.4877 0.898878C27.2698 0.887976 28.0136 1.03314 28.7259 1.3556C29.5737 1.73945 30.2415 2.3356 30.776 3.09011C30.8766 3.23183 30.9653 3.38215 31.0562 3.53076C31.0836 3.57609 31.1002 3.6283 31.1242 3.68224C31.0887 3.72355 31.0636 3.76142 31.0304 3.79011C30.385 4.34322 29.739 4.89461 29.1004 5.44027C28.9889 5.41101 28.9574 5.3301 28.9111 5.26527C28.6985 4.96461 28.4589 4.6892 28.1708 4.45797C27.7912 4.15388 27.3635 3.95019 26.8805 3.89166C26.0103 3.78724 25.3243 4.11715 24.8212 4.82748C24.5725 5.17863 24.4341 5.57453 24.4101 6.00658C24.3896 6.37437 24.4073 6.73928 24.509 7.09674C24.6331 7.53223 24.8829 7.89027 25.1928 8.20928C25.4678 8.49215 25.7719 8.74289 26.0909 8.97354C26.5809 9.32699 27.0765 9.6724 27.5694 10.0207C28.2645 10.5124 28.9534 11.0127 29.576 11.5962C30.126 12.1115 30.6251 12.6698 31.0087 13.325C31.6136 14.3589 31.8811 15.4744 31.8245 16.6695C31.7594 18.0494 31.258 19.2532 30.3673 20.2998C30.3221 20.3531 30.2523 20.3921 30.2592 20.4983C30.3415 20.5253 30.4319 20.5115 30.5193 20.5132C30.6017 20.5155 30.684 20.5132 30.7663 20.5132C30.8578 20.5132 30.9493 20.5132 31.0407 20.5132H32.1109C32.1933 20.5132 32.2756 20.5121 32.3579 20.5132C32.4483 20.5149 32.5386 20.5184 32.6409 20.5218C32.6889 20.7192 32.7358 20.9045 32.7787 21.091C33.0142 22.1186 33.2498 23.1462 33.4836 24.1744C33.7397 25.3002 33.993 26.4271 34.2503 27.5528C34.6219 29.1789 34.9958 30.8049 35.3674 32.431C35.6189 33.5303 35.8693 34.6297 36.1191 35.7296C36.4141 37.0252 36.7074 38.3219 37.0024 39.6175C37.0899 40.0019 37.1831 40.3852 37.2717 40.769C37.29 40.8482 37.2991 40.9291 37.3151 41.0238C37.2523 41.041 37.2037 41.0611 37.1528 41.0662C37.0802 41.0731 37.0064 41.0691 36.9333 41.0691C36.1832 41.0691 35.4331 41.0691 34.6836 41.0691C34.6196 41.0691 34.5555 41.0708 34.4915 41.0679C34.3183 41.0611 34.2971 41.0421 34.2565 40.8648C34.2503 40.8379 34.2474 40.8103 34.2417 40.7839C33.9524 39.3839 33.6625 37.9834 33.3738 36.5834C33.3258 36.3498 33.2801 36.1157 33.2303 35.8828C33.2172 35.8214 33.192 35.7629 33.1703 35.6986C33.1091 35.6906 33.056 35.6791 33.0022 35.6774C32.2036 35.6516 29.3982 35.6676 29.1267 35.7026L29.1261 35.7055ZM31.2105 25.6863C31.1088 25.6754 31.0836 25.723 31.0727 25.7798C31.0464 25.9147 31.0241 26.0501 30.9996 26.1855C30.8029 27.2573 30.616 28.3314 30.4073 29.4009C30.2078 30.4257 29.9859 31.4464 29.7744 32.4689C29.7504 32.5836 29.7132 32.6978 29.7481 32.8395C29.9837 32.8533 30.2198 32.8452 30.4559 32.8464C30.6937 32.8475 30.931 32.8464 31.1688 32.8464C31.4066 32.8464 31.6439 32.851 31.8817 32.8452C32.1155 32.8395 32.3511 32.8734 32.578 32.8234C32.5855 32.7913 32.5963 32.7724 32.5929 32.7563C32.1275 30.4492 31.641 28.1461 31.2465 25.8252C31.2391 25.781 31.2242 25.7385 31.2105 25.6857V25.6863Z" fill="black"/>
<path d="M55.0392 4.07129C54.9075 4.0201 54.8066 4.03563 54.7079 4.03563C53.7591 4.03448 52.8103 4.03563 51.8614 4.03448C51.7633 4.03448 51.6653 4.02758 51.5512 4.02355C51.5227 3.81648 51.5381 3.62494 51.5358 3.43455C51.533 3.24129 51.5353 3.04802 51.5353 2.85533V2.30372C51.5353 2.11046 51.5341 1.91719 51.5353 1.7245C51.5364 1.53411 51.5278 1.34257 51.5438 1.14988C51.6003 1.13781 51.635 1.124 51.6698 1.124C54.8539 1.124 58.038 1.12458 61.2215 1.12688C61.2466 1.12688 61.2717 1.14413 61.3128 1.15851C61.355 1.46394 61.3264 1.77512 61.3316 2.084C61.3367 2.40611 61.3327 2.72764 61.3327 3.04975C61.3327 3.37186 61.3327 3.67326 61.3327 3.96086C61.258 4.05346 61.1805 4.03506 61.1103 4.03506C60.6998 4.03678 60.2892 4.03621 59.8787 4.03621C59.2948 4.03621 58.7109 4.03621 58.127 4.03678C58.038 4.03678 57.9491 4.04541 57.8647 4.04944C57.8476 4.092 57.8287 4.11673 57.8287 4.14147C57.8259 9.52183 57.8242 14.9028 57.823 20.2831C57.823 20.3372 57.8344 20.3907 57.843 20.4643C57.9137 20.4494 57.9741 20.443 58.0306 20.4235C59.1699 20.0231 60.3086 20.0709 61.4411 20.4442C62.3049 20.7289 62.9692 21.2845 63.483 22.0323C63.8451 22.5592 64.088 23.1424 64.2767 23.7504C64.4102 24.1806 64.5008 24.6224 64.5841 25.0653C64.5938 25.1182 64.5926 25.1734 64.5972 25.2384C64.3748 25.3368 64.1427 25.3811 63.9175 25.4466C63.6809 25.5151 63.4425 25.5778 63.2047 25.6422C62.9761 25.7043 62.748 25.7705 62.5176 25.8269C62.2907 25.8826 62.0729 25.985 61.8134 25.9873C61.7866 25.8625 61.7609 25.7469 61.737 25.6319C61.656 25.2442 61.5579 24.8611 61.4011 24.4976C61.3145 24.2963 61.2124 24.099 61.0909 23.9166C60.8349 23.5324 60.4688 23.3075 60.0184 23.216C59.7555 23.1626 59.4915 23.1528 59.2292 23.1936C58.7958 23.2615 58.4491 23.4898 58.1646 23.8189C57.8487 24.1847 57.632 24.608 57.4638 25.0584C57.2089 25.7411 57.0584 26.4498 56.9529 27.1699C56.808 28.1541 56.747 29.1434 56.7276 30.1374C56.7105 31.0117 56.7288 31.8842 56.7989 32.7551C56.8793 33.7548 57.0196 34.7464 57.295 35.7139C57.4518 36.2637 57.656 36.7935 57.9622 37.279C58.1098 37.5136 58.2821 37.7282 58.4902 37.9094C59.0764 38.4201 59.735 38.526 60.454 38.243C60.706 38.1441 60.9056 37.9703 61.0744 37.7593C61.2882 37.4918 61.4536 37.195 61.5688 36.874C61.7022 36.503 61.818 36.1251 61.9366 35.7489C61.9856 35.5931 62.0164 35.4309 62.0774 35.279C62.1168 35.279 62.1458 35.2721 62.1698 35.2802C62.9555 35.5465 63.7413 35.8145 64.5265 36.0831C64.5596 36.0946 64.5881 36.1176 64.6234 36.1384C64.6211 36.189 64.6246 36.2356 64.6154 36.2787C64.4278 37.1714 64.1884 38.0474 63.7687 38.863C63.4459 39.49 63.032 40.0433 62.4766 40.4839C61.9645 40.89 61.3857 41.1454 60.7528 41.2846C60.6547 41.3059 60.5566 41.3272 60.4415 41.3519C60.4221 41.4255 60.3964 41.5026 60.3822 41.582C60.2442 42.332 60.109 43.0827 59.9722 43.8333C59.8929 44.267 59.8137 44.7007 59.7333 45.1344C59.7219 45.1971 59.7019 45.2586 59.6831 45.3323C59.6306 45.3409 59.5793 45.357 59.5274 45.357C58.7337 45.3587 57.9399 45.3587 57.1462 45.357C57.0943 45.357 57.0418 45.3432 56.9803 45.334C57.0025 45.0372 57.0835 44.764 57.1331 44.485C57.1832 44.2049 57.2431 43.9259 57.299 43.6464C57.3566 43.3582 57.4148 43.07 57.4729 42.7818C57.5294 42.5029 57.5904 42.2239 57.6417 41.9438C57.6925 41.666 57.7774 41.3939 57.8002 41.1063C57.6537 41.031 57.5225 40.9688 57.3959 40.8981C56.6347 40.4742 56.0531 39.8645 55.5941 39.1271C55.1345 38.3891 54.8054 37.5936 54.5677 36.7596C54.2723 35.7231 54.1001 34.6636 53.9912 33.5908C53.8817 32.5095 53.856 31.4258 53.8652 30.3404C53.8743 29.236 53.953 28.1357 54.1155 27.0428C54.2541 26.1144 54.4513 25.1987 54.7655 24.3129C54.8328 24.1226 54.9024 23.9327 54.9816 23.747C55.0261 23.6423 55.0489 23.5382 55.0449 23.426C55.0432 23.3708 55.0449 23.3156 55.0449 23.2603C55.0449 16.9965 55.0449 10.7332 55.0449 4.46933C55.0449 4.34164 55.0427 4.21337 55.0409 4.07244L55.0392 4.07129Z" fill="black"/>
<path d="M86.7402 37.9643C86.7634 37.9327 86.7797 37.8982 86.8056 37.8753C87.4822 37.27 88.1599 36.6654 88.8495 36.0504C88.894 36.0917 88.9369 36.1221 88.9673 36.1618C89.269 36.5511 89.5723 36.9387 89.9134 37.293C90.166 37.556 90.4344 37.8012 90.753 37.9809C91.4087 38.3513 92.0881 38.3749 92.75 38.0372C93.7186 37.5428 94.1815 36.7079 94.2024 35.6145C94.208 35.3119 94.1832 35.011 94.1037 34.7153C93.9786 34.2524 93.739 33.8602 93.4311 33.5048C93.0832 33.1034 92.6829 32.7606 92.264 32.4419C91.6579 31.9802 91.0388 31.5369 90.4259 31.0838C89.9298 30.7175 89.4376 30.3442 88.9916 29.9141C88.3212 29.267 87.7923 28.5222 87.4991 27.6206C87.3542 27.175 87.2618 26.7162 87.2268 26.2482C87.1789 25.6057 87.1749 24.9642 87.3103 24.3297C87.5967 22.9872 88.2563 21.8795 89.3321 21.0428C89.9145 20.5897 90.5737 20.3038 91.2959 20.17C92.4861 19.9495 93.611 20.143 94.6687 20.7316C95.3785 21.1267 95.9367 21.6946 96.3917 22.3704C96.4831 22.5065 96.562 22.6512 96.6449 22.7931C96.6579 22.8155 96.6612 22.8436 96.668 22.866C96.5124 23.0532 94.8243 24.5152 94.6219 24.6352C94.5379 24.5215 94.4527 24.4049 94.3665 24.2895C94.0964 23.9278 93.7779 23.6194 93.3877 23.3943C92.9524 23.1428 92.4839 23.0216 91.9849 23.0773C91.1927 23.1652 90.6385 23.605 90.2839 24.3182C90.0747 24.7391 90.0268 25.1905 90.0487 25.6568C90.082 26.3837 90.3774 26.9798 90.8917 27.4754C91.3517 27.9187 91.8592 28.3 92.3779 28.6657C93.0077 29.1096 93.6414 29.5483 94.2408 30.0359C94.8626 30.5423 95.4389 31.0942 95.9181 31.7453C96.5592 32.6159 96.9533 33.5875 97.0723 34.6716C97.1467 35.3504 97.1444 36.0268 97.0153 36.6998C96.8095 37.7708 96.3393 38.7068 95.6238 39.5164C95.0724 40.14 94.4138 40.6121 93.6527 40.9336C93.1058 41.165 92.5341 41.2839 91.9421 41.2948C91.204 41.3086 90.4885 41.1961 89.8001 40.9141C89.2244 40.6781 88.7136 40.341 88.2479 39.9276C87.6497 39.397 87.1868 38.7556 86.7774 38.0705C86.7594 38.0401 86.7532 38.0028 86.7402 37.9649V37.9643Z" fill="black"/>
<path d="M84.0855 21.8583C84.0144 21.8732 83.9791 21.887 83.9438 21.887C83.0932 21.887 82.2425 21.8865 81.3913 21.8842C81.3659 21.8842 81.3398 21.868 81.3057 21.8565C81.297 21.8041 81.2826 21.7512 81.2803 21.6977C81.2756 21.5964 81.278 21.4951 81.278 21.3943C81.278 15.7547 81.278 10.1145 81.2768 4.47485C81.2768 4.34765 81.2965 4.21756 81.2542 4.09726C81.1825 4.02244 81.0946 4.04489 81.0148 4.04489C80.4319 4.04316 79.8496 4.04373 79.2667 4.04373C78.8504 4.04373 78.4346 4.04431 78.0182 4.04373C77.928 4.04373 77.8378 4.03625 77.7655 4.0328C77.743 4.00459 77.736 3.99826 77.7314 3.9902C77.7268 3.98272 77.7221 3.97351 77.7221 3.96545C77.7187 3.0825 77.7152 2.19954 77.7129 1.31659C77.7129 1.27112 77.721 1.22564 77.7262 1.16809C77.7788 1.15427 77.8297 1.13528 77.8817 1.12952C77.9459 1.12261 78.0113 1.12664 78.076 1.12664C81.1467 1.12664 84.2173 1.12664 87.2874 1.12722C87.3961 1.12722 87.5083 1.10938 87.6216 1.15772C87.6292 1.19399 87.6419 1.2291 87.6419 1.26363C87.643 2.17364 87.643 3.08423 87.643 3.9856C87.554 4.07079 87.4568 4.04258 87.3684 4.04316C86.638 4.04546 85.9071 4.04431 85.1767 4.04431C84.8991 4.04431 84.6215 4.04316 84.3446 4.04546C84.2728 4.04546 84.2017 4.05697 84.1196 4.06388C84.1104 4.12029 84.0982 4.16403 84.0965 4.20778C84.093 4.30908 84.0942 4.41039 84.0942 4.51111C84.0942 10.16 84.0942 15.8094 84.0942 21.4582C84.0942 21.5854 84.089 21.7126 84.0861 21.8594L84.0855 21.8583Z" fill="black"/>
<path d="M83.9977 41.0365C83.9222 41.0446 83.8617 41.0562 83.8012 41.0574C82.8546 41.0824 81.6182 41.0696 81.3645 41.0313C81.3534 40.9866 81.3339 40.9361 81.33 40.8839C81.3234 40.8009 81.3273 40.7167 81.3273 40.6337C81.3273 36.2532 81.3273 31.8727 81.3284 27.4922C81.3284 27.3651 81.3073 27.2339 81.355 27.1097C81.3867 27.0981 81.4105 27.0807 81.4344 27.0807C82.2516 27.0784 83.0683 27.0778 83.8855 27.0778C83.9194 27.0778 83.9533 27.0906 84.0027 27.101C84.0121 27.1556 84.0255 27.2078 84.0282 27.2601C84.0327 27.3338 84.0299 27.4086 84.0299 27.4829C84.0299 31.8727 84.0299 36.2625 84.0293 40.6523C84.0293 40.7713 84.0454 40.8926 83.9977 41.0371V41.0365Z" fill="black"/>
<path d="M45.9174 1.16209C46.1253 1.12977 48.0299 1.11072 48.4464 1.13496C48.4892 1.13727 48.5315 1.1517 48.5776 1.16094C48.5865 1.20481 48.5993 1.23944 48.5993 1.27465C48.5993 5.77873 48.5982 10.2834 48.5966 14.7875C48.5966 14.8123 48.5793 14.8371 48.5693 14.8642C48.5426 14.8735 48.5176 14.8885 48.4931 14.8885C47.6746 14.8902 46.856 14.8908 46.0375 14.8908C46.0035 14.8908 45.9691 14.8792 45.924 14.8717C45.9135 14.8163 45.899 14.7644 45.8951 14.7119C45.8901 14.6385 45.8934 14.5641 45.8934 14.4902C45.8934 10.1703 45.8934 5.85088 45.8934 1.53094C45.8934 1.41261 45.8801 1.29254 45.9174 1.16209Z" fill="black"/>
<path d="M3.68297 14.866C3.61323 14.8792 3.5792 14.8908 3.54573 14.8908C2.72512 14.8908 1.90394 14.8908 1.08333 14.8885C1.05878 14.8885 1.03424 14.8729 1.0069 14.8631C0.997977 14.8354 0.982357 14.81 0.982357 14.7852C0.980683 10.2837 0.979568 5.78164 0.980126 1.27958C0.980126 1.24438 0.991283 1.20917 0.998535 1.16415C1.04484 1.15376 1.08668 1.13875 1.12963 1.13644C1.57704 1.10931 3.45424 1.13009 3.65675 1.16472C3.66567 1.21032 3.68185 1.26111 3.6852 1.31306C3.69022 1.3956 3.68743 1.47929 3.68743 1.56183C3.68743 5.86995 3.68743 10.1786 3.68743 14.4868C3.68743 14.6057 3.68464 14.724 3.68352 14.8654L3.68297 14.866Z" fill="black"/>
</svg>
