<svg width="106" height="55" viewBox="0 0 106 55" fill="none" xmlns="http://www.w3.org/2000/svg">
<path d="M45.0278 19.6437L41.4256 30.7202C41.4182 30.7399 41.4256 30.7595 41.4427 30.7718C41.4427 30.7718 41.4698 30.7964 41.4968 30.816C41.5262 30.8357 41.5557 30.8553 41.5557 30.8553C41.5729 30.8676 41.595 30.8676 41.6097 30.8553L51.0242 24.005L60.4363 30.8553C60.451 30.8676 60.4731 30.8676 60.4903 30.8553C60.4903 30.8553 60.5198 30.8381 60.5493 30.816C60.5787 30.7939 60.6033 30.7718 60.6033 30.7718C60.6205 30.7595 60.6278 30.7374 60.6205 30.7202L57.0182 19.6462L66.4376 12.8057C66.4548 12.7934 66.4622 12.7737 66.4548 12.7541C66.4548 12.7541 66.4475 12.7197 66.4352 12.6853C66.4254 12.6509 66.4106 12.6189 66.4106 12.6189C66.4057 12.5993 66.3861 12.587 66.3664 12.587L54.7272 12.5919L51.1397 1.5105C51.1347 1.49085 51.1151 1.47856 51.0955 1.47856C51.0955 1.47856 51.0611 1.4761 51.0242 1.4761C50.9899 1.4761 50.953 1.47856 50.953 1.47856C50.9334 1.47856 50.9137 1.4933 50.9088 1.5105L47.3188 12.5895L35.6796 12.5845C35.66 12.5845 35.6428 12.5968 35.6354 12.6165C35.6354 12.6165 35.6207 12.6484 35.6109 12.6828C35.601 12.7172 35.5937 12.7516 35.5937 12.7516C35.5863 12.7713 35.5937 12.7934 35.6109 12.8032L45.0278 19.6437Z" fill="black"/>
<path d="M60.6525 32.1822C60.4733 32.1822 60.3014 32.1306 60.1565 32.0372C60.1565 32.0372 59.7808 31.8038 59.2013 31.4106C57.5094 30.2681 53.362 27.4523 51.0244 25.7962C48.7849 27.3835 44.9518 29.988 42.8499 31.4106C42.2655 31.8062 41.8898 32.0397 41.8873 32.0421C41.7498 32.133 41.5804 32.1822 41.3987 32.1822C41.2341 32.1822 41.0696 32.1379 40.9444 32.0642C40.829 31.9954 40.7308 31.9217 40.7062 31.9045C40.662 31.8775 40.5932 31.8259 40.4827 31.7301C40.2814 31.5556 40.112 31.1944 40.2151 30.8185C40.2151 30.816 40.3182 30.4008 40.5147 29.7153C41.2169 27.2754 42.5061 22.8281 43.3263 20.199C41.1236 18.5577 37.4649 15.7149 35.4636 14.1546C34.9062 13.7197 34.5698 13.4347 34.5674 13.4322C34.2801 13.2037 34.1917 12.8106 34.2555 12.5428C34.285 12.4175 34.3194 12.3093 34.3316 12.2725C34.3439 12.2184 34.3734 12.1349 34.4299 11.9998C34.533 11.7541 34.8227 11.4813 35.2132 11.4641C35.2107 11.4641 35.6429 11.4322 36.355 11.4076C38.894 11.3216 43.5252 11.1742 46.268 11.1422C47.1471 8.54265 48.7186 4.17889 49.583 1.79061C49.8261 1.11737 49.9906 0.716872 49.993 0.714414C50.1207 0.372881 50.4669 0.166487 50.742 0.141916C50.8451 0.132088 50.9409 0.132088 50.99 0.132088H51.0317H51.0612C51.1128 0.132088 51.2085 0.134545 51.3117 0.141916C51.5768 0.16403 51.9255 0.355682 52.063 0.721786C52.1023 0.817612 52.2619 1.22303 52.4682 1.79061C53.335 4.1838 54.909 8.55248 55.7832 11.1422C58.5309 11.1742 63.1596 11.3216 65.6962 11.4076C66.4107 11.4322 66.8405 11.4641 66.8454 11.4641C67.2284 11.4813 67.5182 11.7541 67.6213 11.9998C67.668 12.1079 67.7023 12.2135 67.7171 12.2602C67.7465 12.3241 67.7687 12.415 67.7981 12.5403C67.8595 12.8008 67.7858 13.1914 67.4789 13.4347C67.42 13.4838 67.0958 13.7541 66.5875 14.1497C64.5838 15.7124 60.9251 18.5552 58.7249 20.1966C59.5451 22.8232 60.8342 27.2729 61.534 29.7128C61.7329 30.4057 61.8361 30.8234 61.8361 30.8259C61.9392 31.1944 61.7673 31.5532 61.566 31.7276C61.4727 31.8087 61.3843 31.8726 61.3499 31.8971C61.3008 31.9414 61.2222 31.993 61.1068 32.0618C60.9815 32.1404 60.817 32.1822 60.6525 32.1822Z" fill="black"/>
<path d="M45.0278 19.6437L41.4256 30.7202C41.4182 30.7399 41.4256 30.7595 41.4427 30.7718C41.4427 30.7718 41.4698 30.7964 41.4968 30.816C41.5262 30.8357 41.5557 30.8553 41.5557 30.8553C41.5729 30.8676 41.595 30.8676 41.6097 30.8553L51.0242 24.005L60.4363 30.8553C60.451 30.8676 60.4731 30.8676 60.4903 30.8553C60.4903 30.8553 60.5223 30.8381 60.5493 30.816C60.5787 30.7939 60.6033 30.7718 60.6033 30.7718C60.6205 30.7595 60.6278 30.7374 60.6205 30.7202L57.0182 19.6462L66.4376 12.8057C66.4548 12.7934 66.4622 12.7737 66.4548 12.7541C66.4548 12.7541 66.4475 12.7197 66.4352 12.6853C66.4254 12.6509 66.4106 12.6189 66.4106 12.6189C66.4057 12.5993 66.3861 12.587 66.3664 12.587L54.7272 12.5919L51.1397 1.5105C51.1347 1.49085 51.1151 1.47856 51.0955 1.47856C51.0955 1.47856 51.0611 1.4761 51.0242 1.4761C50.9899 1.4761 50.953 1.47856 50.953 1.47856C50.9309 1.47856 50.9137 1.4933 50.9088 1.5105L47.3188 12.5895L35.6796 12.5845C35.66 12.5845 35.6428 12.5968 35.6354 12.6165C35.6354 12.6165 35.6207 12.6484 35.6109 12.6828C35.601 12.7172 35.5937 12.7516 35.5937 12.7516C35.5863 12.7713 35.5937 12.7934 35.6109 12.8032L45.0278 19.6437Z" fill="black"/>
<path d="M72.7856 28.4695L72.7929 28.3663H72.1029C72.0759 28.9855 72.4516 29.4008 73.0778 29.4008C73.7604 29.4008 74.1729 28.9855 74.1729 28.3024C74.1729 27.9093 74.0158 27.5285 73.6033 27.4277V27.4154C73.9642 27.2705 74.0575 26.8945 74.0575 26.5456C74.0575 25.9535 73.7138 25.5775 73.1171 25.5775C72.4393 25.5775 72.2257 26.0714 72.2478 26.6709H72.8887V26.5948C72.8887 26.4326 72.9231 26.209 73.1342 26.209C73.3479 26.209 73.3872 26.4228 73.3872 26.5874C73.3872 27.0002 73.2202 27.0764 72.8199 27.0764V27.7177C73.2374 27.7029 73.3774 27.8184 73.3774 28.2336C73.3774 28.4523 73.3577 28.757 73.0581 28.757C72.8641 28.757 72.7856 28.5899 72.7856 28.4695Z" fill="black"/>
<path d="M71.3318 25.6316H69.3305V26.268H70.325L69.1709 29.3393H69.937L71.3318 25.6316Z" fill="black"/>
<path d="M67.5061 27.3417V27.3319C67.8499 27.2164 68.0144 26.8995 68.0144 26.5481C68.0144 26.0051 67.6485 25.5751 67.0887 25.5751C66.5214 25.5751 66.1605 26.0026 66.1605 26.5481C66.1605 26.9019 66.3373 27.2164 66.6639 27.3294V27.3417C66.2071 27.4965 66.0205 27.8454 66.0205 28.3221C66.0205 28.9315 66.4699 29.3983 67.0887 29.3983C67.7099 29.3983 68.147 28.9315 68.147 28.3221C68.147 27.8553 67.9727 27.4892 67.5061 27.3417ZM67.0739 26.1476C67.2728 26.1476 67.2998 26.4056 67.2998 26.5432C67.2998 26.6759 67.2998 26.9584 67.0739 26.9584C66.8898 26.9584 66.8677 26.6759 66.8677 26.5383C66.8677 26.4031 66.8971 26.1476 67.0739 26.1476ZM67.0813 28.757C66.8259 28.757 66.7744 28.4204 66.7744 28.2336C66.7744 28.042 66.8284 27.6955 67.0764 27.6955C67.3146 27.6955 67.403 28.0494 67.403 28.2336C67.403 28.413 67.3318 28.757 67.0813 28.757Z" fill="black"/>
<path d="M64.7361 25.6316H63.6729V26.268H64.0289V29.3393H64.7361V25.6316Z" fill="black"/>
<path d="M30.2945 25.6316H28.6738V29.3394H30.3018V28.6489H29.4743V27.8135H30.1938V27.1255H29.4743V26.3172H30.2945V25.6316Z" fill="black"/>
<path d="M38.0169 28.4646C37.7517 28.4646 37.5454 28.671 37.5454 28.9266C37.5454 29.187 37.7517 29.3983 38.0169 29.3983C38.2747 29.3983 38.4736 29.187 38.4736 28.9266C38.4736 28.6735 38.2747 28.4646 38.0169 28.4646Z" fill="black"/>
<path d="M37.0007 25.6316H34.9331V26.3172H35.5617V29.3394H36.3696V26.3172H37.0007V25.6316Z" fill="black"/>
<path d="M33.5356 26.467V25.752C33.3073 25.639 33.0789 25.5776 32.8162 25.5776C32.1262 25.5776 31.7554 26.0739 31.7554 26.666C31.7554 27.2017 32.0378 27.4793 32.5043 27.7644C32.7278 27.9192 32.9807 28.0223 32.9807 28.3049C32.9807 28.5531 32.7793 28.7103 32.5117 28.7103C32.2784 28.7103 32.0918 28.6342 31.9052 28.5113V29.2165C32.0918 29.3369 32.3693 29.4032 32.5976 29.4032C33.349 29.4032 33.7665 28.902 33.7665 28.2435C33.7665 27.2385 32.5411 27.2017 32.5411 26.5948C32.5411 26.3712 32.7008 26.2287 32.9438 26.2287C33.1722 26.2262 33.3662 26.3368 33.5356 26.467Z" fill="black"/>
<path d="M26.4538 50.4432C25.781 51.1189 24.9019 51.7921 24.04 52.0673C23.2273 52.3302 20.9068 52.5317 20.2241 50.6152C20.0768 50.1999 20.1971 50.0721 20.5728 49.9616C21.1327 49.7945 22.5741 49.3719 24.0965 48.7994C25.4765 48.2834 26.7092 47.6519 27.0947 47.3939C27.7847 46.9394 27.8879 46.3005 27.5858 45.615C26.6159 43.4356 24.4231 41.153 20.7791 41.8483C17.8816 42.4011 15.8066 45.0106 15.8066 47.9959C15.8066 51.6913 18.0314 53.8536 20.865 54.5244C23.4826 55.1485 26.5643 53.8781 27.8805 51.7429C28.4011 50.9149 26.9302 49.9395 26.4538 50.4432ZM19.8951 47.534C19.6103 46.7502 19.8386 44.3521 21.1597 43.8975C22.5495 43.4208 23.4016 44.1383 23.8166 45.5388C23.9713 46.0573 23.9369 46.6052 23.7675 46.8141C23.5219 47.1114 23.0824 47.2907 22.687 47.4234L21.6459 47.7699C20.6219 48.1163 20.1357 48.1876 19.8951 47.534Z" fill="black"/>
<path d="M60.3845 50.4432C59.7117 51.1189 58.8326 51.7921 57.9707 52.0673C57.1579 52.3302 54.8375 52.5317 54.1548 50.6152C54.0075 50.1999 54.1278 50.0721 54.5035 49.9616C55.0634 49.7945 56.5048 49.3719 58.0272 48.7994C59.4072 48.2834 60.6399 47.6519 61.0254 47.3939C61.7154 46.9394 61.8185 46.3005 61.5165 45.615C60.5466 43.4356 58.3538 41.153 54.7098 41.8483C51.8122 42.4011 49.7373 45.0106 49.7373 47.9959C49.7373 51.6913 51.9645 53.8536 54.7957 54.5244C57.4133 55.1485 60.4926 53.8781 61.8112 51.7429C62.3317 50.9149 60.8609 49.9395 60.3845 50.4432ZM53.8233 47.534C53.6539 47.0647 53.6662 46.0204 53.9854 45.158C54.2015 44.5781 54.5231 44.126 55.0855 43.9C55.7214 43.6444 56.2641 43.7157 56.6889 43.9589C57.1751 44.239 57.5214 44.7919 57.7424 45.5413C57.897 46.0597 57.8627 46.6077 57.6932 46.8165C57.4477 47.1138 57.0622 47.2662 56.6128 47.4259C56.1634 47.588 55.7607 47.7158 55.5717 47.7772C54.5452 48.0966 54.064 48.1876 53.8233 47.534Z" fill="black"/>
<path d="M86.2488 50.4432C85.5759 51.1189 84.6969 51.7921 83.835 52.0673C83.0222 52.3302 80.7017 52.5317 80.0191 50.6152C79.8717 50.1999 79.9921 50.0721 80.3678 49.9616C80.9276 49.7945 82.369 49.3719 83.8914 48.7994C85.2715 48.2834 86.5041 47.6519 86.8897 47.3939C87.5797 46.9394 87.6828 46.3005 87.3808 45.615C86.4108 43.4356 84.218 41.153 80.574 41.8483C77.6765 42.4011 75.6016 45.0106 75.6016 47.9959C75.6016 51.6913 77.8263 53.8536 80.66 54.5244C83.2776 55.1485 86.3593 53.8781 87.6754 51.7429C88.196 50.9149 86.7251 49.9395 86.2488 50.4432ZM79.6876 47.534C79.5181 47.0647 79.5304 46.0204 79.8521 45.158C80.0682 44.5781 80.3898 44.126 80.9522 43.9C81.5882 43.6444 82.1308 43.7157 82.5556 43.9589C83.0418 44.239 83.3881 44.7919 83.6091 45.5413C83.7638 46.0597 83.7294 46.6077 83.56 46.8165C83.3144 47.1138 82.9289 47.2662 82.4795 47.4259C82.0301 47.588 81.6299 47.7158 81.4384 47.7772C80.4095 48.0966 79.9282 48.1876 79.6876 47.534Z" fill="black"/>
<path d="M9.95051 51.1459C9.95051 51.6422 9.79581 52.1852 9.41275 52.3548L8.58769 52.7282C8.44036 52.797 8.39861 52.9051 8.39861 53.0698C8.39861 53.1115 8.40107 53.1361 8.41089 53.1926L8.50911 54.1312C8.55331 54.3867 8.72765 54.4285 9.06406 54.4285H15.0482C15.3871 54.4285 15.5614 54.3867 15.6032 54.1312L15.7014 53.1926C15.7087 53.1361 15.7136 53.1115 15.7136 53.0698C15.7136 52.9051 15.6719 52.797 15.5246 52.7282L14.6995 52.3548C14.3189 52.1852 14.1618 51.6422 14.1618 51.1459V40.7746C14.1618 40.2782 14.3165 39.7352 14.6995 39.5657L15.5246 39.1922C15.6719 39.1259 15.7136 39.0153 15.7136 38.8507C15.7136 38.8089 15.7112 38.7843 15.7014 38.7278L15.6032 38.0226C15.559 37.7671 15.3846 37.7253 15.0482 37.7253H9.34154C9.00267 37.7253 8.82833 37.7671 8.78659 38.0226L8.68836 38.7278C8.681 38.7843 8.67609 38.8089 8.67609 38.8507C8.67609 39.0153 8.71783 39.1234 8.86516 39.1922L9.53798 39.5657C9.9235 39.7868 9.94805 40.2807 9.94805 40.7746V43.6665C9.94805 43.868 9.78599 44.0302 9.58463 44.0302H6.34333C6.14197 44.0302 5.97991 43.868 5.97991 43.6665V40.7746C5.97991 40.2782 6.00446 39.7868 6.38998 39.5657L7.0628 39.1922C7.21013 39.1259 7.25188 39.0153 7.25188 38.8507C7.25188 38.8089 7.24942 38.7843 7.2396 38.7278L7.14138 38.0226C7.09718 37.7671 6.92283 37.7253 6.58643 37.7253H0.88713C0.548266 37.7253 0.373923 37.7671 0.332179 38.0226L0.233957 38.7278C0.226591 38.7843 0.22168 38.8089 0.22168 38.8507C0.22168 39.0153 0.263424 39.1234 0.410756 39.1922L1.23582 39.5657C1.61642 39.7352 1.77358 40.2807 1.77358 40.7746V51.1459C1.77358 51.6422 1.61888 52.1852 1.23582 52.3548L0.410756 52.7282C0.263424 52.797 0.22168 52.9051 0.22168 53.0698C0.22168 53.1115 0.224135 53.1361 0.233957 53.1926L0.332179 54.1312C0.376378 54.3867 0.550721 54.4285 0.88713 54.4285H6.87127C7.21013 54.4285 7.38448 54.3867 7.42622 54.1312L7.52444 53.1926C7.53181 53.1361 7.53672 53.1115 7.53672 53.0698C7.53672 52.9051 7.49497 52.797 7.34764 52.7282L6.52258 52.3548C6.14197 52.1852 5.98482 51.6422 5.98482 51.1459V46.9295C5.98482 46.728 6.14689 46.5659 6.34824 46.5659H9.58955C9.7909 46.5659 9.95296 46.728 9.95296 46.9295V51.1459H9.95051Z" fill="black"/>
<path d="M33.5361 39.4723C33.5361 40.6247 32.5686 41.5583 31.3752 41.5583C30.1818 41.5583 29.2168 40.6247 29.2168 39.4723C29.2168 38.3199 30.1843 37.3862 31.3752 37.3862C32.5686 37.3862 33.5361 38.3199 33.5361 39.4723Z" fill="black"/>
<path d="M29.0154 54.426C28.6912 54.426 28.5243 54.3867 28.4825 54.141L28.3892 53.2049C28.3818 53.1508 28.3818 53.1263 28.3818 53.0869C28.3818 52.9297 28.426 52.8339 28.5586 52.7601L29.202 52.4014C29.558 52.2294 29.7176 51.7159 29.7176 51.2417V45.3201C29.7176 44.8238 29.6317 44.1923 29.1971 43.9737L28.7845 43.7353C28.6372 43.669 28.5955 43.5584 28.5955 43.3962C28.5955 43.3545 28.5979 43.3299 28.6077 43.2734L28.706 42.5682C28.7502 42.3127 28.9245 42.2709 29.2609 42.2709H33.3027C33.5041 42.2709 33.6661 42.4331 33.6661 42.6345V51.2417C33.6661 51.7184 33.8258 52.2294 34.1818 52.4014L34.8252 52.7601C34.9602 52.8339 35.002 52.9297 35.002 53.0869C35.002 53.1263 35.0044 53.1533 34.9946 53.2049L34.9013 54.141C34.8595 54.3867 34.6926 54.426 34.3684 54.426H29.0154Z" fill="black"/>
<path d="M41.2489 42.9024C41.2489 42.9024 41.4772 42.7918 41.8848 42.5928C42.6952 42.2119 44.279 41.5313 45.5878 41.949C46.7223 42.3127 47.702 43.1358 47.702 45.298C47.702 47.7551 47.702 50.8879 47.702 51.851C47.702 52.1311 47.7143 52.2466 47.8444 52.3179C48.0188 52.4137 48.3208 52.1287 48.6106 51.9788C48.9028 51.8289 49.0648 52.0058 49.2441 52.2024C49.4012 52.3768 49.5879 52.6201 49.4356 52.942C48.9519 53.9567 47.869 54.5391 46.5995 54.5391C45.4012 54.5391 43.8763 53.8511 43.8763 52.055C43.8763 50.2588 43.8763 46.5487 43.8763 45.7452C43.8763 44.782 43.1765 44.4454 42.6338 44.5142C41.8136 44.6149 41.2169 45.3029 41.2169 46.5265V51.2417C41.2169 51.7183 41.3766 52.2294 41.7326 52.4014L42.376 52.7601C42.511 52.8339 42.5528 52.9297 42.5528 53.0869C42.5528 53.1263 42.5552 53.1533 42.5454 53.2049L42.4521 54.141C42.4103 54.3867 42.2434 54.426 41.9192 54.426H36.5637C36.2396 54.426 36.0726 54.3867 36.0309 54.141L35.9375 53.2049C35.9302 53.1508 35.9302 53.1263 35.9302 53.0869C35.9302 52.9297 35.9744 52.8339 36.107 52.7601L36.7503 52.4014C37.1064 52.2294 37.266 51.7159 37.266 51.2417V45.3201C37.266 44.8238 37.1825 44.1923 36.7479 43.9736L36.3353 43.7353C36.188 43.669 36.1463 43.5584 36.1463 43.3962C36.1463 43.3545 36.1487 43.3299 36.1585 43.2734L36.2568 42.5682C36.301 42.3127 36.4753 42.2709 36.8117 42.2709H40.6202C40.9198 42.2709 41.0352 42.4429 41.1212 42.6345L41.2489 42.9024Z" fill="black"/>
<path d="M93.5101 42.9024C93.5101 42.9024 93.7385 42.7918 94.1461 42.5928C94.9564 42.2119 96.5402 41.5313 97.849 41.949C98.9835 42.3127 99.9632 43.1358 99.9632 45.298C99.9632 47.7551 99.9632 50.8879 99.9632 51.851C99.9632 52.1311 99.9755 52.2466 100.106 52.3179C100.28 52.4137 100.582 52.1287 100.872 51.9788C101.164 51.8289 101.326 52.0058 101.505 52.2024C101.662 52.3768 101.849 52.6201 101.697 52.942C101.213 53.9567 100.13 54.5391 98.8607 54.5391C97.6624 54.5391 96.1375 53.8511 96.1375 52.055C96.1375 50.2588 96.1375 46.5487 96.1375 45.7452C96.1375 44.782 95.4377 44.4454 94.895 44.5142C94.0749 44.6149 93.4782 45.3029 93.4782 46.5265V51.2417C93.4782 51.7183 93.6378 52.2294 93.9938 52.4014L94.6372 52.7601C94.7722 52.8339 94.814 52.9297 94.814 53.0869C94.814 53.1263 94.8164 53.1533 94.8066 53.2049L94.7133 54.141C94.6716 54.3867 94.5046 54.426 94.1805 54.426H88.8249C88.5008 54.426 88.3338 54.3867 88.2921 54.141L88.1988 53.2049C88.1914 53.1508 88.1914 53.1263 88.1914 53.0869C88.1914 52.9297 88.2356 52.8339 88.3682 52.7601L89.0116 52.4014C89.3676 52.2294 89.5272 51.7159 89.5272 51.2417V45.3201C89.5272 44.8238 89.4437 44.1923 89.0066 43.9736L88.5941 43.7353C88.4468 43.669 88.405 43.5584 88.405 43.3962C88.405 43.3545 88.4075 43.3299 88.4173 43.2734L88.5155 42.5682C88.5597 42.3127 88.7341 42.2709 89.0705 42.2709H92.879C93.1786 42.2709 93.294 42.4429 93.38 42.6345L93.5101 42.9024Z" fill="black"/>
<path d="M74.1162 51.4063C74.4011 51.8633 74.7473 52.2294 75.1034 52.4039L75.7467 52.7626C75.8818 52.8363 75.9235 52.9322 75.9235 53.0894C75.9235 53.1287 75.9235 53.1558 75.9161 53.2074L75.8228 54.1435C75.7811 54.3892 75.6141 54.4285 75.29 54.4285H72.056C71.5036 54.4285 71.4618 54.2688 71.2113 53.8167L68.5004 48.878L67.4814 49.8559V51.2466C67.4814 51.7233 67.7048 52.2196 68.0756 52.4063L68.719 52.7651C68.854 52.8388 68.8958 52.9346 68.8958 53.0919C68.8958 53.1312 68.8982 53.1582 68.8884 53.2098L68.7951 54.146C68.7534 54.3917 68.5864 54.431 68.2622 54.431H62.9116C62.5875 54.431 62.4205 54.3917 62.3788 54.146L62.2855 53.2098C62.2781 53.1558 62.2781 53.1312 62.2781 53.0919C62.2781 52.9346 62.3223 52.8388 62.4549 52.7651L63.0983 52.4063C63.4543 52.2343 63.6139 51.7208 63.6139 51.2466V40.6443C63.6139 40.1701 63.4666 39.6738 63.0983 39.4846L62.4549 39.1259C62.3198 39.0521 62.2781 38.9563 62.2781 38.7991C62.2781 38.7598 62.2756 38.7352 62.2855 38.6811L62.3788 38.0128C62.4205 37.7671 62.5875 37.7278 62.9116 37.7278H66.7938C67.1744 37.7278 67.4838 38.0374 67.4838 38.4182V46.4676L69.2101 44.9074C69.4556 44.696 69.8583 44.3422 70.0155 44.185C70.1727 44.0277 70.2046 43.7943 69.9811 43.7009L69.3721 43.4257C69.2371 43.3643 69.1978 43.266 69.1978 43.1161C69.1978 43.0793 69.2003 43.0547 69.2076 43.0031L69.296 42.1481C69.3353 41.9146 69.4949 41.8778 69.8019 41.8778H74.4502C74.7571 41.8778 74.9167 41.9146 74.956 42.1481L75.0444 43.0031C75.0518 43.0547 75.0543 43.0793 75.0543 43.1161C75.0641 43.3004 74.8455 43.3913 74.7105 43.4528C74.7105 43.4528 74.379 43.5486 74.0794 43.7206C73.7798 43.8926 73.4582 44.1481 73.0554 44.5118L71.2629 46.2342L74.1162 51.4063Z" fill="black"/>
<path d="M99.1357 38.9981C99.1357 40.7746 100.575 42.2144 102.348 42.2144C104.12 42.2144 105.559 40.7746 105.559 38.9981C105.559 37.2241 104.12 35.7892 102.348 35.7892C100.572 35.7892 99.1357 37.2241 99.1357 38.9981ZM102.345 41.5265C100.948 41.5265 99.8184 40.3962 99.8184 38.9981C99.8184 37.605 100.948 36.4723 102.345 36.4723C103.737 36.4723 104.872 37.6025 104.872 38.9981C104.874 40.3962 103.74 41.5265 102.345 41.5265Z" fill="black"/>
<path d="M101.024 40.5609H101.817V39.2095C101.82 39.2095 101.866 39.2144 102.134 39.2267C102.532 39.2439 102.738 39.3151 102.856 39.6861C102.939 39.9441 102.979 40.1849 103.143 40.5609C103.494 40.5682 103.592 40.5682 103.956 40.5682C103.87 40.352 103.74 40.0916 103.683 39.7255C103.624 39.3446 103.494 39.1358 103.212 38.9441C103.47 38.8507 103.73 38.5313 103.73 38.0645C103.73 37.3298 102.964 37.1013 102.684 37.1013C102.401 37.1013 101.026 37.1013 101.026 37.1013V40.5609H101.024ZM102.46 38.519C102.19 38.519 101.82 38.519 101.82 38.519V37.7303C101.82 37.7303 102.134 37.7303 102.379 37.7303C102.622 37.7303 102.915 37.8335 102.915 38.1062C102.915 38.347 102.728 38.519 102.46 38.519Z" fill="black"/>
</svg>
