<svg width="147" height="30" viewBox="0 0 147 30" fill="none" xmlns="http://www.w3.org/2000/svg">
<path d="M15.266 29.158C14.506 29.4461 13.8071 29.7223 13.0984 29.9687C12.9619 30.0163 12.7746 29.9811 12.6294 29.9303C9.43908 28.8218 6.5726 27.2014 4.31277 24.6277C1.92178 21.9058 0.720893 18.7294 0.683113 15.1087C0.652348 12.1171 0.832077 9.13523 1.09168 6.15663C1.17318 5.22429 1.2509 4.29142 1.32377 3.35855C1.39501 2.44621 1.78847 1.98464 2.67794 1.79763C6.61901 0.967446 10.6011 0.585865 14.6264 0.735038C17.4875 0.840973 20.3216 1.19553 23.1244 1.7879C24.1007 1.99436 24.4672 2.42081 24.5293 3.41313C24.7425 6.82683 24.9627 10.24 25.1624 13.6542C25.375 17.2987 24.5498 20.6573 22.3569 23.6256C21.0664 25.3724 19.4542 26.762 17.61 27.8916C17.5064 27.9554 17.3892 27.9976 17.2365 28.0695C15.0797 23.8191 12.9333 19.5893 10.783 15.3524C10.9973 15.0708 11.2855 14.9649 11.5651 14.8541C12.6337 14.4304 13.7099 14.4687 14.7824 14.8341C15.3944 15.0422 15.9989 15.2719 16.6077 15.4897C17.7401 15.8956 18.8605 15.8583 19.9767 15.4135C20.8829 15.0525 21.7405 14.6071 22.5323 14.0347C22.6985 13.9142 22.828 13.8007 22.8151 13.5596C22.7012 11.4761 22.597 9.39196 22.4864 7.22733C22.2608 7.32678 22.0827 7.39217 21.9159 7.48027C19.614 8.6915 17.2511 8.79743 14.8293 7.88131C14.1072 7.60783 13.3866 7.32948 12.6612 7.06518C10.8467 6.40525 9.06343 6.52686 7.3077 7.29381C7.14794 7.36353 6.98279 7.42244 6.74585 7.5154C6.74585 7.10085 6.74909 6.74738 6.74477 6.3939C6.74207 6.15122 6.6773 5.93395 6.47221 5.77559C5.5903 5.0962 4.71 4.41465 3.8065 3.71635C3.59439 3.89849 3.4994 4.09739 3.49832 4.33844C3.49616 5.27456 3.49616 6.21068 3.50102 7.1468C3.50264 7.45433 3.62839 7.71755 3.88908 7.87915C4.57723 8.30667 4.97879 8.9612 5.33285 9.6568C6.41068 11.7723 7.48689 13.8888 8.56634 16.0037C10.6761 20.1379 12.787 24.2709 14.8968 28.4046C15.0107 28.6283 15.1175 28.8553 15.2649 29.158H15.266ZM11.4183 26.7512C11.4528 26.7253 11.4873 26.6993 11.5213 26.6734C8.80544 21.228 6.09008 15.7826 3.37418 10.3367C3.33154 10.3427 3.28945 10.3486 3.24681 10.354C3.22252 10.5 3.18312 10.6453 3.17664 10.7918C3.1394 11.655 3.1 12.5187 3.07949 13.3824C3.05143 14.5525 3.03847 15.7216 3.22306 16.8847C3.65322 19.5941 4.87948 21.882 6.84138 23.7845C8.17342 25.0763 9.69383 26.0718 11.4177 26.7512H11.4183ZM14.0942 16.9782C15.4376 19.5979 16.7189 22.0977 18.0013 24.599C20.2498 23.2916 22.7541 18.8266 22.6526 16.3345C22.0363 16.6761 21.4285 17.0176 20.817 17.3517C19.4909 18.0759 18.0876 18.2062 16.6428 17.8295C15.9854 17.6581 15.3501 17.403 14.7046 17.1857C14.5433 17.1317 14.3824 17.0766 14.0942 16.9787V16.9782ZM6.63035 3.56717C6.61254 3.60501 6.59472 3.64338 6.57691 3.68121C6.96066 3.93416 7.37193 4.15468 7.72167 4.4487C8.20742 4.85677 8.71369 4.9119 9.31332 4.77894C10.3107 4.55788 11.3179 4.6022 12.2964 4.89568C12.9996 5.10647 13.6905 5.36266 14.377 5.62371C16.034 6.25392 17.7244 6.57821 19.4931 6.22203C20.484 6.02259 21.4145 5.66641 22.2889 5.10269C22.2511 4.75083 22.2155 4.41573 22.1766 4.05145C16.9969 3.02182 11.8295 2.78834 6.62981 3.56717H6.63035Z" fill="black"/>
<path d="M107.852 18.4318V5.30953C107.996 5.2915 108.134 5.25818 108.27 5.25927C109.702 5.27129 111.133 5.28003 112.565 5.30843C113.071 5.31827 113.579 5.35869 114.083 5.41987C116.018 5.65584 117.185 7.52453 116.616 9.45329C116.324 10.4453 115.724 11.1423 114.731 11.4733C114.629 11.5072 114.529 11.5476 114.429 11.588C114.414 11.594 114.405 11.6142 114.355 11.6727C114.467 11.7175 114.565 11.7699 114.669 11.7961C116.342 12.2156 117.137 13.3201 116.931 15.3439C116.747 17.1591 115.58 18.2696 113.673 18.375C111.793 18.4793 109.906 18.4602 108.022 18.493C107.989 18.4935 107.956 18.4701 107.852 18.4318H107.852ZM110.301 16.7882C111.326 16.7505 112.315 16.7144 113.286 16.4888C113.716 16.3894 114.007 16.0874 114.19 15.6859C114.457 15.0992 114.473 14.4896 114.321 13.8756C114.178 13.301 113.804 12.9192 113.242 12.7542C112.915 12.6581 112.571 12.6013 112.231 12.5712C111.588 12.5139 110.946 12.5466 110.301 12.6116V16.7882ZM110.3 10.9014C111.266 10.8746 112.207 10.9331 113.114 10.6343C113.879 10.3819 114.283 9.79579 114.272 8.98189C114.269 8.69511 114.23 8.3996 114.152 8.1243C113.991 7.55348 113.635 7.17056 113.01 7.12195C112.253 7.06295 111.494 7.01161 110.736 6.96081C110.599 6.95152 110.459 6.95971 110.301 6.95971V10.9019L110.3 10.9014Z" fill="black"/>
<path d="M75.5253 18.2118H73.56C73.4934 17.9304 73.4257 17.6473 73.3455 17.3088C73.1511 17.4567 72.999 17.5747 72.8452 17.6895C72.0686 18.2673 71.2064 18.5952 70.2235 18.4644C68.9937 18.3004 68.157 17.5966 67.6463 16.5067C67.2315 15.6213 67.0744 14.6745 67.0658 13.7074C67.0571 12.7761 67.2093 11.864 67.5537 10.9941C68.001 9.862 68.7733 9.07219 70.0286 8.84417C70.9281 8.68076 71.7399 8.93709 72.4948 9.40755C72.7038 9.53785 72.9053 9.67883 73.1842 9.86413V4.98648C73.971 4.78302 74.7325 4.71787 75.5264 4.6084V18.2118H75.5253ZM73.1695 11.2958C72.6275 11.1255 72.0924 10.9108 71.5357 10.7949C70.8875 10.6598 70.295 10.9743 70.0302 11.574C69.4166 12.9635 69.4069 14.3701 70.0307 15.7612C70.2847 16.3283 70.7781 16.5649 71.3917 16.5318C71.9072 16.504 72.3708 16.3235 72.7829 16.0058C73.0726 15.7826 73.2118 15.5273 73.2031 15.1444C73.1777 14.0428 73.195 12.9406 73.1934 11.8384C73.1934 11.6814 73.1804 11.5244 73.1701 11.2958H73.1695Z" fill="black"/>
<path d="M101.126 18.2426H99.2192C99.1539 17.9523 99.0891 17.6642 99.0058 17.2971C98.826 17.4422 98.6821 17.5564 98.5403 17.6738C97.9821 18.1364 97.347 18.4368 96.6275 18.4843C95.3361 18.5696 94.342 18.0275 93.6747 16.9103C93.2414 16.1846 93.0311 15.3725 92.9346 14.5386C92.7865 13.2628 92.9525 12.0239 93.4396 10.8314C94.1833 9.01084 96.0477 8.298 97.7866 9.18958C98.1255 9.36352 98.437 9.59242 98.8318 9.84053C98.8729 9.26588 98.8482 8.74299 98.8524 8.2217C98.8571 7.68867 98.8534 7.1551 98.8534 6.62207V4.96322C99.614 4.84423 100.35 4.72952 101.126 4.6084V18.2426H101.126ZM98.8724 13.5275C98.8724 12.9427 98.8724 12.3579 98.8724 11.7731C98.8724 11.5954 98.8851 11.4092 98.6821 11.3201C98.2995 11.152 97.9294 10.9258 97.5294 10.8314C96.6248 10.6179 95.9417 11.0138 95.6318 11.9044C95.5053 12.2677 95.4347 12.6583 95.3883 13.0425C95.2865 13.8796 95.3646 14.7072 95.6492 15.5032C95.9064 16.223 96.385 16.5346 97.1351 16.5218C97.7107 16.5122 98.1756 16.2604 98.5931 15.8815C98.7902 15.7028 98.8819 15.499 98.8766 15.229C98.8656 14.6624 98.8735 14.0946 98.8724 13.5275Z" fill="black"/>
<path d="M31.0533 17.4624C31.3211 16.9283 31.5785 16.4156 31.8584 15.8574C32.0753 15.9411 32.2568 16.0099 32.4382 16.0805C33.3291 16.4281 34.2434 16.6441 35.208 16.5632C35.7797 16.515 36.3196 16.3718 36.7749 16.0012C37.7581 15.2009 37.6608 13.8982 36.5454 13.2958C36.0529 13.0302 35.5097 12.8574 34.9889 12.6437C34.3341 12.3747 33.6608 12.1424 33.0268 11.8314C31.6037 11.1333 31.1085 9.89952 31.22 8.39842C31.3282 6.9416 32.0185 5.85049 33.41 5.27378C34.7566 4.7162 36.1464 4.73971 37.5411 5.01303C38.1964 5.14149 38.8364 5.35141 39.5392 5.54C39.3589 6.09977 39.1944 6.60979 39.0113 7.17776C38.6615 7.12637 38.3265 7.08155 37.9931 7.02743C37.4728 6.9427 36.9547 6.84485 36.4333 6.76449C35.7458 6.65899 35.0889 6.7634 34.4839 7.1127C33.8264 7.49208 33.5203 8.2787 33.7395 8.99864C33.8712 9.43213 34.1866 9.70054 34.5932 9.85906C35.3889 10.1696 36.1912 10.462 36.987 10.7725C37.3755 10.9245 37.7707 11.071 38.1363 11.2689C39.4343 11.9708 40.0612 13.0684 39.93 14.5455C39.8857 15.0468 39.771 15.5557 39.5988 16.0285C39.1741 17.1956 38.2893 17.8822 37.1121 18.1976C35.1954 18.7115 33.3291 18.5546 31.5228 17.7292C31.3763 17.6625 31.2419 17.5701 31.0522 17.4618L31.0533 17.4624Z" fill="black"/>
<path d="M140.566 18.4509H138.224V4.96384C138.956 4.85096 139.697 4.73646 140.525 4.6084V13.0792C140.567 13.0944 140.61 13.109 140.653 13.1242C140.778 12.9826 140.908 12.8448 141.027 12.6982C141.863 11.6732 142.711 10.6573 143.523 9.61327C143.797 9.26055 144.089 9.11729 144.534 9.14496C145.125 9.18186 145.722 9.15419 146.463 9.15419C145.193 10.6937 144.012 12.1247 142.797 13.5974C144.079 15.1906 145.356 16.7784 146.685 18.4308C146.456 18.4552 146.319 18.4813 146.181 18.4824C145.599 18.4872 145.016 18.4655 144.435 18.4916C144.088 18.5073 143.866 18.3923 143.657 18.1161C142.793 16.9754 141.905 15.8521 141.025 14.7234C140.917 14.585 140.8 14.4532 140.611 14.2274C140.535 14.7728 140.573 15.2151 140.567 15.6535C140.56 16.1235 140.565 16.5934 140.565 17.0633V18.4498L140.566 18.4509Z" fill="black"/>
<path d="M57.1651 8.99113H59.0502C59.1225 9.35084 59.1899 9.68719 59.2741 10.1069C59.5367 9.92681 59.7541 9.77726 59.972 9.62826C60.6527 9.16292 61.3685 8.7732 62.2029 8.73651C62.6118 8.71872 63.0341 8.73706 63.4322 8.82601C64.3621 9.03339 64.9344 9.72833 65.0234 10.7496C65.0859 11.4674 65.1075 12.1912 65.1107 12.9123C65.1183 14.6341 65.1048 16.3553 65.0973 18.0771C65.0967 18.2028 65.0735 18.3279 65.0568 18.493H62.7493C62.7493 18.2723 62.7493 18.0738 62.7493 17.8753C62.7493 16.1535 62.7553 14.4317 62.745 12.7099C62.7429 12.3419 62.7137 11.9677 62.6409 11.6086C62.4991 10.9114 62.0363 10.5912 61.3723 10.7758C60.7175 10.9581 60.0842 11.2239 59.4175 11.4612V18.4758H57.1958C57.0723 18.091 57.0405 9.64105 57.1651 8.99058V8.99113Z" fill="black"/>
<path d="M130.194 11.5873V18.3698C129.782 18.5146 128.402 18.5362 127.811 18.4108V8.98875H129.838C129.903 9.33271 129.967 9.67167 130.048 10.0938C130.269 9.95016 130.463 9.82756 130.653 9.69996C131.38 9.21454 132.137 8.79181 133.03 8.74078C133.429 8.71803 133.844 8.72913 134.234 8.80901C135.219 9.0115 135.811 9.70551 135.937 10.8006C136.01 11.4408 136.041 12.0893 136.046 12.734C136.061 14.4515 136.052 16.169 136.05 17.8871C136.05 18.0669 136.027 18.2472 136.011 18.4647H133.61V17.8666C133.61 16.0936 133.616 14.3206 133.605 12.5476C133.603 12.218 133.571 11.8802 133.492 11.5617C133.337 10.9371 132.894 10.6536 132.254 10.7285C131.501 10.8161 130.871 11.1989 130.194 11.5884V11.5873Z" fill="black"/>
<path d="M84.3703 18.251H82.4978C82.4216 17.9603 82.3464 17.6749 82.2606 17.3458C82.0715 17.4874 81.9169 17.6031 81.7624 17.7182C81.254 18.0959 80.702 18.3607 80.0695 18.4548C78.498 18.6882 77.3358 17.8392 77.0934 16.252C77.0054 15.6765 77.0326 15.1004 77.2127 14.5432C77.4563 13.7882 77.9321 13.25 78.7192 13.0954C79.8318 12.8771 80.953 12.703 82.1146 12.5025C82.2276 12.0864 82.193 11.6265 82.0645 11.178C81.9526 10.7862 81.6596 10.5884 81.2615 10.5981C80.7297 10.6116 80.1979 10.6419 79.6677 10.6856C79.211 10.7235 78.757 10.7905 78.2593 10.8494C78.1266 10.4365 77.9966 10.0312 77.8559 9.59236C77.9694 9.52913 78.0675 9.45779 78.1767 9.41618C79.4316 8.93088 80.7089 8.62716 82.0747 8.76281C83.7303 8.92763 84.3421 9.68855 84.3948 11.392C84.4396 12.8311 84.4129 14.2724 84.4161 15.7127C84.4177 16.4331 84.4177 17.1529 84.414 17.8733C84.414 17.9781 84.3905 18.083 84.3708 18.251H84.3703ZM82.1178 13.6931C81.7486 13.7682 81.4539 13.8217 81.1624 13.8904C80.8698 13.959 80.5762 14.0298 80.2906 14.1227C79.4449 14.3978 79.1007 15.1241 79.3847 15.9921C79.5126 16.3828 79.7567 16.6303 80.1585 16.7227C80.8608 16.8838 81.4475 16.6357 81.9718 16.192C82.0528 16.1234 82.1098 15.9786 82.112 15.8672C82.1242 15.1701 82.1184 14.4724 82.1184 13.6931H82.1178Z" fill="black"/>
<path d="M126.028 18.2397H124.012C123.932 17.9683 123.857 17.7138 123.761 17.3857C123.43 17.5889 123.138 17.7684 122.845 17.9483C122.099 18.4067 121.293 18.584 120.411 18.4488C119.312 18.2807 118.484 17.5646 118.328 16.5225C118.243 15.9599 118.248 15.3707 118.319 14.8054C118.411 14.0762 118.9 13.5725 119.576 13.2396C120.294 12.8855 121.073 12.7526 121.868 12.6883C122.448 12.6412 123.029 12.5996 123.685 12.5499C123.64 12.1164 123.628 11.7067 123.55 11.3084C123.444 10.7663 123.181 10.5711 122.596 10.6057C121.672 10.6598 120.751 10.7473 119.829 10.8214C119.736 10.829 119.643 10.8392 119.484 10.8549C119.349 10.4366 119.214 10.0171 119.058 9.53501C119.539 9.37665 119.974 9.2172 120.419 9.08911C121.535 8.76751 122.669 8.64428 123.834 8.79292C125.095 8.95398 125.754 9.50853 125.923 10.6987C126.024 11.4094 126.056 12.1332 126.064 12.8515C126.084 14.454 126.072 16.0571 126.069 17.6603C126.069 17.8375 126.045 18.0143 126.03 18.2402L126.028 18.2397ZM123.638 13.6455C122.841 13.8465 122.103 13.9968 121.391 14.2233C120.808 14.4086 120.516 14.9989 120.597 15.6312C120.681 16.2809 121.011 16.6587 121.631 16.7517C122.354 16.8603 122.968 16.6095 123.495 16.1512C123.569 16.0863 123.63 15.9674 123.632 15.8728C123.643 15.1556 123.638 14.4384 123.638 13.6455Z" fill="black"/>
<path d="M52.7905 12.5634C52.7905 12.1939 52.818 11.8877 52.785 11.5879C52.7131 10.9359 52.3407 10.5572 51.6719 10.5507C51.0546 10.5448 50.4352 10.6339 49.8185 10.6982C49.4929 10.7322 49.1711 10.8019 48.7844 10.8662C48.645 10.4449 48.5077 10.03 48.3627 9.59195C49.1117 9.21545 49.8641 9.00964 50.6323 8.8638C51.5763 8.685 52.5214 8.67366 53.4621 8.90485C54.3336 9.1193 54.8547 9.65731 55.0129 10.5264C55.0546 10.7555 55.0881 10.9894 55.0898 11.2216C55.109 13.4169 55.1211 15.6116 55.1332 17.8068C55.1337 17.9311 55.1183 18.0553 55.1068 18.2341C54.4665 18.3065 53.8361 18.2606 53.1727 18.2644C53.0837 17.9651 52.9997 17.6815 52.9036 17.3585C52.6757 17.5227 52.4896 17.6621 52.2985 17.7944C51.5049 18.3449 50.6428 18.6074 49.6614 18.4459C48.6049 18.2725 47.9547 17.6632 47.6779 16.6736C47.5225 16.1172 47.5011 15.5419 47.6005 14.9612C47.74 14.1499 48.1886 13.5854 48.9245 13.2219C49.5901 12.8924 50.3072 12.7676 51.0393 12.7028C51.6005 12.6531 52.1628 12.6126 52.7905 12.5629V12.5634ZM52.7559 16.2204V13.7107C52.3622 13.7891 52.0047 13.8496 51.6527 13.9333C51.316 14.0132 50.9761 14.0948 50.6538 14.2169C49.9668 14.4778 49.6823 15.1924 49.9283 15.9724C50.1376 16.6352 50.701 16.9307 51.45 16.7179C51.9003 16.5898 52.3281 16.3862 52.7554 16.2204H52.7559Z" fill="black"/>
<path d="M46.5719 10.4772H43.9876C43.9681 10.6772 43.9375 10.8496 43.9369 11.022C43.933 12.4983 43.9347 13.975 43.9347 15.4513C43.9347 15.4691 43.9347 15.4875 43.9347 15.5053C43.9603 16.4907 44.3091 16.7897 45.3239 16.6794C45.7279 16.6356 46.129 16.5675 46.6047 16.5005C46.7644 16.9075 46.9257 17.3189 47.1065 17.7794C45.626 18.4373 44.1589 18.8054 42.6005 18.1448C41.87 17.8351 41.5969 17.2151 41.534 16.4967C41.4934 16.0313 41.5023 15.5615 41.5006 15.0934C41.4967 13.761 41.4995 12.4285 41.4995 11.0966V10.5063H39.9473V9.1874C40.4346 9.07659 40.9337 8.96362 41.4589 8.84416C41.578 7.99712 41.6953 7.16305 41.8205 6.27007C42.5054 6.15277 43.1853 6.03601 43.9202 5.91006V8.84686H46.7955C46.7171 9.41768 46.6475 9.91931 46.5707 10.4777L46.5719 10.4772Z" fill="black"/>
<path d="M92.3801 10.8128C91.903 10.9113 91.4547 10.9758 91.0232 11.1016C90.6974 11.1962 90.383 11.3498 90.0805 11.5106C89.4647 11.8383 89.1335 12.284 89.1709 13.087C89.2446 14.6774 89.1925 16.2733 89.1925 17.867V18.493H86.932C86.8084 18.0951 86.7558 10.2157 86.8735 8.93918C87.5191 8.89411 88.1734 8.91915 88.8483 8.92917C88.9204 9.41328 88.9849 9.84621 89.0549 10.3131C89.5818 9.92021 90.0523 9.52958 90.5608 9.20239C91.0877 8.86295 91.6802 8.70436 92.3053 8.73385C92.4614 9.08108 92.4945 10.0376 92.3806 10.8133L92.3801 10.8128Z" fill="black"/>
</svg>
