<svg width="60" height="73" viewBox="0 0 60 73" fill="none" xmlns="http://www.w3.org/2000/svg">
<path d="M0.043457 28.332C0.043457 25.7106 0.043457 23.0883 0.043457 20.467C0.132833 19.7957 0.202545 19.1201 0.316946 18.4533C0.461734 17.6114 0.644954 16.7766 0.821918 15.8847C1.00156 16.008 1.10077 16.0724 1.19551 16.1421C4.64898 18.7054 7.36689 21.8961 9.33851 25.7187C10.3306 27.6438 11.067 29.6646 11.58 31.7694C11.6149 31.9124 11.7516 32.1385 11.8464 32.1412C12.8081 32.1689 13.7715 32.1582 14.7761 32.1582C14.7761 31.9383 14.7761 31.7774 14.7761 31.6166C14.7761 29.7102 14.7734 27.8038 14.7761 25.8965C14.7806 23.1295 16.6396 21.2704 19.4004 21.2704C26.0285 21.2704 32.6575 21.2704 39.2856 21.2704C44.3648 21.2704 49.444 21.2642 54.5232 21.274C56.2964 21.2776 57.6487 22.0561 58.4977 23.6174C58.7471 24.0768 58.857 24.6131 59.0313 25.1136V44.955C59.0072 44.9898 58.9696 45.022 58.9607 45.0604C58.4298 47.4628 56.7889 48.7829 54.3257 48.7829C43.4987 48.7829 32.6727 48.7892 21.8457 48.7793C18.3056 48.7758 14.92 48.0286 11.799 46.3403C5.347 42.8511 1.48598 37.4787 0.297283 30.2187C0.194502 29.5931 0.12747 28.9612 0.043457 28.332Z" fill="black"/>
<path d="M59.0315 10.9932C58.8384 10.9985 58.6445 11.0075 58.4514 11.0075C40.1312 11.0075 21.811 11.0075 3.49083 11.0075C3.32816 11.0075 3.1655 11.0075 2.94385 11.0075C3.00373 10.868 3.03412 10.7617 3.09042 10.6705C6.56981 5.04879 11.5346 1.57387 18.0492 0.362834C18.8804 0.208214 19.7321 0.168889 20.5741 0.0723637C20.6733 0.0607448 20.7698 0.0241009 20.8672 -3.05176e-05C32.2483 -3.05176e-05 43.6294 -3.05176e-05 55.0096 -3.05176e-05C55.1052 0.0285697 55.199 0.0670011 55.2965 0.08577C57.1367 0.440591 58.3343 1.50595 58.8661 3.30955C58.9188 3.4883 58.976 3.66526 59.0315 3.84312V10.9932Z" fill="black"/>
<path d="M40.5307 72.7516C40.5155 72.5899 40.4878 72.4281 40.4878 72.2663C40.4851 67.8449 40.486 63.4226 40.486 59.0012V58.5293H43.8385V69.3339H48.0337V58.5284H51.3773V69.3473C52.574 69.3473 53.7162 69.3804 54.8549 69.3303C55.2785 69.3116 55.561 68.9639 55.6387 68.5242C55.6745 68.3204 55.678 68.1095 55.678 67.9021C55.6807 64.9688 55.6798 62.0364 55.6798 59.1031C55.6798 58.9261 55.6798 58.7492 55.6798 58.5409H59.0323V68.9085C58.9965 69.0157 58.9519 69.1212 58.9259 69.2311C58.547 70.8122 57.6014 71.8999 56.0784 72.4692C55.7352 72.5979 55.367 72.6596 55.0104 72.7516H40.5316H40.5307Z" fill="black"/>
<path d="M21.4937 72.7517C21.491 69.3572 21.4562 65.9618 21.5 62.5682C21.5241 60.6619 23.1722 58.5303 25.8472 58.507C28.5115 58.4838 31.1784 58.4641 33.8409 58.5454C36.0574 58.6134 37.8459 60.5787 37.8485 62.7917C37.8521 66.112 37.8494 69.4323 37.8494 72.7526H34.5425V68.3249H24.8006V72.7526H21.4937V72.7517ZM34.5184 64.9421C34.5184 64.1976 34.5488 63.4995 34.5086 62.8051C34.4773 62.2581 34.0402 61.8559 33.5049 61.8532C30.947 61.8425 28.389 61.8434 25.8311 61.8532C25.3422 61.855 24.8882 62.2018 24.8551 62.671C24.8024 63.4182 24.8408 64.1725 24.8408 64.9421H34.5184Z" fill="black"/>
<path d="M4.0653 72.7516C4.04027 72.6229 3.9938 72.4942 3.9938 72.3646C3.99022 67.8395 3.99112 63.3145 3.99201 58.7894C3.99201 58.7161 4.00274 58.6419 4.01167 58.5293C4.14306 58.5177 4.27086 58.4971 4.39956 58.4971C7.82354 58.4953 11.2466 58.4837 14.6706 58.4998C17.1159 58.5114 18.9195 60.0201 19.1993 62.3671C19.3789 63.8722 19.3574 65.3933 18.284 66.6464C17.94 67.0486 17.5208 67.3864 17.0945 67.7922C17.2124 68.0648 17.3528 68.3892 17.4949 68.7127C18.083 70.0587 18.671 71.4047 19.2591 72.7507H15.6841C15.5992 72.5952 15.5036 72.4442 15.4312 72.2824C14.8905 71.0767 14.3435 69.8728 13.8233 68.6591C13.7044 68.382 13.5597 68.2882 13.2603 68.29C11.4307 68.3043 9.60122 68.2962 7.7717 68.298C7.64121 68.298 7.51162 68.3123 7.3275 68.324C7.3275 68.6743 7.33108 68.9978 7.3275 69.3214C7.3141 70.4645 7.29801 71.6085 7.28282 72.7516H4.0653ZM7.35879 64.8964C7.41509 64.925 7.44101 64.9491 7.46693 64.9491C9.95068 64.9536 12.4344 64.9661 14.9182 64.9509C15.466 64.9473 15.845 64.53 15.8933 63.9723C15.9174 63.6916 15.9076 63.4074 15.9058 63.125C15.9004 62.2268 15.5223 61.8487 14.6286 61.8487C12.3531 61.8487 10.0767 61.8487 7.8012 61.8487H7.35789V64.8973L7.35879 64.8964Z" fill="black"/>
</svg>
