<svg width="93" height="48" viewBox="0 0 93 48" fill="none" xmlns="http://www.w3.org/2000/svg">
<path d="M59.4074 35.5271C59.7554 35.2197 60.0878 34.9407 60.5551 34.7525C61.1728 34.5017 61.6996 34.025 62.2672 33.6519C62.4961 33.5013 62.7376 33.3696 62.9665 33.2223C63.2393 33.0467 63.4995 32.8491 63.7786 32.6798C64.0107 32.5387 64.2647 32.4289 64.4999 32.2941C64.6284 32.2188 64.7539 32.1279 64.8605 32.0244C65.2148 31.6763 65.6695 31.5101 66.1085 31.3094C66.3123 31.2185 66.4503 30.9927 66.6385 30.8547C66.8548 30.6948 67.0963 30.5725 67.3221 30.4251C67.6074 30.237 67.8802 30.0332 68.1687 29.8544C68.3882 29.7165 68.6109 29.5314 68.8492 29.4938C69.4167 29.406 69.6707 28.9294 70.069 28.6315C70.276 28.4747 70.5049 28.2865 70.7463 28.2458C71.1571 28.1768 71.3923 27.8726 71.709 27.6845C72.0069 27.512 72.3362 27.3929 72.6372 27.2267C72.7877 27.1451 72.9037 27.0009 73.0448 26.9005C73.4337 26.6214 73.7912 26.2389 74.227 26.1072C74.7382 25.9504 75.0329 25.5333 75.4813 25.3076C75.8294 25.132 76.2277 25.0003 76.5224 24.74C76.974 24.3417 77.5227 24.1066 78.0088 23.7742C78.3913 23.5108 78.7551 23.216 79.1345 22.9432C79.1816 22.9087 79.2537 22.9024 79.3133 22.9024C79.6958 22.9056 79.8589 22.5983 80.0815 22.3725C80.1756 22.2753 80.2979 22.2031 80.4202 22.1373C80.7494 21.9586 81.0912 21.7986 81.4142 21.6105C81.6149 21.4913 81.7905 21.3345 81.9755 21.1903C82.0194 21.1558 82.0445 21.0868 82.0947 21.0649C82.4083 20.9206 82.7344 20.8015 83.0417 20.6447C83.1671 20.5819 83.2988 20.4691 83.3584 20.3468C83.5215 20.005 84.0326 20.1868 84.1486 19.7949C84.1549 19.7729 84.2113 19.751 84.2427 19.7541C84.6754 19.7792 84.8761 19.4468 85.1427 19.1991C85.3245 19.0329 85.5629 18.9294 85.773 18.7914C85.9611 18.6691 86.143 18.5406 86.3531 18.3994C86.3531 18.1204 86.306 17.9197 85.9109 17.8444C85.6224 17.7911 85.3684 17.534 85.1019 17.3615C84.8918 17.2235 84.6974 17.0605 84.4842 16.9256C84.1706 16.7249 83.8507 16.5368 83.5309 16.3518C83.2957 16.2169 83.0417 16.1072 82.8159 15.9598C82.6121 15.825 82.4333 15.6494 82.2421 15.4894C82.2076 15.4612 82.1794 15.4048 82.1417 15.3985C81.7341 15.3483 81.5083 15.0222 81.201 14.8121C81.0003 14.6741 80.7463 14.5801 80.5205 14.4703C80.2007 14.3135 79.953 14.1191 79.7052 13.8745C79.5171 13.6895 79.2129 13.6299 78.9746 13.492C78.7018 13.332 78.4446 13.147 78.1844 12.9714C78.1279 12.9338 78.0809 12.8711 78.0182 12.8523C77.6795 12.7582 77.4224 12.57 77.1841 12.3066C77.0147 12.1185 76.7356 12.0276 76.5067 11.8927C76.2371 11.7359 75.9674 11.5791 75.7008 11.4192C75.4374 11.2624 75.174 11.1056 74.9169 10.9394C74.7507 10.8328 74.5092 10.7388 74.4497 10.582C74.3556 10.3311 74.1737 10.397 74.0169 10.3311C73.788 10.2339 73.5873 10.074 73.3741 9.94854C73.0354 9.74785 72.678 9.57224 72.355 9.34647C71.985 9.09247 71.6557 8.78203 71.2857 8.52803C71.0568 8.37124 70.7808 8.28657 70.5394 8.14546C70.2509 7.97927 69.9781 7.79112 69.699 7.61238C69.4575 7.45873 69.2129 7.31135 68.9715 7.1577C68.8366 7.07303 68.7049 6.98523 68.5732 6.89429C68.3098 6.70928 68.059 6.50545 67.7861 6.33926C67.5572 6.19815 67.2938 6.11348 67.0618 5.97551C66.8015 5.81872 66.5663 5.6243 66.3092 5.46124C66.0583 5.29818 65.7949 5.15394 65.5409 4.99715C65.2744 4.83409 65.0079 4.67103 64.7507 4.49229C64.4246 4.26651 64.1142 4.02192 63.7849 3.79928C63.3333 3.49198 62.7595 3.36654 62.4146 2.88991C62.3926 2.85855 62.3268 2.84287 62.2797 2.84287C61.9285 2.82405 61.7592 2.52616 61.5146 2.34428C61.4676 2.30979 61.4174 2.26902 61.3641 2.24707C61.0411 2.10283 60.7056 1.9868 60.3983 1.81434C60.0721 1.63246 59.7711 1.40355 59.4669 1.18091C59.445 1.16523 59.4857 0.989627 59.5234 0.977084C59.6551 0.94259 59.7962 0.936319 59.931 0.936319C63.0919 0.936319 66.2528 0.948862 69.4136 0.92064C69.8307 0.917504 70.0157 1.22795 70.3293 1.34397C70.4484 1.38787 70.5456 1.48821 70.6585 1.55407C70.8341 1.65755 71.0254 1.73908 71.1885 1.85824C71.5679 2.13732 71.9379 2.43522 72.3111 2.72685C72.3393 2.7488 72.3738 2.77702 72.4083 2.78015C72.7908 2.83033 72.9947 3.15331 73.2863 3.34146C73.6908 3.60486 74.1267 3.82437 74.5375 4.07523C74.7162 4.18185 74.9545 4.2916 75.0172 4.45779C75.1145 4.70238 75.2963 4.64908 75.45 4.7212C75.7071 4.84349 75.9517 5.00342 76.1932 5.15707C76.4534 5.32327 76.7074 5.50201 76.9646 5.67447C77.137 5.7905 77.3158 5.90339 77.4851 6.02882C77.8489 6.30163 78.2032 6.58699 78.5732 6.85353C78.7457 6.97582 78.9338 7.10752 79.1345 7.1577C79.4638 7.23923 79.6362 7.48382 79.8338 7.71273C79.8495 7.73154 79.8683 7.75036 79.8902 7.75976C80.2007 7.90087 80.5174 8.03258 80.8216 8.18309C80.9564 8.25208 81.0693 8.3681 81.1916 8.45904C81.5553 8.72558 81.9222 8.99212 82.2891 9.25867C82.3361 9.29316 82.3863 9.32138 82.4334 9.35587C82.7062 9.54402 82.9821 9.73217 83.2549 9.92031C83.2863 9.94226 83.3145 9.96735 83.3459 9.98303C83.6469 10.1179 83.9605 10.2308 84.2458 10.397C84.4371 10.5067 84.5845 10.6917 84.7538 10.8422C84.9075 10.9771 85.0455 11.1715 85.2242 11.2248C85.5879 11.3377 85.8325 11.576 86.0865 11.83C86.1336 11.877 86.2245 11.8864 86.2998 11.8959C86.629 11.9335 86.7764 12.222 86.999 12.4007C87.0241 12.4227 87.0304 12.4791 87.0555 12.4916C87.3377 12.6202 87.6325 12.73 87.9084 12.8711C88.1185 12.9808 88.3098 13.1313 88.5073 13.2662C88.6265 13.3477 88.7394 13.4324 88.8554 13.5139C88.9495 13.5766 89.0436 13.6393 89.1376 13.6989C89.5077 13.931 89.7397 14.3386 90.2132 14.4546C90.4829 14.5205 90.7118 14.7463 90.9595 14.8937C91.2417 15.063 91.5271 15.226 91.8062 15.4016C91.9379 15.4863 92.0853 15.571 92.1699 15.6933C92.3455 15.9473 92.6434 16.0978 92.6309 16.5054C92.5933 17.7347 92.5901 18.9639 92.6309 20.1931C92.6466 20.607 92.402 20.8422 92.1605 20.9614C91.825 21.1244 91.5146 21.275 91.3013 21.5854C91.2888 21.6042 91.2543 21.6199 91.2386 21.6168C90.831 21.4976 90.6522 21.9303 90.3167 22.0056C90.1474 22.0432 89.978 22.1843 89.8557 22.3223C89.5923 22.6171 89.216 22.7488 88.9307 22.9683C88.5763 23.2442 88.0527 23.3101 87.8394 23.7742C87.83 23.7961 87.7736 23.8087 87.7391 23.8087C87.344 23.8087 87.1872 24.1473 86.9363 24.3574C86.7231 24.5362 86.4315 24.624 86.2182 24.8058C85.9674 25.0191 85.6569 25.1351 85.3904 25.3044C85.0172 25.5427 84.804 25.9974 84.2772 26.0601C84.0044 26.0915 83.7692 26.4051 83.5058 26.5744C83.2737 26.7249 83.026 26.841 82.7908 26.9852C82.6058 27.1012 82.3299 27.1984 82.2734 27.3646C82.1982 27.5935 82.0382 27.5371 81.916 27.6124C81.6964 27.7535 81.4895 27.9165 81.2794 28.0733C81.2512 28.0921 81.248 28.1486 81.2198 28.1611C80.9219 28.3022 80.6083 28.4182 80.323 28.5844C80.1129 28.7067 79.9435 28.898 79.7523 29.0517C79.6143 29.1646 79.4763 29.2869 79.3227 29.3778C79.0875 29.5189 78.8303 29.6255 78.5983 29.7698C78.3318 29.936 78.0872 30.1304 77.83 30.3123C77.667 30.4283 77.5102 30.5694 77.3314 30.6509C77.0053 30.8014 76.7576 31.0303 76.4911 31.2624C76.2621 31.46 75.9235 31.5227 75.6475 31.67C75.4657 31.7673 75.2869 31.8833 75.1333 32.0244C74.8479 32.2878 74.5218 32.4697 74.1925 32.6704C73.6939 32.9745 73.1421 33.2442 72.7469 33.7365C72.5588 33.9717 72.1762 34.0438 71.8909 34.2069C71.6714 34.3292 71.4644 34.4734 71.2543 34.6145C71.1759 34.6678 71.1132 34.7494 71.0285 34.7933C70.7244 34.9563 70.37 35.0567 70.1192 35.2731C69.7523 35.5898 69.4011 35.7654 68.8868 35.7591C65.9266 35.7309 62.9665 35.7466 60.0063 35.7403C59.8056 35.7403 59.6018 35.6932 59.4011 35.6682C59.4011 35.6274 59.4011 35.5835 59.3979 35.5427L59.4074 35.5271Z" fill="black"/>
<path d="M75.9829 0.939476H92.5837C92.5962 1.12449 92.6213 1.30636 92.6213 1.48824C92.6213 4.86233 92.6213 8.23329 92.6213 11.6074C92.6213 11.7077 92.6276 11.8112 92.6057 11.9084C92.5837 12.0088 92.5335 12.1028 92.4959 12.2C92.4144 12.1373 92.336 12.0652 92.2482 12.0088C92.0287 11.8677 91.7872 11.7516 91.5834 11.5917C91.1851 11.2813 90.674 11.159 90.3385 10.7231C90.2036 10.5506 89.9779 10.2966 89.6079 10.2935C89.3664 10.2935 89.1312 10.0113 88.8898 9.85762C88.6201 9.68515 88.3441 9.51582 88.0776 9.33708C87.9302 9.23987 87.7672 9.15207 87.6449 9.02664C87.3783 8.74442 87.0428 8.58763 86.7261 8.39008C86.3686 8.16744 85.9892 7.98556 85.6317 7.77233C85.4498 7.66258 85.3056 7.49325 85.1362 7.36468C84.7537 7.08246 84.4871 6.66226 83.9603 6.54938C83.6906 6.49293 83.4649 6.22639 83.214 6.05706C82.8377 5.80306 82.4583 5.5522 82.082 5.2982C81.9283 5.19159 81.7778 5.0787 81.6273 4.96581C81.3827 4.78394 81.1475 4.58638 80.8967 4.41705C80.7054 4.28535 80.489 4.19127 80.2946 4.06898C80.1441 3.97491 80.0092 3.85888 79.8619 3.75227C79.5953 3.55785 79.3382 3.34148 79.0497 3.18155C78.8427 3.06553 78.5731 3.10943 78.4257 2.82408C78.3347 2.65161 78.0023 2.60144 77.9177 2.42897C77.8048 2.19692 77.6261 2.25023 77.4724 2.17811C77.2717 2.0809 77.0961 1.93038 76.9048 1.81122C76.748 1.71088 76.585 1.6168 76.4188 1.529C76.1867 1.40984 75.9547 1.29695 75.986 0.942612L75.9829 0.939476Z" fill="black"/>
<path d="M92.5804 35.7246C92.3923 35.7246 92.2323 35.7246 92.0724 35.7246C86.867 35.7246 81.6616 35.7277 76.4594 35.7277C76.3465 35.7277 76.2148 35.7528 76.127 35.7027C76.0611 35.665 76.0549 35.5239 76.0298 35.4267C76.0298 35.4204 76.0988 35.4048 76.127 35.3828C76.4468 35.1508 76.7636 34.9187 77.1022 34.7086C77.4158 34.5111 77.7952 34.4295 78.0649 34.1693C78.1621 34.0752 78.2436 33.9654 78.3471 33.8808C78.5917 33.6801 78.8457 33.4857 79.1028 33.3007C79.1656 33.2536 79.2722 33.2662 79.338 33.2223C79.5795 33.0655 79.8115 32.8993 80.0467 32.7362C80.1094 32.6923 80.1784 32.6547 80.2411 32.6108C80.4983 32.432 80.7491 32.2502 81.0094 32.0777C81.2414 31.924 81.4798 31.7798 81.7149 31.6324C81.8968 31.5195 82.1822 31.438 82.2355 31.2812C82.3139 31.0429 82.4769 31.0868 82.6181 31.0209C82.8125 30.93 83.0069 30.8328 83.1731 30.698C83.6372 30.3217 84.0793 29.9266 84.6594 29.7165C84.857 29.6443 84.973 29.3715 85.158 29.2273C85.3587 29.0705 85.6033 28.9764 85.8071 28.829C86.2116 28.5374 86.7479 28.4339 87.0332 27.9667C87.052 27.9322 87.121 27.9322 87.1649 27.9103C87.5945 27.6908 88.1151 27.5559 88.4318 27.2267C88.8238 26.8159 89.3411 26.6371 89.7268 26.2859C90.0059 26.0319 90.4199 26.01 90.6111 25.6964C90.8745 25.2605 91.4609 25.3107 91.7432 24.8717C91.8529 24.7024 92.2543 24.7713 92.3985 24.4985C92.4581 24.5456 92.5585 24.5832 92.571 24.6396C92.6086 24.7964 92.6243 24.9626 92.6243 25.1226C92.6243 28.4465 92.6243 31.7704 92.6243 35.0943C92.6243 35.2919 92.5992 35.4894 92.5835 35.734L92.5804 35.7246Z" fill="black"/>
<path d="M87.3439 41.7139C87.5508 41.7139 87.8268 41.6481 88.04 41.7328C88.225 41.808 88.4288 42.0338 88.4727 42.2282C88.5919 42.7582 88.7957 43.2348 89.0905 43.6832C89.1093 43.7146 89.1156 43.7553 89.125 43.7898C89.2442 44.1975 89.2912 44.649 89.5076 44.994C89.6549 45.2291 89.7866 45.4361 89.8243 45.7058C89.8243 45.7277 89.9278 45.7622 89.9497 45.7466C90.003 45.7121 90.0469 45.6525 90.072 45.5929C90.279 45.1131 90.4891 44.6365 90.6772 44.1504C90.812 43.8024 90.8591 43.4041 91.0535 43.0968C91.32 42.6766 91.2855 42.0934 91.7057 41.7986C91.897 41.6638 92.2325 41.7359 92.5398 41.7108C92.5649 41.899 92.5994 42.0557 92.5994 42.2125C92.612 43.7177 92.6214 45.2229 92.6182 46.728C92.6182 46.9413 92.6904 47.2392 92.3454 47.2956C91.9942 47.3521 91.9566 47.0887 91.9535 46.8441C91.9409 46.1542 91.9472 45.4643 91.9472 44.7745C91.9472 44.4609 91.9472 44.1473 91.9346 43.8337C91.9315 43.7459 91.8751 43.6613 91.8406 43.5766C91.7779 43.6362 91.712 43.6895 91.6556 43.7522C91.3232 44.1285 91.2009 44.6083 90.9876 45.041C90.8371 45.3483 90.8403 45.7309 90.6584 45.9378C90.4012 46.2326 90.4357 46.5462 90.3354 46.8503C90.279 47.0165 90.119 47.1671 89.9717 47.2768C89.7866 47.4148 89.5891 47.2329 89.4574 47.051C89.1626 46.6434 89.2912 46.0758 88.8961 45.7121C88.8177 45.6399 88.8679 45.4424 88.824 45.3138C88.7675 45.1476 88.6766 44.994 88.5982 44.8372C88.5888 44.8152 88.5449 44.7964 88.548 44.787C88.6452 44.3825 88.2219 44.1693 88.1874 43.8118C88.1811 43.7365 88.0965 43.6707 88.0463 43.5985C87.9992 43.6801 87.9114 43.7647 87.9114 43.8463C87.8958 44.7995 87.8707 45.7528 87.902 46.7061C87.9146 47.0761 87.6763 47.1827 87.4505 47.2831C87.1526 47.4148 86.9582 47.2611 86.9456 46.9068C86.9331 46.4803 86.9519 46.0539 86.9582 45.6274C86.9707 44.7995 86.9488 43.9717 87.0083 43.147C87.0428 42.6798 87.2184 42.2188 87.3407 41.7139H87.3439Z" fill="black"/>
<path d="M57.7578 41.7798C57.7734 41.9428 57.8048 42.1121 57.8048 42.2846C57.8079 43.7772 57.8111 45.2667 57.8048 46.7594C57.8048 46.9475 57.902 47.2172 57.6041 47.2893C57.2717 47.3708 57.0773 47.1106 56.8547 46.9412C56.7606 46.8691 56.6791 46.7719 56.6101 46.6747C56.3717 46.3266 56.1867 45.9347 55.9014 45.6305C55.5721 45.2793 55.5408 44.7368 55.039 44.4828C54.7725 44.348 54.6283 43.9842 54.415 43.7365C54.346 43.6581 54.2269 43.6267 54.0513 43.5327C54.0513 44.1347 54.0513 44.6427 54.0513 45.1507C54.0513 45.7402 54.0607 46.3298 54.045 46.9162C54.0419 47.0416 53.9384 47.2674 53.8757 47.2674C53.722 47.2705 53.5621 47.1764 53.4084 47.1137C53.0666 46.982 53.1419 46.6841 53.1388 46.4207C53.1388 45.0159 53.1325 43.6142 53.145 42.2094C53.145 42.0557 53.214 41.7892 53.2955 41.7703C53.5495 41.7139 53.8286 41.5853 54.0858 41.8393C54.3398 42.0933 54.5499 42.363 54.7004 42.6923C54.7819 42.871 54.9199 43.0309 55.0641 43.1689C55.4342 43.5264 55.823 43.8588 55.9578 44.3981C55.9923 44.5424 56.146 44.7337 56.2745 44.7619C56.5599 44.8246 56.4846 45.0629 56.5787 45.2166C56.6195 45.2824 56.6885 45.3295 56.7449 45.3859C56.7951 45.32 56.8703 45.2636 56.886 45.1915C56.9174 45.0472 56.9236 44.8936 56.9236 44.7431C56.9236 43.9779 56.9236 43.2128 56.9236 42.4508C56.9236 41.9209 57.1902 41.6951 57.7672 41.7766L57.7578 41.7798Z" fill="black"/>
<path d="M69.7675 44.4421C69.6295 44.9908 69.5198 45.4957 69.3661 45.988C69.3191 46.1416 69.1623 46.2702 69.0369 46.3925C68.8424 46.5869 68.6355 46.7688 68.4348 46.9569C68.4254 46.9664 68.4191 46.9789 68.4097 46.982C67.7826 47.2266 67.1303 47.5496 66.4687 47.2768C66.0422 47.0981 65.622 46.8723 65.2489 46.4991C64.8318 46.0789 64.7691 45.6556 64.6436 45.157C64.5339 44.7086 64.3834 44.3323 64.6656 43.8996C64.7471 43.7741 64.6844 43.5546 64.7032 43.3822C64.7409 43.0466 64.951 42.8271 65.1955 42.617C65.3649 42.4728 65.4966 42.2846 65.6471 42.1184C65.669 42.0934 65.691 42.0495 65.7192 42.0432C66.1614 41.9742 66.5157 41.5885 67.0112 41.7077C67.1774 41.7484 67.3624 41.7233 67.5348 41.7139C67.9644 41.6857 68.278 41.8739 68.5226 42.2125C68.5477 42.2502 68.5947 42.2846 68.6386 42.294C69.1623 42.4195 69.3316 42.802 69.4226 43.285C69.4978 43.6801 69.6452 44.0595 69.7612 44.4483L69.7675 44.4421ZM65.5906 44.5205C65.6816 44.9438 65.5123 45.433 65.9105 45.8563C66.1582 46.1166 66.3338 46.427 66.7321 46.4051C67.1523 46.38 67.6038 46.5744 67.9738 46.1291C68.1839 45.8782 68.4787 45.7183 68.5038 45.3326C68.5163 45.1539 68.6543 44.9877 68.6919 44.8058C68.7296 44.6302 68.7891 44.3511 68.7013 44.2759C68.4442 44.0532 68.5195 43.7773 68.4756 43.5201C68.4317 43.2693 67.9017 42.639 67.6571 42.6515C67.1523 42.6766 66.6098 42.3975 66.1488 42.9118C65.9168 43.1689 65.691 43.3947 65.6377 43.7396C65.6001 43.9842 65.6063 44.2382 65.5906 44.5236V44.5205Z" fill="black"/>
<path d="M6.92037 41.6073C7.33743 41.7422 7.76076 41.8645 8.16527 42.0244C8.30638 42.0808 8.41613 42.2345 8.52275 42.3599C8.73912 42.6139 9.03388 42.8491 9.12795 43.147C9.25338 43.5421 9.24398 43.9874 9.25025 44.4139C9.25652 44.787 9.21576 45.1664 9.17185 45.5396C9.16245 45.6337 9.05269 45.7121 8.98998 45.7999C8.95549 45.8438 8.89277 45.8908 8.89277 45.9347C8.8865 46.3298 8.55411 46.4678 8.33147 46.703C7.82034 47.2486 7.18064 47.4179 6.48136 47.3301C5.94514 47.2643 5.44655 47.051 5.07026 46.6277C4.90407 46.4396 4.72219 46.264 4.54659 46.0821C4.53091 46.0664 4.51209 46.0445 4.50896 46.0225C4.39921 45.48 4.05427 44.9846 4.19224 44.395C4.302 43.9278 4.30827 43.3885 4.55913 43.0184C4.73787 42.7582 4.78177 42.2125 5.31799 42.2658C5.78208 41.8979 6.30367 41.7139 6.88274 41.7139C6.89528 41.6795 6.90783 41.645 6.92037 41.6073ZM8.25621 44.5048C8.17468 44.0501 8.43181 43.5296 7.96458 43.1313C7.72626 42.9275 7.57575 42.6265 7.20259 42.6265C6.72595 42.6265 6.2744 42.5543 5.81971 42.8899C5.44342 43.1689 5.26154 43.5327 5.14866 43.909C5.0389 44.2759 5.12043 44.7023 5.12984 45.1037C5.12984 45.1978 5.15179 45.3075 5.2051 45.3797C5.35248 45.5835 5.49359 45.8093 5.68801 45.9629C5.92946 46.1542 6.1082 46.4803 6.50017 46.4145C6.9141 46.3455 7.37506 46.5807 7.72626 46.1072C7.91441 45.8532 8.22485 45.6838 8.24994 45.3295C8.27189 45.0567 8.25307 44.7807 8.25307 44.5048H8.25621Z" fill="black"/>
<path d="M36.5442 41.7453C37.2873 41.7453 38.0117 41.6732 38.7078 41.7767C39.0277 41.8237 39.4165 41.9836 39.658 42.3662C39.8744 42.7111 39.9684 43.0341 39.9371 43.4229C39.8963 43.9466 39.5075 44.4483 38.9995 44.5863C38.9932 44.8403 38.9054 45.0724 39.2033 45.2981C39.4071 45.4518 39.4479 45.8061 39.5921 46.0507C39.7301 46.2796 39.9214 46.4709 40.0688 46.6967C40.144 46.8127 40.213 46.9664 40.1973 47.0918C40.1879 47.1733 40.0217 47.2862 39.9183 47.2956C39.3475 47.3583 39.1249 47.1545 38.9493 46.5964C38.8615 46.3141 38.6514 46.0664 38.4883 45.8093C38.3347 45.571 38.1842 45.3295 38.0023 45.1131C37.9051 44.9971 37.7452 44.9313 37.6135 44.8435C37.5445 44.9532 37.4159 45.063 37.4128 45.1758C37.3877 45.7528 37.3877 46.3298 37.3971 46.9068C37.4034 47.2705 37.1745 47.2894 36.9048 47.305C36.6257 47.3207 36.4814 47.2329 36.4814 46.9382C36.4814 45.3201 36.4814 43.702 36.4846 42.0871C36.4846 41.9899 36.5159 41.8927 36.5442 41.7453ZM37.394 44.2006C37.7953 44.2006 38.1528 44.2006 38.5134 44.2006C38.5605 44.2006 38.6232 44.1881 38.6483 44.1536C38.8646 43.8745 39.0528 43.5954 38.9838 43.1972C38.9242 42.8711 38.7235 42.6954 38.4476 42.639C38.1842 42.5826 37.8988 42.6014 37.6229 42.6233C37.5413 42.6296 37.4065 42.7582 37.4034 42.8334C37.3814 43.2787 37.394 43.7271 37.394 44.2006Z" fill="black"/>
<path d="M79.3975 42.4791C79.454 42.592 79.5606 42.7927 79.6515 42.9965C79.6798 43.0592 79.686 43.1439 79.6672 43.2097C79.5951 43.4543 79.4916 43.6926 79.432 43.9403C79.363 44.2382 79.109 44.395 78.8958 44.4891C78.4286 44.6961 78.4035 44.7462 78.7328 45.1413C78.8958 45.3358 78.9648 45.6054 79.1028 45.8249C79.2439 46.0476 79.4508 46.2295 79.5669 46.4615C79.6704 46.6653 79.708 46.9131 79.7237 47.1451C79.7237 47.189 79.4979 47.2862 79.3693 47.2956C79.1279 47.3176 78.9397 47.2988 78.7641 47.0134C78.4976 46.5744 78.4223 46.0162 77.9676 45.687C77.8924 45.6305 77.9331 45.433 77.8641 45.3452C77.7168 45.1602 77.56 44.9438 77.3593 44.8591C77.121 44.7588 76.9297 44.8999 76.9297 45.2041C76.9328 45.7183 76.9454 46.2326 76.9297 46.7437C76.9234 46.9789 77.0238 47.3113 76.5879 47.3019C76.2994 47.2956 76.0297 47.0165 76.0297 46.703C76.0297 45.2511 76.0266 43.7961 76.0297 42.3442C76.0297 42.0118 76.2868 41.7453 76.6098 41.7422C77.0488 41.7359 77.491 41.6951 77.9237 41.7422C78.3 41.7861 78.6732 41.9084 79.0338 42.0401C79.1624 42.0871 79.2376 42.2721 79.4038 42.4759L79.3975 42.4791ZM78.4756 42.617C78.0084 42.617 77.5757 42.6076 77.1429 42.6265C77.0677 42.6265 76.9391 42.7425 76.9391 42.8083C76.9203 43.2662 76.9297 43.724 76.9297 44.1881C77.3812 44.1881 77.792 44.2069 78.1965 44.1755C78.2969 44.1693 78.4568 44.0093 78.4631 43.909C78.4944 43.5045 78.4756 43.0968 78.4756 42.6139V42.617Z" fill="black"/>
<path d="M11.0501 41.7767C11.0658 42.0119 11.094 42.2314 11.0972 42.454C11.1003 43.3195 11.0658 44.1849 11.1066 45.0473C11.1223 45.3797 11.3073 45.7027 11.4013 45.988C11.5174 46.104 11.602 46.2075 11.7055 46.2891C11.7651 46.3392 11.8466 46.3831 11.9219 46.3863C12.1602 46.4019 12.3985 46.4019 12.6337 46.3988C12.9849 46.3925 13.1229 46.1291 13.2608 45.8689C13.8033 44.8497 13.4302 43.7491 13.5368 42.6892C13.5556 42.5042 13.5243 42.3129 13.5493 42.1279C13.5776 41.9178 13.6183 41.7046 13.9288 41.7422C14.2079 41.7767 14.4869 41.8802 14.4932 42.1592C14.5214 43.2975 14.4995 44.4389 14.4932 45.5804C14.1984 45.7905 14.3301 46.242 13.9821 46.4458C13.8096 46.5462 13.7438 46.8159 13.5744 46.9288C13.3204 47.1012 13.0319 47.258 12.7372 47.3239C12.4393 47.3897 12.1132 47.3552 11.8027 47.3333C11.4609 47.3082 11.2414 47.073 11.025 46.8315C10.8777 46.6685 10.6926 46.5462 10.5233 46.4051C10.5045 46.3894 10.47 46.3831 10.4669 46.3643C10.3665 46.0351 10.1941 45.7089 10.1815 45.3734C10.1408 44.4107 10.1658 43.4449 10.1658 42.4791C10.1658 41.8707 10.354 41.7046 11.0533 41.7767H11.0501Z" fill="black"/>
<path d="M20.7902 41.7986V44.1692H23.327C23.327 43.6048 23.327 43.0466 23.327 42.4885C23.3239 41.808 23.4712 41.6763 24.1893 41.7798C24.205 41.9428 24.2364 42.1122 24.2364 42.2846C24.2395 43.7773 24.2426 45.2699 24.2364 46.7594C24.2364 47.004 24.3116 47.3207 23.8789 47.3019C23.5308 47.2893 23.3239 47.0855 23.3239 46.7092C23.3239 46.0978 23.3239 45.4863 23.3239 44.8434H20.7808C20.7808 45.3985 20.7808 45.9441 20.7808 46.4929C20.7808 46.5681 20.7933 46.6434 20.7808 46.7186C20.7431 46.9601 20.8999 47.3207 20.4295 47.3019C20.116 47.2893 19.8745 47.0197 19.8745 46.6653C19.8745 45.2605 19.8745 43.8557 19.8745 42.454C19.8745 41.8927 20.1348 41.6794 20.7902 41.7955V41.7986Z" fill="black"/>
<path d="M50.5611 41.7578C50.6865 42.1874 50.7367 42.6547 50.9531 43.0247C51.1412 43.3508 51.091 43.7835 51.2886 43.9874C51.5551 44.2633 51.3889 44.7117 51.7684 44.8873C51.8154 44.9093 51.8154 45.0473 51.8279 45.1319C51.8624 45.3702 51.8029 45.643 52.0976 45.781C52.1352 45.7998 52.129 45.9159 52.1384 45.9911C52.1635 46.1918 52.1823 46.3611 52.3485 46.5462C52.4676 46.681 52.361 47.0197 52.3516 47.2674C52.0882 47.2298 51.806 47.236 51.5645 47.1388C51.2039 46.9914 51.2227 46.6246 51.1851 46.2984C51.1506 46.0099 50.837 45.7403 50.5517 45.7371C50.0531 45.734 49.5514 45.7371 49.0747 45.7371C48.9368 46.1761 48.8584 46.5806 48.6796 46.935C48.5636 47.1639 48.3159 47.3489 47.9929 47.305C47.6887 47.2611 47.7357 47.0165 47.7546 46.8409C47.7859 46.5587 47.6699 46.2138 48.0242 46.0193C48.0838 45.988 48.0587 45.8061 48.0744 45.6964C48.1058 45.4894 48.018 45.2323 48.3221 45.1319C48.3566 45.1194 48.3566 44.9971 48.3723 44.9281C48.4131 44.7619 48.3221 44.5267 48.6106 44.4985C48.6294 44.4985 48.6514 44.4703 48.6577 44.4483C48.7674 44.0877 48.8678 43.724 48.9869 43.3665C49.0434 43.194 49.1406 43.0372 49.2158 42.8679C49.2503 42.7895 49.2786 42.7048 49.2942 42.6202C49.4636 41.7421 49.5608 41.6732 50.5548 41.7578H50.5611ZM50.2099 43.2661C49.7709 43.2254 49.6956 43.2818 49.6611 43.6769C49.6423 43.9121 49.6548 44.1253 49.4259 44.3292C49.1876 44.5361 49.3444 44.8246 49.6674 44.8372C49.9622 44.8497 50.26 44.8372 50.5736 44.8372C50.5799 44.7149 50.6081 44.6239 50.5862 44.5455C50.467 44.1159 50.3353 43.6895 50.2099 43.2599V43.2661Z" fill="black"/>
<path d="M74.6974 41.7892C74.71 41.9648 74.7319 42.1467 74.7319 42.3317C74.7319 43.3226 74.7068 44.3135 74.7319 45.3044C74.757 46.1855 74.1832 46.6057 73.578 47.0792C73.186 47.3865 72.8003 47.3207 72.3958 47.3395C71.9129 47.3583 71.5522 47.12 71.2481 46.7625C71.1132 46.6057 70.9188 46.5054 70.7777 46.3517C70.7024 46.2702 70.6554 46.1354 70.6523 46.0256C70.6209 44.7462 70.5927 43.47 70.5864 42.1906C70.5864 41.9742 70.6209 41.7014 70.9878 41.7421C71.2575 41.7704 71.5522 42.0244 71.5522 42.2878C71.5522 43.1031 71.546 43.9184 71.546 44.7337C71.546 44.9845 71.5522 45.2354 71.5679 45.4863C71.5805 45.6713 71.546 45.9535 71.6463 46.0225C71.9097 46.2012 72.1292 46.5305 72.54 46.4113C72.6905 46.3674 72.863 46.4082 73.0261 46.3988C73.2205 46.3894 73.3177 46.2859 73.4588 46.1322C73.8414 45.7058 73.7818 45.2229 73.7818 44.7368C73.7849 43.9842 73.7818 43.2316 73.7818 42.4791C73.7818 41.6857 73.8319 41.6449 74.6943 41.7923L74.6974 41.7892Z" fill="black"/>
<path d="M29.8272 41.7077C29.9746 42.2031 30.0279 42.6766 30.2505 43.0498C30.4512 43.3853 30.4606 43.7334 30.5704 44.0752C30.6958 44.4703 30.9184 44.8309 31.0878 45.2135C31.1317 45.3138 31.1066 45.4392 31.1442 45.5427C31.2132 45.7246 31.3135 45.8939 31.3888 46.0727C31.4264 46.1573 31.4264 46.2608 31.4609 46.3455C31.5111 46.4615 31.5958 46.5619 31.6334 46.681C31.6836 46.8347 31.7275 47.0009 31.7118 47.1545C31.7055 47.2141 31.533 47.2956 31.4296 47.3019C30.8589 47.3489 30.5798 47.1106 30.5139 46.5368C30.4418 45.9033 30.2568 45.7371 29.6014 45.7371C29.2251 45.7371 28.852 45.7497 28.4757 45.756C28.4286 45.756 28.3816 45.7779 28.3408 45.7873C28.2185 46.1856 28.1558 46.5963 27.9645 46.9413C27.8516 47.1451 27.6039 47.3709 27.2778 47.2988C26.9736 47.2298 27.0301 46.9758 27.052 46.7876C27.0865 46.5179 26.9674 46.1887 27.3217 46.01C27.3781 45.9817 27.3593 45.7999 27.375 45.687C27.4064 45.48 27.3217 45.226 27.6196 45.1194C27.6604 45.1037 27.6572 44.9626 27.676 44.8811C27.7137 44.7306 27.6227 44.5048 27.8987 44.486C27.9238 44.486 27.9551 44.4389 27.9645 44.4076C28.0806 44.0031 28.1903 43.5954 28.3095 43.1909C28.3408 43.0843 28.4098 42.9839 28.46 42.8836C28.5039 42.7958 28.576 42.7143 28.5886 42.6233C28.6262 42.3066 28.6011 41.9397 28.9586 41.808C29.2126 41.7139 29.5105 41.739 29.8241 41.7077H29.8272ZM28.5666 44.7243C28.6074 44.7588 28.6481 44.7933 28.6858 44.8246H29.9213C29.8742 44.5236 29.9275 44.1348 29.7739 44.0187C29.4728 43.793 29.6579 43.4825 29.5136 43.263C29.0276 43.2317 28.9899 43.263 28.9523 43.7146C28.9398 43.8714 28.9335 44.0376 28.8739 44.1818C28.7955 44.3731 28.6701 44.5424 28.5635 44.7212L28.5666 44.7243Z" fill="black"/>
<path d="M47.0869 46.1072C47.1057 46.4239 47.1245 46.7061 47.1465 47.0604C46.6196 47.1576 46.1273 47.2893 45.6287 47.3332C45.0768 47.3834 44.6378 47.0887 44.1675 46.8158C43.6407 46.5085 43.4964 45.9598 43.1327 45.5615C43.0668 45.4894 43.0605 45.3514 43.0605 45.2417C43.0511 44.8528 43.0072 44.4577 43.0668 44.0783C43.1233 43.7083 43.2236 43.3163 43.4212 43.009C43.6062 42.7205 43.9448 42.5324 44.2145 42.2972C44.3274 42.2 44.4591 42.1122 44.5469 41.9962C44.8636 41.576 45.3152 41.7453 45.7165 41.7171C46.0772 41.6951 46.444 41.7171 46.8047 41.739C47.09 41.7578 47.1684 41.9742 47.137 42.4383C47.1182 42.7644 46.9269 42.6547 46.7451 42.6484C46.3092 42.6296 45.8702 42.6327 45.4312 42.6296C44.8448 42.6296 44.5939 43.0623 44.2709 43.4606C43.879 43.9435 44.0546 44.4672 44.0295 44.9783C44.0075 45.3577 44.2365 45.6023 44.5124 45.8249C44.6723 45.9535 44.7946 46.1291 44.9483 46.2671C45.0141 46.3267 45.1113 46.3768 45.196 46.38C45.5598 46.3957 45.9235 46.4019 46.2841 46.3988C46.5193 46.3988 46.7921 46.4552 46.8893 46.126C46.8956 46.1072 46.9803 46.1134 47.0837 46.104L47.0869 46.1072Z" fill="black"/>
<path d="M83.0009 46.1385C83.5371 46.6183 84.1329 46.3925 84.6189 46.4019C84.7569 46.2514 84.8729 46.1667 84.9325 46.0507C84.989 45.9409 85.0266 45.7936 85.0046 45.6775C84.9451 45.3577 84.3305 44.8403 83.9855 44.8246C83.6092 44.8058 83.4493 44.4891 83.1859 44.3197C82.6716 43.9905 82.8441 43.4982 82.8661 43.078C82.8911 42.6076 83.1389 42.2282 83.5716 41.9428C84.1831 41.5414 84.8228 41.7641 85.4499 41.7609C85.5315 41.7609 85.66 41.9303 85.6851 42.04C85.7259 42.2156 85.6945 42.4069 85.6945 42.6327H83.8413V43.8588C84.2834 43.8023 84.5343 44.1943 84.9576 44.2696C85.2524 44.3229 85.4374 44.8309 85.7353 45.0504C86.0332 45.2699 86.0112 45.5364 85.9893 45.8186C85.983 45.9127 85.8858 46.0036 85.8294 46.0946C85.798 46.1416 85.7384 46.1855 85.7353 46.2357C85.6945 46.728 85.3402 46.8879 84.967 47.1294C84.5656 47.3834 84.1862 47.3614 83.8005 47.3238C83.4901 47.2925 83.1828 47.1388 82.8943 46.9977C82.7281 46.9162 82.819 46.3674 83.004 46.1385H83.0009Z" fill="black"/>
<path d="M0.432627 46.9381V46.1134C0.529836 46.1134 0.639588 46.0852 0.661539 46.1166C1.08173 46.7061 1.68067 46.4051 2.18553 46.38C2.62767 46.358 2.74056 45.7371 2.41444 45.4079C2.13535 45.1257 1.88763 44.8372 1.43921 44.7839C1.22284 44.7588 1.03156 44.5361 0.830871 44.4044C0.721119 44.2445 0.611366 44.0626 0.479664 43.8964C0.329147 43.7052 0.407541 42.8021 0.592552 42.6421C0.648996 42.592 0.670946 42.5042 0.721119 42.4446C1.0002 42.1091 1.24479 41.7171 1.75592 41.7108C2.22002 41.7077 2.68098 41.7108 3.19838 41.7108C3.2172 42.0338 3.23287 42.3129 3.25169 42.6202C3.11685 42.6265 3.02278 42.639 2.9287 42.6359C2.61513 42.6296 2.30155 42.5982 1.99111 42.6076C1.39845 42.6265 1.1225 43.1282 1.39217 43.6675C1.40472 43.6895 1.41412 43.7271 1.4298 43.7302C1.78101 43.8055 1.95034 44.2069 2.34859 44.2194C2.4897 44.2226 2.61513 44.417 2.76564 44.4672C2.98201 44.5393 3.12312 44.6428 3.29245 44.8184C3.73773 45.2825 3.56213 45.7999 3.46806 46.2514C3.40534 46.5493 3.03218 46.797 2.76878 47.0385C2.29214 47.4712 1.70575 47.374 1.14758 47.2894C0.909265 47.2549 0.692897 47.0667 0.432627 46.9319V46.9381Z" fill="black"/>
<path d="M35.4625 42.6358C34.9451 42.6358 34.4465 42.6358 33.9479 42.6358C33.4367 42.639 33.3678 42.7111 33.3678 43.2254C33.3678 43.3884 33.3678 43.5515 33.3678 43.7146C33.3678 44.1787 33.3991 44.2163 33.8852 44.2226C34.3085 44.2288 34.7318 44.2226 35.1489 44.2226C35.3151 44.8434 35.29 44.8779 34.7036 44.8779C34.528 44.8779 34.343 44.9124 34.1799 44.8685C33.7754 44.7619 33.5371 45.0629 33.4179 45.295C33.3019 45.5208 33.2674 45.8594 33.5245 46.1573C33.6594 46.311 33.6531 46.6841 33.5684 46.9036C33.4995 47.0824 33.2329 47.2392 33.026 47.2893C32.7563 47.3552 32.4396 47.0228 32.4364 46.7343C32.4333 45.2542 32.4333 43.7773 32.4364 42.2972C32.4364 42.0275 32.7437 41.7484 33.0322 41.7453C33.6092 41.7422 34.1862 41.7453 34.76 41.7453C35.337 41.7453 35.5408 41.9805 35.4625 42.6358Z" fill="black"/>
<path d="M64.3364 41.7421C64.3553 42.0651 64.3709 42.3317 64.3866 42.6358H62.825V43.1031C62.825 44.3198 62.825 45.5364 62.825 46.75C62.825 47.2737 62.5804 47.4681 62.0912 47.2768C61.9721 47.2298 61.8811 46.9601 61.878 46.7907C61.8592 45.7873 61.8686 44.7838 61.8686 43.7835C61.8686 43.4198 61.8686 43.0592 61.8686 42.6515H60.2944C60.2944 42.4759 60.2944 42.3442 60.2944 42.2125C60.285 41.877 60.4105 41.7265 60.7805 41.7327C61.9439 41.7547 63.1072 41.7421 64.3364 41.7421Z" fill="black"/>
<path d="M16.698 42.6515H15.1646C15.1489 42.5449 15.1332 42.4884 15.1332 42.4289C15.1144 41.7703 15.1395 41.7453 15.8074 41.7453C16.698 41.7453 17.5854 41.7453 18.476 41.7453C19.0247 41.7453 19.2317 41.9961 19.1408 42.6201H17.6669C17.6669 42.8146 17.6669 42.9494 17.6669 43.0842C17.6669 44.3103 17.6669 45.5396 17.6669 46.7656C17.6669 47.0259 17.6513 47.2705 17.2969 47.3019C16.814 47.3489 16.698 47.258 16.698 46.75C16.698 45.5364 16.698 44.3197 16.7043 43.1062C16.7043 42.9714 16.7043 42.8365 16.7043 42.6515H16.698Z" fill="black"/>
<path d="M81.6587 44.5361C81.6587 45.2887 81.665 46.0381 81.6587 46.7907C81.6587 47.0385 81.6712 47.3144 81.2855 47.305C80.9406 47.2956 80.6929 47.0792 80.6929 46.7437C80.6929 45.2417 80.6929 43.7396 80.6929 42.2376C80.6929 41.7672 80.7242 41.7453 81.1758 41.7453C81.6022 41.7453 81.6587 41.7986 81.6618 42.2501C81.665 43.0153 81.6618 43.7772 81.6618 44.5424L81.6587 44.5361Z" fill="black"/>
<path d="M41.1474 44.5048C41.1474 43.7428 41.1411 42.9777 41.1505 42.2157C41.1536 41.9899 41.1192 41.7171 41.5017 41.739C41.8278 41.7579 42.1006 41.9617 42.1006 42.2565C42.1038 43.7585 42.1069 45.2605 42.1006 46.7626C42.1006 47.0981 41.6146 47.4368 41.3355 47.2737C41.2258 47.211 41.1599 46.9852 41.1568 46.8315C41.138 46.057 41.1474 45.2793 41.1474 44.5048Z" fill="black"/>
<path d="M51.8344 15.7434C51.8344 16.2797 51.8657 16.7971 51.8249 17.3082C51.7904 17.7347 51.6744 18.1517 51.5992 18.575C51.5741 18.7224 51.5521 18.8729 51.5459 19.0235C51.5333 19.4248 51.527 19.8262 51.5208 20.2276C51.5145 20.629 51.5521 21.0366 51.4957 21.4286C51.4424 21.7924 51.2887 22.1436 51.1539 22.5763C51.0159 22.5418 50.7839 22.5543 50.7211 22.4571C50.5361 22.1686 50.3919 21.8457 50.2821 21.5195C50.21 21.3 50.3292 21.021 50.0438 20.861C49.9905 20.8328 49.9968 20.676 49.9936 20.5788C49.9874 19.3496 49.978 18.1235 49.9905 16.8943C49.9905 16.6246 49.9184 16.5117 49.6487 16.5744C49.3916 16.634 49.0811 16.5023 48.893 16.8378C48.8428 16.9256 48.592 16.9037 48.3881 16.9382C48.4603 17.3835 48.2251 17.8664 48.6296 18.2646C48.6829 18.3179 48.6578 18.4559 48.6641 18.5562C48.6798 18.9451 48.6641 19.337 48.7111 19.7196C48.777 20.2339 48.8867 20.7419 48.9839 21.253C49.0529 21.6168 48.8836 22.0369 49.2536 22.3348C49.2756 22.3505 49.1909 22.5638 49.1658 22.5638C49.0059 22.5512 48.8177 22.5481 48.6986 22.4603C48.501 22.316 48.3505 22.1091 48.1812 21.9303C48.1561 21.9052 48.1059 21.8958 48.0965 21.8676C47.9805 21.5321 47.8707 21.1934 47.7516 20.8579C47.5697 20.3436 47.3439 19.8388 47.2122 19.312C47.1119 18.9168 47.1401 18.4904 47.0868 18.0827C47.0648 17.9103 47.0053 17.6218 46.9143 17.5998C46.6666 17.5402 46.3467 17.3991 46.1649 17.7629C46.1461 17.7974 46.0896 17.8256 46.0457 17.835C45.7133 17.8883 45.4091 17.8946 45.0736 18.1047C44.6722 18.3587 44.1172 18.4026 43.6218 18.4716C43.0134 18.5562 42.5587 18.9576 42.3988 19.5409C42.2922 19.9266 42.0727 20.2778 41.9065 20.6478C41.8657 20.7356 41.8563 20.8359 41.8124 20.9206C41.7372 21.0586 41.6431 21.184 41.5553 21.3157C41.5427 21.3345 41.5114 21.3471 41.5051 21.3659C41.3891 21.6951 41.2919 22.0307 41.157 22.3505C41.0755 22.5449 40.9595 22.7425 40.809 22.8836C40.417 23.2505 38.8899 23.354 38.407 23.0718C38.4007 23.0686 38.4007 23.0467 38.407 23.078C38.9338 21.968 39.4418 20.8924 39.9843 19.7478C39.7742 19.7478 39.6393 19.7322 39.5076 19.7478C38.9996 19.8137 38.686 19.5315 38.3098 19.2367C38.0024 18.9952 37.993 18.8102 38.0464 18.5029C38.5199 18.3806 39.0592 18.3681 39.4261 18.1141C39.84 17.8256 40.2822 17.9667 40.6585 17.8005C40.8497 17.7158 41.1006 17.5873 41.2103 17.2862C41.3044 17.0291 41.3734 16.6748 41.7152 16.5525C41.7403 16.5431 41.756 16.4929 41.7685 16.4615C41.8971 16.1354 42.0006 15.7968 42.1605 15.4863C42.3047 15.2072 42.5148 14.9626 42.6936 14.6992C42.7187 14.6616 42.7312 14.6083 42.7312 14.5613C42.7375 14.185 43.0448 13.9874 43.2204 13.7115C43.2455 13.6707 43.2831 13.6393 43.3082 13.5986C43.5277 13.2317 43.7503 12.8648 43.9636 12.4948C43.9855 12.454 43.973 12.3944 43.9949 12.3505C44.1235 12.084 44.2552 11.8175 44.39 11.554C44.459 11.4223 44.5374 11.2906 44.6221 11.1683C44.7036 11.0523 44.8792 10.9488 44.8792 10.8391C44.8792 10.3217 45.3652 10.143 45.5879 9.78547C45.845 9.37155 46.422 9.33392 46.8391 9.6036C46.908 9.6475 46.999 9.66631 47.0836 9.68199C47.5227 9.76039 47.7453 10.005 47.7641 10.4408C47.7672 10.5161 47.7641 10.5914 47.7767 10.6666C47.8613 11.184 47.9868 11.6952 48.0307 12.2157C48.0808 12.8272 48.062 13.4449 48.0683 14.0595C48.0714 14.4609 48.0683 14.8592 48.0683 15.3013C48.454 15.3295 48.7707 15.48 49.1062 15.1571C49.2536 15.0159 49.5797 15.0504 49.8243 15.0222C50.3292 14.9658 50.5424 14.7337 50.5894 14.232C50.6051 14.0564 50.7149 13.8933 50.7839 13.724C50.7964 13.6895 50.8278 13.6613 50.8309 13.6268C50.8748 13.2474 50.9626 12.8993 51.1319 12.5355C51.3044 12.1655 51.4142 11.8143 51.7497 11.5352C51.9441 11.3722 52.0225 11.0711 52.1667 10.8391C52.2608 10.6886 52.3518 10.5224 52.4835 10.4158C52.6873 10.2558 52.9695 10.1806 53.1482 9.99871C53.581 9.5597 54.2426 9.8576 54.6879 9.4813C54.8165 9.37155 55.3151 9.7353 55.3182 9.92972C55.3182 10.052 55.2994 10.1743 55.2868 10.3186C54.8353 10.2997 54.5625 10.5569 54.3022 10.8642C54.1862 11.0022 54.0231 11.115 53.8569 11.1872C53.0667 11.5352 52.5399 12.0871 52.4113 12.9683C51.9566 13.3665 52.1887 13.8777 52.1511 14.3606C52.2545 14.3606 52.3768 14.3825 52.3862 14.3574C52.5274 14.0125 52.8441 14.1411 53.0887 14.0783C53.2015 14.0501 53.3019 13.9655 53.4085 13.8996C53.4461 13.8745 53.4744 13.8212 53.5151 13.8118C54.067 13.6958 54.6221 13.5766 55.1771 13.4794C55.3966 13.4387 55.6255 13.4292 55.8513 13.4355C55.9704 13.4355 56.1899 13.5076 56.1868 13.539C56.1805 13.7115 56.1366 13.8933 56.0676 14.0533C56.0237 14.1536 55.914 14.2289 55.8042 14.3449C55.337 14.5456 54.8165 14.7776 54.2897 14.994C54.1768 15.041 54.0388 15.0191 53.9228 15.0567C53.7378 15.1226 53.5622 15.2104 53.3834 15.2919C53.3489 15.3076 53.3176 15.3264 53.2831 15.3358C52.819 15.4644 52.3549 15.5929 51.8249 15.7403L51.8344 15.7434ZM46.469 15.8846C46.469 14.9846 46.469 14.0344 46.469 13.0843C46.469 13.0341 46.4722 12.962 46.444 12.9401C46.1272 12.6986 46.2589 12.3474 46.2119 12.0432C46.19 11.9021 46.1398 11.7641 46.1022 11.623L45.9987 11.6324C45.8388 12.0307 45.7133 12.4477 45.5095 12.8209C45.2994 13.2097 44.9733 13.5359 44.9168 14.0031C44.9168 14.0282 44.9074 14.0595 44.8886 14.0689C44.5029 14.2884 44.5531 14.7525 44.3398 15.0787C44.1329 15.3922 44.0953 15.8156 43.973 16.1856C43.9573 16.2295 43.8695 16.2483 43.8381 16.2922C43.7911 16.3643 43.7597 16.449 43.7252 16.5305C43.7974 16.5619 43.8758 16.634 43.9416 16.6246C44.5719 16.5117 45.1991 16.3863 45.8262 16.264C45.8482 16.2608 45.8701 16.242 45.8889 16.2295C46.0739 16.1166 46.2621 16.0069 46.4722 15.8814L46.469 15.8846Z" fill="black"/>
<path d="M20.4387 16.0069C20.4481 16.0508 20.4732 16.0978 20.4606 16.1197C20.2976 16.3957 20.1282 16.6685 19.9558 16.9413C19.937 16.9695 19.8931 16.9852 19.8805 17.0166C19.7551 17.3145 19.6547 17.6218 19.5042 17.9071C19.3945 18.1172 19.222 18.2928 19.0778 18.4841C19.0182 18.5657 18.9523 18.644 18.9116 18.7319C18.6952 19.1803 18.6701 19.7039 18.3409 20.1179C18.2468 20.237 18.3001 20.4753 18.275 20.7732C18.507 20.6729 18.7077 20.6478 18.8081 20.5349C18.9774 20.3405 19.0746 20.0834 19.2189 19.8639C19.3067 19.7322 19.429 19.6193 19.545 19.5095C19.8931 19.1834 19.9558 18.6691 20.3572 18.3618C20.5328 18.227 20.539 17.9071 20.7836 17.7535C20.9655 17.6375 21.0784 17.418 21.2477 17.2769C21.5143 17.0542 21.7902 16.841 22.085 16.6622C22.2104 16.587 22.3985 16.5995 22.5585 16.5964C23.6121 16.5744 23.6403 16.5964 23.6309 17.6406C23.6278 18.3305 23.5964 19.0203 23.587 19.7102C23.587 19.82 23.6215 19.9893 23.6936 20.0269C23.8661 20.1147 23.8724 19.9423 23.9508 19.8294C24.0542 19.6789 24.2455 19.5566 24.4211 19.4907C24.8664 19.3339 25.064 18.9984 25.2301 18.5876C25.3023 18.4057 25.5719 18.3085 25.6566 18.1298C25.7758 17.8758 25.804 17.581 25.8887 17.2361C25.5719 17.2361 25.3399 17.2455 25.111 17.2298C25.0295 17.2235 24.9542 17.1514 24.8758 17.1107C24.9291 17.0417 24.9699 16.9445 25.0389 16.9131C25.3336 16.7845 25.6754 16.7281 25.9263 16.5462C26.2524 16.3079 26.6695 16.1511 26.7824 15.6588C26.8639 15.295 27.0834 14.9626 27.2402 14.6146C27.2778 14.5362 27.3593 14.4452 27.3405 14.3794C27.2245 13.931 27.6823 13.6833 27.7231 13.2756C27.7388 13.1345 28.0241 12.9432 28.2091 12.915C28.5792 12.8585 28.9711 12.8585 29.3443 12.915C29.5857 12.9526 29.5983 13.2192 29.407 13.3979C29.3474 13.4512 29.2878 13.5139 29.2533 13.586C29.0589 13.9655 28.8739 14.348 28.6858 14.7275C28.6701 14.7588 28.6544 14.7996 28.6544 14.8341C28.6544 14.8811 28.6701 14.9282 28.6952 15.0787C28.9147 14.9783 29.0966 14.8905 29.2816 14.8153C29.3945 14.7714 29.5168 14.7463 29.639 14.7181C30.0279 14.6303 30.4199 14.5487 30.7272 14.4797C30.8996 13.978 30.9529 13.5421 31.1787 13.2286C31.4797 12.8084 31.5895 12.3255 31.809 11.8927C31.9909 11.5321 31.9407 11.0555 32.3233 10.7952C32.3484 10.7764 32.3452 10.7074 32.3703 10.698C32.6619 10.5757 32.9536 10.4503 33.2515 10.3437C33.6152 10.2151 33.6999 10.5977 33.8786 10.7576C33.957 10.8266 33.8065 11.1464 33.772 11.3534C33.6999 11.7861 33.2295 12.0621 33.2985 12.5575C33.3079 12.6296 33.1982 12.7206 33.1354 12.799C33.1135 12.8272 33.0602 12.8335 33.0508 12.8617C32.9285 13.1909 32.8877 13.5892 32.6713 13.8369C32.339 14.2226 32.549 14.8027 32.1257 15.1257C32.11 15.1383 32.1038 15.1696 32.0975 15.1947C31.9783 15.687 31.8623 16.1825 31.7369 16.6716C31.7087 16.7783 31.6397 16.8755 31.5832 16.9727C31.5644 17.004 31.5048 17.0291 31.508 17.0479C31.5989 17.6092 31.0846 18.0169 31.1254 18.5625C31.1317 18.644 31.1975 18.7256 31.2352 18.804C31.3136 18.7632 31.3951 18.7287 31.4672 18.6817C31.5425 18.6315 31.6083 18.5688 31.6804 18.5123C31.9282 18.3211 32.1759 18.1329 32.4236 17.9416C32.4424 17.926 32.455 17.8915 32.4707 17.8915C33.0476 17.857 33.5243 17.2674 34.1483 17.6186C34.3741 18.0263 34.6187 18.4434 34.8382 18.8761C34.8977 18.9921 34.8758 19.1458 34.9009 19.2806C34.9354 19.4594 34.8444 19.7008 35.1298 19.7667C35.158 19.7729 35.1831 19.8733 35.1831 19.9297C35.1862 20.5663 35.1831 21.2028 35.1831 21.8927C34.8319 21.8927 34.487 21.9648 34.1985 21.8708C33.9758 21.7986 33.7877 21.5697 33.6058 21.3565C33.2577 20.9457 33.4992 20.3374 33.0508 20.005C33.0163 19.9799 33.0163 19.8795 33.0288 19.8231C33.1166 19.4813 32.7717 19.3966 32.6494 19.1803C32.6337 19.152 32.5051 19.1395 32.4801 19.1677C32.2323 19.4311 32.0348 19.7635 31.7463 19.9611C31.4609 20.1555 31.5048 20.5192 31.1975 20.7105C30.9216 20.883 30.7805 21.2593 30.5359 21.5007C30.2599 21.7736 29.9244 21.9774 29.6422 22.2439C29.4478 22.4258 29.2722 22.5951 28.9774 22.523C28.9774 21.8363 28.9429 21.1621 28.9899 20.4942C29.0182 20.1147 29.0997 19.6977 29.3004 19.3872C29.5293 19.0329 29.429 18.5751 29.6171 18.3211C29.915 17.9197 29.73 17.4587 29.9244 17.1263C30.1721 16.6999 30.1282 16.2577 30.2254 15.825C30.2537 15.6964 30.3916 15.5929 30.5171 15.4236C30.2223 15.3985 29.9871 15.2449 29.8586 15.5804C29.846 15.6118 29.777 15.64 29.7363 15.6431C29.338 15.6557 29.1185 15.9473 28.8614 16.1887C28.8112 16.2358 28.7297 16.2577 28.6607 16.2671C28.4349 16.3048 28.3502 16.449 28.2624 16.6497C28.1307 16.9445 27.9269 17.2016 27.7639 17.4838C27.7168 17.5622 27.7168 17.6688 27.6761 17.7535C27.6133 17.8883 27.5349 18.0138 27.4597 18.1423C27.4409 18.1737 27.397 18.1925 27.3907 18.2239C27.2778 18.6503 27.1775 19.0831 27.0552 19.5095C26.9987 19.7102 26.8984 19.9015 26.8294 20.099C26.7949 20.2025 26.7761 20.3154 26.7698 20.4283C26.7385 21.0178 26.729 21.6074 26.6757 22.1937C26.6632 22.3286 26.5284 22.4979 26.4029 22.5638C26.2336 22.6547 26.1427 22.5512 26.0643 22.3537C26.0078 22.2126 25.8322 22.015 25.7444 21.9648C25.4277 21.7798 25.5061 21.5133 25.4936 21.2718C25.4685 20.7576 25.4841 20.2433 25.4685 19.729C25.4685 19.635 25.3932 19.544 25.3524 19.4531C25.296 19.5158 25.2427 19.5816 25.18 19.6381C25.0295 19.7698 24.8883 19.9673 24.7127 20.005C24.3208 20.0959 24.1232 20.4001 23.8379 20.607C23.38 20.9394 22.7968 21.1715 22.201 20.9802C22.0066 20.9175 21.762 20.6478 21.7432 20.4534C21.6805 19.82 21.7149 19.1771 21.6961 18.5406C21.693 18.4214 21.624 18.3054 21.5864 18.1862C21.5268 18.2615 21.4766 18.3462 21.4108 18.412C21.0313 18.8008 20.7773 19.2806 20.4575 19.7102C20.1533 20.1147 19.8617 20.5286 19.5513 20.9269C19.4384 21.0711 19.2879 21.1903 19.1436 21.3032C18.9711 21.438 18.7015 21.5227 18.6262 21.6952C18.46 22.0746 18.0649 22.0119 17.8046 22.1875C17.5444 22.3631 17.1775 22.0119 16.9799 21.7516C16.5785 21.2217 16.7322 20.6384 16.7259 20.0771C16.7259 19.8639 16.867 19.6506 16.9454 19.4374C16.958 19.4029 16.9925 19.3684 16.9893 19.3402C16.8827 18.8416 17.2747 18.4967 17.3938 18.0639C17.4785 17.766 17.7106 17.5089 17.8768 17.2329C17.9018 17.1922 17.9363 17.1483 17.9395 17.1044C17.9677 16.6027 18.3158 16.4678 18.7015 16.2201C19.2471 15.8689 19.7614 16.0602 20.285 15.988C20.3321 15.9818 20.3822 16.0006 20.4324 16.0069H20.4387Z" fill="black"/>
<path d="M12.656 20.8453C12.656 20.422 12.6528 19.9234 12.6591 19.4217C12.6591 19.3402 12.6779 19.221 12.7344 19.1865C13.0887 18.9639 12.8974 18.6252 12.9225 18.3367C12.9256 18.3054 12.7626 18.2113 12.7469 18.227C12.496 18.4496 12.2514 18.6785 12.0194 18.9168C11.8657 19.0768 11.7372 19.2586 11.5867 19.4217C11.4205 19.6036 11.2386 19.7698 11.0661 19.9485C10.9532 20.0645 10.8498 20.1931 10.7306 20.3028C10.348 20.654 9.94979 20.9896 9.57663 21.3471C9.42925 21.4882 9.33204 21.6857 9.1972 21.8425C9.08431 21.9742 8.95575 22.0965 8.82404 22.2125C8.43521 22.5543 7.96798 22.8397 7.67008 23.2473C7.36591 23.6613 6.86732 23.7773 6.56629 24.1567C6.38755 24.3793 6.17431 24.5738 5.90464 24.3354C5.63496 24.094 5.87955 23.9027 6.03948 23.724C6.27466 23.4606 6.34051 23.0968 6.62587 22.8491C6.82028 22.6829 6.87673 22.363 7.02097 22.1279C7.12759 21.9554 7.2687 21.8049 7.40981 21.6575C7.75161 21.2937 8.19375 21.0115 8.2941 20.4596C8.31605 20.3342 8.45089 20.1743 8.56691 20.1366C8.9432 20.0143 8.73311 19.4687 9.14076 19.3935C9.15016 19.3935 9.16584 19.3747 9.16271 19.3652C9.12821 18.9168 9.61739 18.5876 9.46061 18.1172C9.37594 17.8632 9.26932 17.5653 8.95261 17.5496C8.41953 17.5214 7.88331 17.5528 7.35023 17.5528C6.79833 17.5528 6.24644 17.5622 5.69768 17.5434C5.1301 17.5245 4.81025 17.2298 4.7883 16.6685C4.76949 16.1323 4.7444 15.5835 4.83847 15.0598C4.90119 14.7212 5.17087 14.4201 5.35274 14.1034C5.47817 13.8902 5.59733 13.6707 5.74471 13.4763C5.91718 13.2442 6.12414 13.0372 6.30602 12.8146C6.42204 12.6735 6.58196 12.5261 6.61332 12.3631C6.7074 11.8519 7.1903 11.6795 7.45685 11.3251C7.6983 11.0053 7.94916 10.6697 8.26274 10.4251C8.58572 10.1712 8.79582 9.81681 9.22856 9.64121C9.63934 9.47501 10.0219 9.37153 10.4296 9.45306C10.7337 9.51578 11.0254 9.6757 11.2919 9.84503C11.3766 9.89834 11.3515 10.121 11.364 10.1806C11.132 10.4408 10.9532 10.6415 10.7714 10.8422C10.693 10.9269 10.5926 10.999 10.5268 11.0899C10.279 11.4349 10.094 11.8519 9.78045 12.1216C9.46688 12.3913 9.43866 12.7989 9.15644 13.0623C8.88676 13.3101 8.6453 13.586 8.39444 13.8526C8.35368 13.8965 8.34113 13.9592 8.30978 14.0125C8.16553 14.2571 8.01501 14.4985 7.87077 14.7431C7.77983 14.8968 7.69516 15.0536 7.60109 15.2041C7.49761 15.364 7.41922 15.5898 7.2687 15.665C6.84223 15.8783 7.05233 16.2138 7.01157 16.5587C7.38786 16.5274 7.70144 16.5368 8.06519 16.4239C8.62649 16.2483 9.27559 16.1291 9.85258 16.5148C9.92784 16.565 10.0439 16.5838 10.1379 16.5713C10.6804 16.5054 11.0316 16.8629 11.295 17.2172C11.455 17.4305 11.3891 17.813 11.4173 18.1203C11.4361 18.3273 11.4487 18.5343 11.4644 18.7381C11.8689 18.3994 12.2295 18.1141 12.565 17.8099C12.6999 17.6876 12.8127 17.5245 12.8911 17.3615C13.0887 16.9476 13.4524 16.7688 13.8005 16.5117C14.1674 16.242 14.4873 16.3079 14.8228 16.2985C15.1803 16.289 15.5471 16.2263 15.8952 16.496C16.0677 16.6308 16.4001 16.565 16.6823 16.5901C16.6823 17.258 16.7858 17.9541 16.6384 18.5907C16.5631 18.92 16.4377 19.2586 16.3719 19.6098C16.3499 19.729 16.2057 19.8325 16.099 19.9234C15.7008 20.2746 15.5879 20.8861 14.9576 21.0554C14.7318 21.115 14.5186 21.3188 14.2395 21.3094C13.6908 21.2906 13.0856 21.4944 12.6622 20.8422L12.656 20.8453ZM15.105 17.8507C15.0078 17.8758 14.8918 17.8695 14.8416 17.9228C14.5656 18.2207 14.4653 18.5782 14.4967 18.9858C14.5123 19.1708 14.4716 19.3245 14.3179 19.5032C14.1799 19.6631 14.2709 20.0175 14.2615 20.284C14.3869 20.2182 14.5123 20.1492 14.6409 20.0833C14.6629 20.0739 14.7036 20.0833 14.713 20.0677C14.8479 19.8795 15.0705 19.6976 15.0893 19.4938C15.1426 18.967 15.1081 18.4308 15.1081 17.8507H15.105Z" fill="black"/>
<path d="M69.1313 16.264C69.0059 16.7563 69.2411 17.2047 68.8334 17.5998C68.686 17.7409 68.7864 18.1298 68.755 18.4026C68.7237 18.6754 68.686 18.9294 68.57 19.2053C68.4289 19.5409 68.3725 19.9893 68.6578 20.3969C68.7958 20.5945 68.7362 20.9457 68.7205 21.2248C68.7205 21.2499 68.3474 21.3377 68.2502 21.2624C67.9805 21.0586 67.7641 20.7826 67.5289 20.5349C67.4694 20.4753 67.4067 20.4189 67.3471 20.3593C67.2969 20.4157 67.2561 20.4785 67.1997 20.5286C67.0053 20.6917 66.8077 20.8548 66.6039 21.0053C66.4847 21.0899 66.353 21.1589 66.2213 21.2216C66.1461 21.2593 66.0614 21.2906 65.9799 21.2969C65.729 21.3126 65.4781 21.322 65.2273 21.322C64.7067 21.3251 64.4841 21.1276 64.39 20.6102C64.3744 20.5192 64.2928 20.4408 64.2427 20.353C64.1831 20.4283 64.1235 20.5004 64.0608 20.5757C63.951 20.7042 63.8538 20.8453 63.7315 20.9614C63.4085 21.2718 63.0824 21.5791 62.7438 21.8739C62.6779 21.9303 62.5556 21.9335 62.4584 21.9366C62.057 21.9429 61.6556 21.9585 61.2574 21.9366C61.1257 21.9272 61.0034 21.8018 60.8717 21.7453C60.718 21.6763 60.555 21.623 60.4295 21.576C60.0156 21.0304 59.956 20.4095 59.9874 19.7604C59.9905 19.6694 59.8871 19.5691 59.8338 19.475C59.7867 19.5597 59.7428 19.6506 59.6895 19.7321C59.5484 19.9328 59.4136 20.1398 59.2568 20.3279C59.0968 20.5224 58.9181 20.7042 58.7362 20.883C58.6265 20.9927 58.5105 21.1056 58.3756 21.1809C58.0746 21.3408 57.7735 21.5164 57.4506 21.6136C57.1433 21.7077 56.9865 21.5164 56.7983 21.2405C56.4597 20.745 56.4628 20.1994 56.5882 19.7196C56.698 19.3025 56.7544 18.8134 57.1276 18.4622C57.3157 18.2834 57.3189 17.8914 57.5164 17.7441C57.8206 17.5183 57.6669 17.0573 58.0464 16.9037C58.1404 16.866 58.1718 16.634 58.2565 16.6152C58.8209 16.4992 59.3508 16.126 59.9874 16.358C59.9498 16.5776 60.1379 16.8786 59.7491 16.9852C59.7397 16.9852 59.724 17.004 59.7271 17.0103C59.793 17.3709 59.4606 17.5559 59.3571 17.8444C59.2819 18.0576 59.1564 18.2615 59.031 18.4496C58.8523 18.7193 58.6359 18.9607 58.4697 19.2367C58.3976 19.3559 58.4289 19.5315 58.3788 19.6726C58.3505 19.751 58.2565 19.8105 58.1342 19.9391C58.4038 20.0018 58.5512 20.2119 58.7707 19.8513C58.9495 19.5565 59.2913 19.3621 59.5547 19.1144C59.6832 18.9952 59.793 18.8573 59.909 18.7256C60.1567 18.4527 60.3637 18.1235 60.6585 17.9197C61.041 17.6563 61.295 17.2737 61.6431 16.9977C61.9285 16.7688 62.4114 16.7845 62.6904 16.5525C63.2173 16.1135 63.8005 16.3518 64.3524 16.2891C64.4684 16.2765 64.597 16.3518 64.7193 16.3894C64.6378 16.4678 64.5437 16.5399 64.4778 16.6309C64.2427 16.9695 63.835 17.0479 63.5277 17.2737C63.4054 17.3615 63.2988 17.4775 63.211 17.5967C63.0667 17.7974 62.9413 18.0106 62.8096 18.2207C62.6309 18.5061 62.4553 18.7945 62.2797 19.083C62.242 19.1426 62.2013 19.2053 62.1856 19.2743C62.1385 19.4656 62.1762 19.66 61.9441 19.8105C61.8406 19.8764 61.8783 20.237 61.9253 20.4502C62.0068 20.8297 62.311 21.0743 62.5932 20.977C62.7939 20.9081 62.9695 20.7293 63.1263 20.5694C63.2737 20.4251 63.3772 20.237 63.5089 20.0771C63.5904 19.9799 63.6845 19.8889 63.7817 19.8074C63.9416 19.6757 64.1141 19.5565 64.274 19.4217C64.3242 19.3809 64.343 19.3025 64.3806 19.2461C64.5625 18.9827 64.7569 18.7256 64.9294 18.459C65.0768 18.2301 65.1959 17.9855 65.3402 17.7566C65.4374 17.5998 65.5409 17.4399 65.6694 17.3145C65.9328 17.0542 66.2809 16.8566 66.4816 16.5556C66.7575 16.1385 67.1307 16.2953 67.4694 16.2765C67.993 16.2483 68.5198 16.2702 69.1376 16.2702L69.1313 16.264ZM67.8833 17.2894C67.5697 17.2706 67.4098 17.2612 67.2405 17.2517C67.2216 17.3458 67.2154 17.4744 67.1903 17.4807C66.7638 17.5528 66.9426 18.0357 66.6478 18.2552C66.4032 18.4402 66.3812 18.92 66.2527 19.2649C66.19 19.428 66.0928 19.5785 66.0269 19.7416C65.9924 19.8262 65.9611 19.9422 65.9924 20.0112C66.0175 20.0583 66.1774 20.0928 66.237 20.0614C66.4251 19.9611 66.6258 19.8513 66.7607 19.6945C66.9363 19.4876 67.0805 19.2461 67.1934 18.9984C67.3502 18.6566 67.46 18.2928 67.5979 17.9448C67.6732 17.7503 67.7673 17.5622 67.8864 17.2956L67.8833 17.2894Z" fill="black"/>
<path d="M53.932 21.5352C53.7376 21.6481 53.5526 21.8018 53.3456 21.8613C53.1606 21.9147 52.985 21.9523 52.7498 21.7767C52.2826 21.4317 52.4018 20.9645 52.5303 20.6478C52.7216 20.1868 52.6181 19.6632 52.822 19.2775C53.0885 18.7757 53.0101 18.2677 53.1355 17.7754C53.2045 17.5058 53.3739 17.2643 53.493 17.0228C53.7941 16.9162 54.1076 16.8002 54.4243 16.6936C54.4714 16.6779 54.5811 16.7093 54.5843 16.7249C54.5905 16.7939 54.5749 16.8661 54.5498 16.9319C54.4933 17.0793 54.4212 17.2204 54.3742 17.3709C54.3616 17.4085 54.4181 17.4807 54.462 17.512C54.4871 17.5308 54.5749 17.512 54.5905 17.4869C54.8132 17.1483 55.2334 17.0793 55.4968 16.8566C56.0549 16.3894 56.6319 16.6685 57.1932 16.6121C57.2716 16.6027 57.3563 16.6873 57.4378 16.7281C57.3626 16.7908 57.2936 16.8567 57.2121 16.91C56.9643 17.0793 56.7135 17.2424 56.4595 17.4054C56.3873 17.4524 56.3152 17.5089 56.2337 17.5308C55.9358 17.6124 55.7727 17.8476 55.5909 18.0671C55.5062 18.1705 55.387 18.2458 55.3055 18.3461C55.1048 18.5939 54.9167 18.851 54.7254 19.1019C54.7097 19.1207 54.6752 19.1364 54.6721 19.152C54.6564 19.6349 54.2111 19.9987 54.3115 20.5224C54.346 20.7074 54.3679 20.9269 54.1045 21.0649C54.0073 21.115 54.0355 21.4067 54.0073 21.5885C53.9822 21.5697 53.954 21.5509 53.9289 21.5321L53.932 21.5352Z" fill="black"/>
<path d="M59.0811 15.0348V14.1568C59.5012 13.9435 59.9058 13.746 60.304 13.5327C60.489 13.4355 60.8841 13.677 60.9312 13.9341C61.044 14.5676 60.7305 14.9877 60.0876 15.0316C59.7709 15.0536 59.4479 15.0348 59.0811 15.0348Z" fill="black"/>
</svg>
