<svg width="97" height="46" viewBox="0 0 97 46" fill="none" xmlns="http://www.w3.org/2000/svg">
<path d="M37.2147 2.39085C40.7111 2.39085 43.5495 5.2305 43.5495 8.73339C43.5495 12.2385 40.7111 15.0781 37.2147 15.0781C33.7139 15.0781 30.8799 12.2385 30.8799 8.73339C30.8799 5.2305 33.7139 2.39085 37.2147 2.39085ZM37.2147 16.8966C41.7157 16.8966 45.3657 13.2421 45.3657 8.73339C45.3657 4.22685 41.7157 0.572426 37.2147 0.572426C32.7115 0.572426 29.0615 4.22685 29.0615 8.73339C29.0615 13.2421 32.7115 16.8966 37.2147 16.8966Z" fill="black"/>
<path d="M16.775 22.9525C16.775 19.5045 19.5673 16.7088 23.0132 16.7088V14.9233C18.5802 14.9233 14.9873 18.514 14.9873 22.9525C14.9873 27.391 18.5802 30.9883 23.0132 30.9883C27.4463 30.9883 31.0304 27.391 31.0304 22.9525H29.2625C29.2625 26.4027 26.457 29.1984 23.0132 29.1984C19.5673 29.1984 16.775 26.4027 16.775 22.9525Z" fill="black"/>
<path d="M11.4326 22.9521C11.4326 29.3561 16.618 34.5478 23.0142 34.5478C29.4082 34.5478 34.6067 29.3561 34.6067 22.9521H32.8322C32.8322 28.3722 28.4255 32.7667 23.0142 32.7667C17.5985 32.7667 13.2115 28.3722 13.2115 22.9521C13.2115 17.5319 17.6007 13.1396 23.0142 13.1396V11.3563C16.618 11.3563 11.4326 16.548 11.4326 22.9521Z" fill="black"/>
<path d="M7.838 22.9521C7.838 31.3436 14.6334 38.1452 23.0125 38.1452C31.3938 38.1452 38.1716 31.3436 38.1716 22.9521H36.3839C36.3839 30.34 30.3914 36.3289 23.0125 36.3289C15.6336 36.3289 9.6542 30.34 9.6542 22.9521C9.6542 15.5663 15.6336 9.57737 23.0125 9.57737L23.0146 7.77651C14.6333 7.77651 7.838 14.5605 7.838 22.9521Z" fill="black"/>
<path d="M23.0137 4.15459C12.6452 4.15459 4.23975 12.5703 4.23975 22.9516C4.23975 33.3329 12.6452 41.7486 23.0137 41.7486C33.3823 41.7486 41.7746 33.3351 41.7746 22.9538L39.9913 22.9517C39.9913 32.3338 32.3821 39.9369 23.0137 39.9369C13.6432 39.9369 6.04937 32.3338 6.04937 22.9517C6.04937 13.5719 13.6432 5.96654 23.0137 5.96654V4.15459Z" fill="black"/>
<path d="M23.0146 43.5477C11.6524 43.5477 2.442 34.326 2.442 22.952C2.442 11.5759 11.6524 2.35632 23.0146 2.35632V0.573036C10.6697 0.573036 0.663086 10.592 0.663086 22.952C0.663086 35.3121 10.6697 45.331 23.0146 45.331C35.3595 45.331 45.3662 35.3121 45.3662 22.952H43.5982C43.5982 34.326 34.3747 43.5477 23.0146 43.5477Z" fill="black"/>
<path d="M55.8257 20.1155C56.7184 20.1155 57.8152 19.9156 58.414 19.6345V14.7876H55.3673V16.3117H56.5781V18.4881C56.3653 18.5255 56.0429 18.5408 55.7796 18.5408C54.4306 18.5408 53.3844 17.8271 53.3844 15.5365C53.3844 13.2832 54.4416 12.5673 56.0121 12.5673C56.6702 12.5673 57.5366 12.7078 58.085 12.9318L58.2736 11.3923C57.6638 11.1463 56.6702 10.9926 55.909 10.9926C53.1979 10.9926 51.4497 12.4135 51.4497 15.5606C51.4497 18.6375 53.0685 20.1155 55.8257 20.1155Z" fill="black"/>
<path d="M86.5422 19.94H88.4285V11.1355H86.5422V14.6121H83.7148V11.1355H81.8262V19.94H83.7148V16.1823H86.5422V19.94Z" fill="black"/>
<path d="M78.8533 19.94V12.719H80.7638V11.1355H75.0322V12.719H76.9427V19.94H78.8533Z" fill="black"/>
<path d="M70.5888 16.1918H73.6926V14.6391H70.5888V12.7065H74.2453V11.134H68.7002V19.9407H74.3681V18.3682H70.5888V16.1918Z" fill="black"/>
<path d="M63.5231 12.4434C64.7208 12.4434 65.2955 13.1945 65.2955 15.5312C65.2955 17.8569 64.7208 18.6432 63.5363 18.6432C62.3387 18.6432 61.753 17.8679 61.753 15.5312C61.753 13.2054 62.3387 12.4434 63.5231 12.4434ZM63.5231 20.1981C66.0215 20.1981 67.2279 18.854 67.2279 15.5312C67.2279 12.2787 66.0215 10.8775 63.5231 10.8775C61.0248 10.8775 59.8184 12.2787 59.8184 15.5312C59.8184 18.7837 61.073 20.1981 63.5231 20.1981Z" fill="black"/>
<path d="M95.9663 18.3691H92.1869V16.1927H95.2907V14.6378H92.1869V12.7051H95.8413V11.1349H90.2983V19.9393H95.9663V18.3691Z" fill="black"/>
<path d="M68.4448 24.4911H70.193V31.4596H72.0377V24.4911H73.7859V22.9604H68.4448V24.4911Z" fill="black"/>
<path d="M53.9462 31.4596V22.9626H52.084V31.4596H53.9462Z" fill="black"/>
<path d="M88.1253 28.5031C88.1253 29.4892 87.7875 30.0338 86.8706 30.0338C85.9603 30.0338 85.6028 29.4782 85.6028 28.5031V22.9621H83.7559V28.5712C83.7559 30.6114 84.8043 31.6063 86.8662 31.6063C88.904 31.6063 89.9524 30.6114 89.9524 28.5712V22.9621H88.1253V28.5031Z" fill="black"/>
<path d="M64.8845 25.2264C64.8845 24.7872 65.1104 24.3501 66.0339 24.3501C66.613 24.3501 67.1262 24.5061 67.6395 24.7301L67.8435 23.2455C67.2557 22.9731 66.6459 22.826 65.876 22.826C63.9172 22.826 63.0727 23.9592 63.0727 25.3977C63.0727 28.1319 66.4463 27.6092 66.4463 29.1268C66.4463 29.711 66.08 30.1041 65.3079 30.1041C64.5489 30.1041 63.9062 29.8471 63.2745 29.4892L63.0376 31.0067C63.6934 31.3911 64.505 31.6063 65.389 31.6063C67.2228 31.6063 68.2603 30.5873 68.2603 28.9226C68.2603 26.0983 64.8845 26.5397 64.8845 25.2264Z" fill="black"/>
<path d="M60.0932 27.9226L57.4829 22.9615H55.7983V31.4607H57.4829V26.4995L60.0932 31.4607H61.7778V22.9615H60.0932V27.9226Z" fill="black"/>
<path d="M90.812 22.9613V24.492H92.5602V31.4605H94.4049V24.492H96.1531V22.9613H90.812Z" fill="black"/>
<path d="M76.5918 31.4596V22.9626H74.7295V31.4596H76.5918Z" fill="black"/>
<path d="M77.5352 24.4911H79.2834V31.4596H81.1281V24.4911H82.8763V22.9604H77.5352V24.4911Z" fill="black"/>
</svg>
