<svg width="104" height="43" viewBox="0 0 104 43" fill="none" xmlns="http://www.w3.org/2000/svg">
<path d="M91.0307 2.76298C91.287 2.74493 91.5148 2.69222 91.7152 2.6045C91.9145 2.51785 92.0751 2.38427 92.1928 2.20124C92.3123 2.02001 92.3719 1.76585 92.3719 1.44165C92.3719 1.16764 92.3174 0.9485 92.2127 0.784958C92.1055 0.62286 91.9686 0.497948 91.7993 0.409498C91.6307 0.323214 91.4369 0.262563 91.2177 0.23296C91.1235 0.218519 91.03 0.209493 90.9372 0.201912H88.8838V2.79042H90.2152C90.5029 2.79042 90.7744 2.78176 91.0307 2.76298ZM86.2119 7.51688C86.7307 8.05444 87.3437 8.47575 88.0502 8.78262C88.756 9.08912 89.5217 9.24147 90.3455 9.24147C91.1596 9.24147 91.9148 9.08876 92.6152 8.78262C93.3156 8.47575 93.925 8.05444 94.4441 7.51688C94.9621 6.98005 95.369 6.34502 95.6632 5.61395C95.9564 4.88181 96.1044 4.08504 96.1044 3.22184C96.1044 2.38536 95.9564 1.60375 95.6632 0.878462C95.5672 0.641272 95.4542 0.418524 95.334 0.201912H93.3387C93.5423 0.547768 93.647 0.978103 93.647 1.49725C93.647 2.23481 93.4408 2.77634 93.0275 3.11859C92.6152 3.46264 92.1036 3.66625 91.4899 3.72907L93.8347 7.34793H92.4647L90.2343 3.82257H88.8841V7.34793H87.6101V0.201912H85.322C85.2022 0.418524 85.0892 0.641272 84.9935 0.878823C84.7004 1.60375 84.5527 2.38536 84.5527 3.2222C84.5527 4.08576 84.7 4.88253 84.9935 5.61431C85.2867 6.34502 85.6935 6.98005 86.2119 7.51688ZM36.8005 14.2268C35.0232 14.2268 34.0817 15.6149 34.0619 17.0359H39.7749C39.7749 15.3608 38.715 14.2268 36.8005 14.2268ZM96.6849 0.201912C96.7279 0.290362 96.7755 0.37484 96.8156 0.465817C97.19 1.31638 97.3784 2.23517 97.3784 3.22184C97.3784 4.23666 97.1903 5.1699 96.8156 6.02732C96.4412 6.88113 95.9354 7.62555 95.2968 8.25661C94.6589 8.88804 93.9148 9.37974 93.0657 9.72921C92.2159 10.079 91.3094 10.2545 90.3452 10.2545C89.3831 10.2545 88.4733 10.0794 87.6184 9.72921C86.7621 9.38011 86.0119 8.88804 85.3675 8.25661C84.7238 7.62519 84.2148 6.88077 83.8404 6.02732C83.4653 5.1699 83.2769 4.23666 83.2769 3.22184C83.2769 2.23517 83.465 1.31638 83.8404 0.465817C83.8805 0.37484 83.9285 0.290362 83.9715 0.201912H0.743652L10.5838 42.148C31.2434 28.8614 51.0991 41.63 51.8977 42.117H51.8998C51.9017 42.1155 51.9038 42.1144 51.906 42.1134H51.9161C51.9161 42.1134 51.9204 42.1155 51.9219 42.117H51.9251C52.7222 41.63 72.579 28.8614 93.2383 42.148L103.078 0.201912H96.6849ZM27.7839 25.6679H14.3336V11.6581H20.3806V21.8558H27.7839V25.6679ZM45.8746 19.8554H34.0723C34.0723 21.6789 35.616 23.0544 37.6734 23.0544C38.8969 23.0544 40.0113 22.6497 40.7987 21.5548H45.5052C43.967 25.0895 40.9832 26.0946 36.9153 26.0946C31.625 26.0946 27.8846 23.2299 27.8846 18.6922C27.8846 13.8459 31.5691 11.2892 36.9153 11.2892C42.8966 11.2892 45.8955 15.1651 45.8955 18.8959C45.8951 19.207 45.9193 19.5179 45.8746 19.8554ZM56.8226 25.6902H51.7266L44.1179 11.6466H50.9843L55.3504 20.1832L55.4706 20.4407L55.58 20.1832L59.6634 11.6462H63.7865L56.8226 25.6902ZM70.2609 25.6628H64.4284V11.6202H70.2609V25.6628ZM74.6426 13.3802L72.8855 15.2914H72.1548L72.9602 13.2076H71.3505V10.4289H74.6426V13.3802ZM82.2971 26.0628C76.0646 26.0628 74.9303 22.462 74.9303 21.5699H79.4433C79.4433 22.0941 80.1534 22.7227 80.7527 22.9783C81.2458 23.1895 81.7953 23.231 82.3094 23.231C83.5801 23.231 84.6227 22.9227 84.6227 22.1847C84.6227 21.2862 83.5552 21.0869 82.3776 20.9179C79.1729 20.4558 74.6815 19.9175 74.6815 16.3326C74.6815 12.9889 78.3325 11.287 82.2083 11.287C88.413 11.287 90.0578 14.7243 90.0578 15.7196H85.4711C85.4711 15.4225 85.2448 14.8521 84.6195 14.5257C84.1556 14.2835 83.4736 14.0874 82.8144 14.0874C81.1007 14.0874 80.1364 14.4441 80.1364 15.2293C80.1364 15.8709 81.0058 16.1889 82.2538 16.403C85.5112 16.9622 90.5134 17.1557 90.5134 21.1201C90.513 23.1339 88.7693 26.0628 82.2971 26.0628Z" fill="black"/>
</svg>
