<svg width="134" height="33" viewBox="0 0 134 33" fill="none" xmlns="http://www.w3.org/2000/svg">
<path fill-rule="evenodd" clip-rule="evenodd" d="M35.9142 6.57093C35.8285 6.68669 35.6281 6.93047 35.48 7.03621C35.3097 7.16422 35.057 7.2388 34.8343 7.2388H33.5652C33.3426 7.2388 33.0888 7.16422 32.9196 7.03844C32.7715 6.93158 32.5388 6.65664 32.4542 6.54087C32.4019 6.45627 32.3273 6.34941 32.3062 6.29598L32.855 6.10675C32.9396 6.28485 33.1834 6.54978 33.3526 6.64551C33.4049 6.67667 33.4695 6.68669 33.5419 6.68669H34.8221C34.8967 6.68669 34.949 6.67556 35.0024 6.64439C35.1717 6.54755 35.3732 6.34719 35.4678 6.16797C35.49 6.12567 35.4989 6.06222 35.4989 5.98987V5.60807C35.4989 5.39435 35.3208 5.23628 35.0982 5.21513L33.3526 5.08823C32.8338 5.04594 32.4319 4.64298 32.4319 4.12649V3.80813C32.4319 3.59664 32.4854 3.40518 32.5911 3.24711C32.6757 3.13024 32.8761 2.88646 33.0253 2.78183C33.1923 2.65382 33.4483 2.58146 33.671 2.58146H34.7698C34.9924 2.58146 35.2451 2.65382 35.4155 2.78183C35.5624 2.88646 35.8051 3.17142 35.8908 3.28941C35.9543 3.37401 36.0177 3.46751 36.0389 3.52317L35.4889 3.7124C35.4032 3.53208 35.1494 3.26715 34.9802 3.17253C34.9279 3.14137 34.8744 3.13024 34.7998 3.13024H33.6799C33.6064 3.13024 33.543 3.14137 33.4906 3.17253C33.3203 3.26826 33.13 3.45861 33.0342 3.63782C33.0142 3.68235 33.0042 3.74468 33.0042 3.81815V4.13539C33.0042 4.34689 33.1823 4.50607 33.4049 4.52722L35.1505 4.66413C35.6682 4.70643 36.07 5.10716 36.07 5.62588V6.00657C36.07 6.21806 36.0188 6.4073 35.9142 6.56647M40.4507 7.0351C40.2803 7.16311 40.0388 7.23769 39.805 7.23769H38.7251C38.4936 7.23769 38.2398 7.16311 38.0705 7.03733C37.9225 6.93047 37.6787 6.64439 37.5941 6.52863C37.4872 6.36945 37.4449 6.1791 37.4449 5.96761V3.85488C37.4449 3.64339 37.4872 3.45193 37.593 3.29387C37.6765 3.17699 37.9203 2.89091 38.0683 2.78628C38.2375 2.65827 38.4914 2.58591 38.7251 2.58591H39.7716C40.0031 2.58591 40.2469 2.65827 40.4173 2.78628C40.6811 2.97551 40.9027 3.31502 41.0407 3.53653L40.4896 3.71686C40.405 3.53653 40.1512 3.2716 39.9831 3.17699C39.9297 3.14582 39.8662 3.13469 39.7916 3.13469H38.734C38.6606 3.13469 38.5971 3.14582 38.5448 3.17699C38.3745 3.27272 38.1418 3.51538 38.0472 3.69571C38.0249 3.73689 38.016 3.80034 38.016 3.87381V5.94646C38.016 6.02104 38.0271 6.08337 38.0472 6.12679C38.1418 6.30711 38.3644 6.54978 38.5337 6.64439C38.586 6.67556 38.6494 6.68558 38.7229 6.68558H39.825C39.8974 6.68558 39.962 6.67445 40.0143 6.64328C40.1835 6.54644 40.4373 6.28262 40.5108 6.12456L40.5219 6.1023L41.073 6.29376C40.9461 6.52751 40.7034 6.85366 40.4496 7.03399M45.3044 7.18426V3.87381C45.3044 3.80034 45.2933 3.73689 45.271 3.69571C45.1775 3.51427 44.9449 3.27272 44.7756 3.17587C44.7222 3.14471 44.6587 3.13358 44.5864 3.13358H43.8661C43.8127 3.13358 43.7492 3.14471 43.7069 3.16474C43.5288 3.26047 43.0612 3.54655 42.9143 3.81036C42.9032 3.82149 42.9032 3.84375 42.892 3.85488V7.18315H42.322V0.838298H42.8931V3.18701C43.029 3.03896 43.177 2.90093 43.305 2.80631C43.452 2.70057 43.6535 2.58369 43.8327 2.58369H44.5942C44.8168 2.58369 45.0706 2.65827 45.2399 2.78628C45.3879 2.89091 45.6295 3.17587 45.7152 3.29387C45.821 3.45193 45.8744 3.64228 45.8744 3.85488V7.18537H45.3033M52.0719 7.18426H51.2792L50.1582 3.30277L49.0783 7.18426H48.2879L46.9621 2.63823H47.5766L48.6564 6.57093H48.7188L49.7541 2.63712H50.5701L51.6499 6.56981H51.7123L52.7476 2.63601H53.351L52.0708 7.18203M54.9285 3.87381V4.61404H57.4132V3.87381C57.4132 3.80034 57.4132 3.73689 57.391 3.69571C57.2975 3.51427 57.0537 3.27272 56.8844 3.17587C56.8321 3.14471 56.7687 3.13358 56.6952 3.13358H55.6487C55.573 3.13358 55.5207 3.14471 55.4673 3.17587C55.2981 3.2716 55.0554 3.51427 54.9596 3.69459C54.9374 3.73578 54.9285 3.79923 54.9285 3.87269V3.87381ZM57.4333 6.10564L57.9955 6.29487C57.9532 6.38058 57.9108 6.44403 57.8474 6.52863C57.7628 6.64439 57.519 6.92935 57.3709 7.03621C57.2017 7.16422 56.959 7.2388 56.7252 7.2388H55.6476C55.4138 7.2388 55.1611 7.16422 54.9908 7.03844C54.8439 6.93158 54.6012 6.64551 54.5154 6.52974C54.4086 6.37056 54.3563 6.18022 54.3563 5.96872V3.85488C54.3563 3.64339 54.4086 3.45193 54.5143 3.29387C54.5978 3.17699 54.8416 2.89091 54.9897 2.78628C55.1589 2.65827 55.4127 2.58591 55.6465 2.58591H56.7041C56.9356 2.58591 57.1895 2.65827 57.3587 2.78628C57.5067 2.89091 57.7505 3.17587 57.834 3.29387C57.9398 3.45193 57.9832 3.64228 57.9832 3.85488V5.16504H54.9285V5.94646C54.9285 6.02104 54.9396 6.08337 54.9596 6.12679C55.0554 6.30711 55.288 6.54978 55.4573 6.64439C55.5096 6.67556 55.563 6.68558 55.6354 6.68558H56.7486C56.821 6.68558 56.8844 6.67445 56.9379 6.64328C57.1071 6.54644 57.3386 6.28262 57.4244 6.12456L57.4355 6.1023L57.4333 6.10564ZM59.4538 7.18426H60.0249V2.63823H59.4538V7.18426ZM59.4115 1.46276H60.0683V0.787094H59.4115V1.46276ZM61.5167 7.18426V6.67667L63.9068 3.18701H61.4321V2.63823H64.6159V3.15584L62.2358 6.63437H64.7317V7.18426H61.5167ZM66.573 3.87381V4.61404H69.0556V3.87381C69.0556 3.80034 69.0556 3.73689 69.0355 3.69571C68.9409 3.51427 68.6971 3.27272 68.5279 3.17587C68.4756 3.14471 68.4121 3.13358 68.3386 3.13358H67.2922C67.2165 3.13358 67.1642 3.14471 67.1107 3.17587C66.9415 3.2716 66.6988 3.51427 66.6031 3.69459C66.5808 3.73578 66.5719 3.79923 66.5719 3.87269L66.573 3.87381ZM69.0778 6.10564L69.6389 6.29487C69.5966 6.38058 69.5543 6.44403 69.4909 6.52863C69.4074 6.64439 69.1636 6.92935 69.0155 7.03621C68.8463 7.16422 68.6036 7.2388 68.3698 7.2388H67.2922C67.0584 7.2388 66.8057 7.16422 66.6354 7.03844C66.4884 6.93158 66.2457 6.64551 66.16 6.52974C66.0543 6.37056 66.0019 6.18022 66.0019 5.96872V3.85488C66.0019 3.64339 66.0543 3.45193 66.16 3.29387C66.2446 3.17699 66.4884 2.89091 66.6365 2.78628C66.8057 2.65827 67.0595 2.58591 67.2933 2.58591H68.3509C68.5824 2.58591 68.8363 2.65827 69.0055 2.78628C69.1535 2.89091 69.3973 3.17587 69.4808 3.29387C69.5877 3.45193 69.63 3.64228 69.63 3.85488V5.16504H66.573V5.94646C66.573 6.02104 66.5819 6.08337 66.6031 6.12679C66.6988 6.30711 66.9315 6.54978 67.1007 6.64439C67.153 6.67556 67.2065 6.68558 67.2788 6.68558H68.3921C68.4644 6.68558 68.5279 6.67445 68.5813 6.64328C68.7505 6.54644 68.9821 6.28262 69.0678 6.12456L69.0789 6.1023L69.0778 6.10564ZM73.8158 3.70461C73.7101 3.54655 73.4774 3.27049 73.3082 3.17587C73.2559 3.14471 73.1924 3.13358 73.1189 3.13358H72.599C72.5478 3.13358 72.4844 3.14471 72.441 3.16474C72.2628 3.26047 71.7875 3.54655 71.6394 3.81036V7.18315H71.0672V3.38737L71.0038 2.63823H71.5748L71.6372 3.17587C71.7741 3.03896 71.911 2.8898 72.038 2.80631C72.186 2.70057 72.3875 2.58369 72.5679 2.58369H73.0967C73.3304 2.58369 73.5731 2.65827 73.7423 2.78628C73.8915 2.89091 74.1242 3.17587 74.2077 3.29387C74.2711 3.37846 74.3346 3.47197 74.3658 3.52762L73.8158 3.70572M80.5844 7.18426L78.6184 5.08044H78.3957V7.18426H77.8246V0.839411H78.3946V4.54169H78.6061L80.414 2.63823H81.1766L79.1015 4.79325L81.3547 7.18426H80.5821M85.3535 7.18426L85.2912 6.65552C85.1643 6.79133 85.0162 6.92935 84.8993 7.01173C84.7524 7.1197 84.5498 7.23658 84.3716 7.23658H83.5779C83.3441 7.23658 83.0903 7.162 82.9211 7.03621C82.773 6.92935 82.5292 6.64328 82.4457 6.52751C82.34 6.36834 82.2965 6.17799 82.2965 5.96649V2.63823H82.8688V5.94423C82.8688 6.01881 82.8687 6.08115 82.891 6.12456C82.9856 6.30489 83.2272 6.54755 83.3975 6.64217C83.451 6.67333 83.5144 6.68335 83.589 6.68335H84.3382C84.3917 6.68335 84.4451 6.67222 84.4863 6.65218C84.6678 6.55534 85.1209 6.26927 85.2812 6.0177V2.63823H85.8534V6.43401L85.9268 7.18426H85.3535ZM87.511 7.18426C87.4887 7.00616 87.4164 6.7724 87.4164 6.59208V0.839411H87.9875V6.46406C87.9875 6.69782 88.0609 6.95162 88.0832 7.18426H87.511ZM90.5257 3.18701V5.89414C90.5257 5.96761 90.5368 6.05221 90.5568 6.09451C90.6526 6.27261 90.8641 6.49746 91.0333 6.59208C91.0867 6.62324 91.1702 6.63437 91.2448 6.63437H91.9128V7.18426H91.2337C91.0021 7.18426 90.7583 7.10968 90.5902 6.9839C90.4422 6.87704 90.1984 6.59208 90.1138 6.4752C90.0069 6.31602 89.9546 6.12679 89.9546 5.91529V3.18812H89.2031V2.63712H89.9546V0.838298H90.5257V2.63823H91.9228V3.18701H90.5257ZM96.0997 7.18426L96.0351 6.65552C95.9082 6.79133 95.7602 6.92935 95.6455 7.01173C95.4963 7.1197 95.2948 7.23658 95.1156 7.23658H94.3207C94.087 7.23658 93.8354 7.162 93.6639 7.03621C93.517 6.92935 93.2743 6.64328 93.1897 6.52751C93.0839 6.36834 93.0416 6.17799 93.0416 5.96649V2.63823H93.6127V5.94423C93.6127 6.01881 93.6127 6.08115 93.635 6.12456C93.7285 6.30489 93.9723 6.54755 94.1415 6.64217C94.1938 6.67333 94.2573 6.68335 94.3307 6.68335H95.0833C95.1367 6.68335 95.1891 6.67222 95.2325 6.65218C95.4106 6.55534 95.867 6.26927 96.0251 6.0177V2.63823H96.5962V6.43401L96.6697 7.18426H96.0997ZM100.911 3.70461C100.804 3.54655 100.572 3.27049 100.404 3.17587C100.348 3.14471 100.287 3.13358 100.212 3.13358H99.6933C99.6398 3.13358 99.5775 3.14471 99.5352 3.16474C99.3571 3.26047 98.8784 3.54655 98.7314 3.81036V7.18315H98.1592V3.38737L98.0969 2.63712H98.668L98.7325 3.17476C98.8695 3.03785 99.0064 2.88869 99.1333 2.8052C99.2825 2.69945 99.4829 2.58258 99.6632 2.58258H100.192C100.424 2.58258 100.666 2.65716 100.838 2.78517C100.982 2.8898 101.216 3.17476 101.302 3.29275C101.364 3.37735 101.428 3.47085 101.46 3.52651L100.909 3.70461M105.904 6.57093C105.818 6.68669 105.618 6.93047 105.47 7.03621C105.301 7.16422 105.047 7.2388 104.824 7.2388H103.555C103.332 7.2388 103.079 7.16422 102.909 7.03844C102.761 6.93158 102.529 6.65664 102.444 6.54087C102.392 6.45627 102.318 6.34941 102.296 6.29598L102.845 6.10675C102.931 6.28485 103.173 6.54978 103.344 6.64551C103.397 6.67667 103.459 6.68669 103.533 6.68669H104.813C104.888 6.68669 104.94 6.67556 104.993 6.64439C105.16 6.54755 105.364 6.34719 105.459 6.16797C105.481 6.12567 105.49 6.06222 105.49 5.98987V5.60807C105.49 5.39435 105.31 5.23628 105.089 5.21513L103.345 5.08823C102.826 5.04594 102.425 4.64298 102.425 4.12649V3.80813C102.425 3.59664 102.477 3.40518 102.583 3.24711C102.667 3.13024 102.869 2.88646 103.017 2.78183C103.187 2.65382 103.44 2.58146 103.663 2.58146H104.762C104.985 2.58146 105.237 2.65382 105.408 2.78183C105.555 2.88646 105.797 3.17142 105.883 3.28941C105.946 3.37401 106.01 3.46751 106.031 3.52317L105.481 3.7124C105.394 3.53208 105.141 3.26715 104.973 3.17253C104.92 3.14137 104.867 3.13024 104.792 3.13024H103.673C103.599 3.13024 103.535 3.14137 103.484 3.17253C103.312 3.26826 103.122 3.45861 103.027 3.63782C103.005 3.68235 102.994 3.74468 102.994 3.81815V4.13539C102.994 4.34689 103.176 4.50607 103.398 4.52722L105.143 4.66413C105.661 4.70643 106.063 5.10716 106.063 5.62588V6.00657C106.063 6.21806 106.01 6.4073 105.904 6.56647M108.442 3.18701V5.89414C108.442 5.96761 108.453 6.05221 108.472 6.09451C108.567 6.27261 108.778 6.49746 108.948 6.59208C109.003 6.62324 109.086 6.63437 109.159 6.63437H109.827V7.18426H109.148C108.917 7.18426 108.674 7.10968 108.502 6.9839C108.358 6.87704 108.113 6.59208 108.028 6.4752C107.922 6.31602 107.869 6.12679 107.869 5.91529V3.18812H107.119V2.63712H107.87V0.838298H108.442V2.63823H109.837V3.18701H108.442ZM111.096 7.18426H111.666V2.63823H111.096V7.18426ZM111.052 1.46276H111.709V0.787094H111.052V1.46276ZM115.008 1.347C114.935 1.347 114.841 1.347 114.786 1.37817C114.619 1.4739 114.405 1.70654 114.31 1.88575C114.291 1.92805 114.291 2.00152 114.291 2.07499V2.63823H115.084V3.18701H114.291V7.18315H113.719V3.18701H112.968V2.63823H113.718V2.05495C113.718 1.84346 113.759 1.65422 113.865 1.49393C113.95 1.37817 114.193 1.09321 114.341 0.986345C114.511 0.860561 114.764 0.797112 114.998 0.797112H115.674V1.347H115.006M117.418 3.18701V5.89414C117.418 5.96761 117.43 6.05221 117.452 6.09451C117.546 6.27261 117.758 6.49746 117.927 6.59208C117.979 6.62324 118.064 6.63437 118.139 6.63437H118.804V7.18426H118.128C117.894 7.18426 117.651 7.10968 117.482 6.9839C117.335 6.87704 117.092 6.59208 117.008 6.4752C116.901 6.31602 116.848 6.12679 116.848 5.91529V3.18812H116.098V2.63712H116.85V0.838298H117.421V2.63823H118.818V3.18701H117.421M122.992 7.18426L122.929 6.65552C122.802 6.79133 122.654 6.92935 122.539 7.01173C122.39 7.1197 122.189 7.23658 122.009 7.23658H121.216C120.982 7.23658 120.73 7.162 120.559 7.03621C120.414 6.92935 120.169 6.64328 120.085 6.52751C119.979 6.36834 119.937 6.17799 119.937 5.96649V2.63823H120.509V5.94423C120.509 6.01881 120.509 6.08115 120.528 6.12456C120.622 6.30489 120.866 6.54755 121.035 6.64217C121.088 6.67333 121.152 6.68335 121.225 6.68335H121.977C122.028 6.68335 122.082 6.67222 122.124 6.65218C122.302 6.55534 122.759 6.26927 122.918 6.0177V2.63823H123.488V6.43401L123.562 7.18426H122.992ZM128.049 7.18426V3.87381C128.049 3.80034 128.049 3.73689 128.027 3.69571C127.932 3.51427 127.688 3.27272 127.519 3.17587C127.467 3.14471 127.403 3.13358 127.33 3.13358H126.578C126.526 3.13358 126.474 3.14471 126.431 3.16474C126.253 3.26047 125.797 3.54655 125.639 3.79923V7.18315H125.066V3.38737L124.993 2.63712H125.565L125.627 3.16363C125.754 3.02671 125.901 2.88869 126.019 2.8052C126.167 2.69945 126.367 2.58258 126.547 2.58258H127.341C127.575 2.58258 127.827 2.65716 127.998 2.78517C128.145 2.8898 128.387 3.17476 128.472 3.29275C128.58 3.45082 128.622 3.64116 128.622 3.85377V7.18426H128.051M133.188 3.86268L133.168 3.81147C132.987 3.56658 132.555 3.26047 132.374 3.16586C132.331 3.14359 132.268 3.13246 132.215 3.13246H131.369C131.295 3.13246 131.232 3.14359 131.179 3.17699C131.009 3.2716 130.776 3.51427 130.682 3.69459C130.659 3.73578 130.648 3.79923 130.648 3.87269V5.94535C130.648 6.01993 130.659 6.08226 130.682 6.12567C130.776 6.306 131.009 6.54866 131.179 6.64328C131.232 6.67445 131.295 6.68446 131.369 6.68446H132.215C132.268 6.68446 132.331 6.67333 132.374 6.6533C132.554 6.55645 132.986 6.25034 133.168 6.00768L133.188 5.95425V3.86268ZM133.759 3.39739V7.74528C133.759 7.95677 133.719 8.14601 133.612 8.30518C133.527 8.42206 133.283 8.70814 133.135 8.81389C132.968 8.94078 132.703 9.01425 132.482 9.01425H131.402C131.179 9.01425 130.927 8.94078 130.756 8.81389C130.491 8.62465 130.27 8.29517 130.133 8.06252L130.683 7.88442L130.694 7.90334C130.767 8.06141 131.021 8.32633 131.189 8.42095C131.243 8.45212 131.296 8.46325 131.37 8.46325H132.472C132.544 8.46325 132.608 8.45212 132.661 8.42095C132.828 8.32633 133.073 8.08256 133.169 7.90223C133.189 7.85993 133.189 7.79648 133.189 7.7219V6.63437C133.051 6.78131 132.903 6.91934 132.777 7.01284C132.629 7.12081 132.427 7.23769 132.249 7.23769H131.358C131.136 7.23769 130.872 7.16311 130.704 7.03733C130.556 6.93047 130.312 6.64439 130.227 6.52863C130.122 6.36945 130.079 6.1791 130.079 5.96761V3.85488C130.079 3.64339 130.122 3.45193 130.227 3.29387C130.312 3.17699 130.556 2.89091 130.704 2.78628C130.871 2.65827 131.138 2.58591 131.361 2.58591H132.249C132.427 2.58591 132.628 2.70057 132.777 2.80854C132.903 2.90204 133.062 3.05009 133.2 3.19814L133.263 2.63823H133.833L133.759 3.39739Z" fill="black"/>
<mask id="mask0_6_312" style="mask-type:luminance" maskUnits="userSpaceOnUse" x="0" y="19" width="30" height="14">
<path d="M29.3105 32.8486H0.212402V19.0079H29.3105V32.8486Z" fill="white"/>
</mask>
<g mask="url(#mask0_6_312)">
<path fill-rule="evenodd" clip-rule="evenodd" d="M25.9763 19.0625H23.5862C21.6235 19.0625 20.2531 20.4361 20.2531 22.3941V22.7759H23.4169V20.1033H26.1377V22.7748H29.3105V22.3963C29.3105 20.4372 27.9412 19.0647 25.9763 19.0647V19.0625ZM26.1377 28.0154H23.4403V25.3038H20.2531V25.7212C20.2531 27.6804 21.6224 29.0517 23.5862 29.0517H25.9763C27.9401 29.0517 29.3105 27.6804 29.3105 25.7201V25.3027H26.1377V28.0154ZM5.99016 19.0079H3.5989C1.60396 19.0079 0.212402 20.4016 0.212402 22.3941V32.9132L2.42109 32.9154V28.8814C2.42665 28.9015 2.51349 28.9304 2.51349 28.9304C2.91648 29.0495 3.25936 29.1063 3.5989 29.1063H5.99016C7.98287 29.1063 9.37443 27.7149 9.37443 25.7224V22.3941C9.37443 20.4016 7.98287 19.0079 5.99016 19.0079ZM5.99016 26.9001H3.5989C2.8085 26.9001 2.42109 26.5149 2.42109 25.7201V22.3963C2.42109 21.6038 2.80738 21.2209 3.5989 21.2209H5.99016C6.7583 21.2209 7.16575 21.6271 7.16575 22.3963V25.7246C7.16575 26.4926 6.75941 26.8989 5.99016 26.9001Z" fill="black"/>
</g>
<path fill-rule="evenodd" clip-rule="evenodd" d="M38.2853 19.008H35.8952C35.5835 19.008 35.2273 19.0703 34.8131 19.1972L34.6985 19.2284V15.388H32.5276L32.512 29.1063H34.6985V22.3941C34.6985 21.6372 35.1237 21.2186 35.8963 21.2186H38.2853C39.0802 21.2186 39.4654 21.6015 39.4654 22.3941V29.1063H41.673V22.3941C41.673 20.4016 40.2803 19.008 38.2853 19.008ZM100.32 15.4014H98.1291V17.7234H100.32V15.4014ZM98.1291 29.1063H100.32V19.0102L98.1269 19.008L98.1291 29.1063ZM94.7025 21.2186L94.7058 19.0102L91.7034 19.008V15.4014H89.4947L89.4925 19.0102L87.5621 19.008V21.2186H89.4947L89.4925 25.7212C89.4925 27.7449 90.8551 29.1052 92.8812 29.1052H94.6669V26.9156H92.8812C92.0875 26.9156 91.7012 26.5149 91.7012 25.7212V21.2186H94.7025ZM60.5202 26.9156C59.7298 26.9156 59.3447 26.5149 59.3447 25.7212V15.4092H57.1516L57.1493 25.7212C57.1493 27.7449 58.4941 29.1052 60.5202 29.1052H62.3348V26.9156H60.5202ZM15.5673 19.0169C13.5412 19.0169 12.1797 20.3793 12.1797 22.4008V29.1063H14.3895V22.4019C14.3895 21.6116 14.7758 21.2253 15.5673 21.2253H18.2224V19.0191L15.5673 19.0169ZM71.4267 19.018L70.4426 22.5132L69.3906 26.3056C69.2125 26.9123 69.2013 26.9624 68.7616 26.9624C68.3308 26.9624 68.3107 26.9245 68.1694 26.4259L66.1043 19.018H63.7999L66.0208 26.9234C66.4973 28.582 67.2153 29.172 68.7616 29.172C70.309 29.172 71.0293 28.5709 71.5069 26.8789L73.7167 19.018H71.4267ZM50.6179 19.008H48.2266C46.2339 19.008 44.8424 20.4016 44.8424 22.3941V25.7224C44.8424 27.7149 46.2339 29.1063 48.2266 29.1063H53.4867V26.9134L48.1265 26.9156C47.3561 26.9156 46.9498 26.4893 46.9498 25.7212V25.1424H52.4637C53.2073 25.1424 54.0044 24.558 54.0044 23.5885V22.3963C54.0044 20.4038 52.6128 19.0102 50.6179 19.0102V19.008ZM48.2266 21.094H50.6179C51.484 21.094 51.9226 21.5314 51.9226 22.3941V23.0687H46.9241V22.3941C46.9241 21.5537 47.3873 21.0917 48.2266 21.0917V21.094ZM81.7732 19.008H79.3798C77.3871 19.008 75.9933 20.4016 75.9933 22.3941V25.7224C75.9933 27.7149 77.3848 29.1063 79.3809 29.1063H84.6399V26.9134L79.2796 26.9156C78.5114 26.9156 78.104 26.4893 78.104 25.7212V25.1335H83.6168C84.3582 25.1335 85.1586 24.5569 85.1586 23.5863V22.3963C85.1586 20.4038 83.7649 19.0102 81.771 19.0102L81.7732 19.008ZM78.0773 22.6011C78.0773 21.6839 78.5894 21.0928 79.3798 21.0928H81.7732C82.636 21.0928 83.0757 21.5303 83.0757 22.393V23.0675H78.0773V22.6011ZM109.177 19.008H104.746V21.2186H109.18C109.853 21.2186 110.229 21.5303 110.297 22.1503V22.3006C110.272 22.4342 110.169 22.5321 109.735 22.5956L106.377 22.9406C103.733 23.2267 103.338 24.9933 103.338 26.024C103.338 28.1534 105.038 29.1052 106.726 29.1052H109.704C111.367 29.1052 112.523 27.9442 112.523 26.2834V22.393C112.523 20.4005 111.151 19.0068 109.181 19.0068L109.177 19.008ZM109.7 27.0258H106.722C105.553 27.0258 105.42 26.4537 105.42 26.024C105.42 25.3049 105.635 25.1179 106.574 25.0244L110.006 24.6538L110.456 24.5513V26.2823C110.456 26.801 110.216 27.0236 109.699 27.0236L109.7 27.0258Z" fill="black"/>
</svg>
