<svg width="92" height="56" viewBox="0 0 92 56" fill="none" xmlns="http://www.w3.org/2000/svg">
<path fill-rule="evenodd" clip-rule="evenodd" d="M22.6906 37.9594H20.4496V44.1635L18.1362 45.8927V37.9594H15.9668V46.9061H17.9192L20.4496 45.0266V46.9061H22.6906V37.9594Z" fill="black"/>
<path fill-rule="evenodd" clip-rule="evenodd" d="M28.3306 37.9594H26.1611V46.9061H30.7163V46.2565H28.3306V37.9594Z" fill="black"/>
<path fill-rule="evenodd" clip-rule="evenodd" d="M12.4962 46.9039H10.3275V37.3099L7.94177 39.0391V46.9039H5.84468V37.3099L3.45898 39.0391V46.9039H1.28955V36.0115H3.45898V38.0316L6.13404 36.0115H7.94253V38.0316L10.6892 36.0115H12.4977L12.4962 46.9039Z" fill="black"/>
<path d="M39.6812 37.9594H41.8506V46.8324H39.6812V37.9594Z" fill="black"/>
<path fill-rule="evenodd" clip-rule="evenodd" d="M30.644 37.9594H37.7273V38.609H35.2715V46.9061H33.1021V38.609H30.644V37.9594Z" fill="black"/>
<path fill-rule="evenodd" clip-rule="evenodd" d="M45.3208 37.4542C45.3208 36.5889 46.3328 36.0115 47.3456 36.0115H50.6709V37.9595H49.8036V36.8047H47.4902V46.1107H48.5022C48.8251 46.1188 49.1391 46.0043 49.3806 45.7904C49.6222 45.5764 49.7733 45.279 49.8036 44.9582V44.3086H50.6709V44.9582C50.6189 45.4886 50.3649 45.9789 49.9613 46.3279C49.5576 46.6769 49.0351 46.8581 48.5015 46.834H45.3208V37.4542Z" fill="black"/>
<path fill-rule="evenodd" clip-rule="evenodd" d="M53.1299 37.9594H55.2986V41.9268L57.6119 40.1976V37.9594H59.8529V46.9061H57.6127V41.0615L55.2993 42.7906V46.9061H53.1299V37.9594Z" fill="black"/>
<path d="M73.4463 37.9594H75.6157V46.8324H73.4463V37.9594Z" fill="black"/>
<path fill-rule="evenodd" clip-rule="evenodd" d="M81.2553 38.609V46.3272H81.9063C82.5574 46.3272 83.063 45.9664 83.063 45.4619V44.7401H83.858V45.4619C83.858 46.3272 82.9183 46.9046 81.9056 46.9046H79.1582V39.1135C79.1582 38.4639 80.0255 38.0316 80.5319 38.0316H83.858V39.6909H83.063V38.609H81.2553Z" fill="black"/>
<path fill-rule="evenodd" clip-rule="evenodd" d="M86.4609 37.9594H91.0161V38.609H88.6304V41.493H90.5828V42.0704H88.6304V46.2543H91.0161V46.9061H86.4609V37.9594Z" fill="black"/>
<path fill-rule="evenodd" clip-rule="evenodd" d="M65.4214 38.609H67.8071V46.3272H65.4214V38.609ZM68.4581 37.9594H64.8411C64.0462 37.9594 63.3228 38.4647 63.3228 39.1135V45.7498C63.3228 46.3272 63.9015 46.9038 64.8411 46.9038H68.5282C69.1793 46.9038 69.9742 46.3265 69.9742 45.7498V39.1135C69.9757 38.5368 69.2531 37.9594 68.4573 37.9594H68.4581Z" fill="black"/>
<path fill-rule="evenodd" clip-rule="evenodd" d="M45.8272 1.16988L39.248 8.16707L45.8272 33.3433V1.16988Z" fill="black"/>
<path d="M45.8272 1.16988L39.248 8.16707L45.8272 33.3433V1.16988Z" stroke="black" stroke-width="0.425163" stroke-miterlimit="3.864"/>
<path fill-rule="evenodd" clip-rule="evenodd" d="M13.3633 8.09491L14.4476 16.3183L44.5974 33.4147L13.3633 8.09491Z" fill="black"/>
<path d="M13.3633 8.09491L14.4476 16.3183L44.5974 33.4147L13.3633 8.09491Z" stroke="black" stroke-width="0.425163" stroke-miterlimit="3.864"/>
<path fill-rule="evenodd" clip-rule="evenodd" d="M44.5974 33.4147L24.4252 11.4134L13.3633 8.09491L44.5974 33.4147Z" fill="black"/>
<path d="M44.5974 33.4147L24.4252 11.4134L13.3633 8.09491L44.5974 33.4147Z" stroke="black" stroke-width="0.425163" stroke-miterlimit="3.864"/>
<path fill-rule="evenodd" clip-rule="evenodd" d="M43.5138 33.5591L12.713 16.8957L1 17.1844L43.5138 33.5591Z" fill="black"/>
<path d="M43.5138 33.5591L12.713 16.8957L1 17.1844L43.5138 33.5591Z" stroke="black" stroke-width="0.425163" stroke-miterlimit="3.864"/>
<path fill-rule="evenodd" clip-rule="evenodd" d="M1 17.1837L3.89208 23.3877L43.5138 33.5591L1 17.1837Z" fill="black"/>
<path d="M1 17.1837L3.89208 23.3877L43.5138 33.5591L1 17.1837Z" stroke="black" stroke-width="0.425163" stroke-miterlimit="3.864"/>
<path fill-rule="evenodd" clip-rule="evenodd" d="M28.9812 2.90059L26.3062 10.8361L45.2493 33.3426L28.9812 2.90059Z" fill="black"/>
<path d="M28.9812 2.90059L26.3062 10.8361L45.2493 33.3426L28.9812 2.90059Z" stroke="black" stroke-width="0.425163" stroke-miterlimit="3.864"/>
<path fill-rule="evenodd" clip-rule="evenodd" d="M45.2491 33.3426L37.1516 8.4573L28.981 2.90059L45.2491 33.3426Z" fill="black"/>
<path d="M45.2491 33.3426L37.1516 8.4573L28.981 2.90059L45.2491 33.3426Z" stroke="black" stroke-width="0.425163" stroke-miterlimit="3.864"/>
<path fill-rule="evenodd" clip-rule="evenodd" d="M45.8271 1.16988L52.3347 8.16707L45.8271 33.3433V1.16988Z" fill="black"/>
<path d="M45.8271 1.16988L52.3347 8.16707L45.8271 33.3433V1.16988Z" stroke="black" stroke-width="0.425163" stroke-miterlimit="3.864"/>
<path fill-rule="evenodd" clip-rule="evenodd" d="M78.1463 8.09491L77.1343 16.3183L47.1284 33.4147L78.1463 8.09491Z" fill="black"/>
<path d="M78.1463 8.09491L77.1343 16.3183L47.1284 33.4147L78.1463 8.09491Z" stroke="black" stroke-width="0.425163" stroke-miterlimit="3.864"/>
<path fill-rule="evenodd" clip-rule="evenodd" d="M47.1284 33.4147L67.0112 11.4134L78.1463 8.09491L47.1284 33.4147Z" fill="black"/>
<path d="M47.1284 33.4147L67.0112 11.4134L78.1463 8.09491L47.1284 33.4147Z" stroke="black" stroke-width="0.425163" stroke-miterlimit="3.864"/>
<path fill-rule="evenodd" clip-rule="evenodd" d="M48.1406 33.5591L79.0861 16.8957L90.9438 17.1122L48.1406 33.5591Z" fill="black"/>
<path d="M48.1406 33.5591L79.0861 16.8957L90.9438 17.1122L48.1406 33.5591Z" stroke="black" stroke-width="0.425163" stroke-miterlimit="3.864"/>
<path fill-rule="evenodd" clip-rule="evenodd" d="M90.9415 17.1122L87.9048 23.3884L48.1406 33.5598L90.9415 17.1122Z" fill="black"/>
<path d="M90.9415 17.1122L87.9048 23.3884L48.1406 33.5598L90.9415 17.1122Z" stroke="black" stroke-width="0.425163" stroke-miterlimit="3.864"/>
<path fill-rule="evenodd" clip-rule="evenodd" d="M62.3807 2.90059L64.9835 10.8361L46.4058 33.3426L62.3807 2.90059Z" fill="black"/>
<path d="M62.3807 2.90059L64.9835 10.8361L46.4058 33.3426L62.3807 2.90059Z" stroke="black" stroke-width="0.425163" stroke-miterlimit="3.864"/>
<path fill-rule="evenodd" clip-rule="evenodd" d="M46.4058 33.3426L54.5033 8.4573L62.3807 2.90059L46.4058 33.3426Z" fill="black"/>
<path d="M46.4058 33.3426L54.5033 8.4573L62.3807 2.90059L46.4058 33.3426Z" stroke="black" stroke-width="0.425163" stroke-miterlimit="3.864"/>
<path fill-rule="evenodd" clip-rule="evenodd" d="M16.9062 51.1607V55.4889H18.4246V54.9837H17.485V53.5409H18.3523V53.0357H17.485V51.6659H18.4246V51.1607H16.9062Z" fill="black"/>
<path fill-rule="evenodd" clip-rule="evenodd" d="M21.3891 52.1704V52.0952L22.4011 55.4859H22.9798V51.1607H22.4011V52.6756L22.5458 54.4048V54.48L21.4615 51.1607H20.9551V55.4889H21.5338V53.9018L21.4584 52.4591L21.3891 52.1704Z" fill="black"/>
<path fill-rule="evenodd" clip-rule="evenodd" d="M26.3058 53.0365V51.5937H26.3812C26.8152 51.5937 26.8876 51.9546 26.8876 52.3155C26.8838 52.8207 26.7391 53.1087 26.3058 53.0365ZM25.7301 55.4889H26.3089V53.3244L27.1038 55.4889H27.6826L26.8838 53.3244C27.3902 53.2493 27.4625 52.6034 27.4625 52.1704C27.4625 51.0885 26.8115 51.0163 26.3782 51.0163H25.6548V55.4889H25.7301Z" fill="black"/>
<path d="M30.1377 51.1607H30.7164V55.5611H30.1377V51.1607Z" fill="black"/>
<path fill-rule="evenodd" clip-rule="evenodd" d="M35.1998 51.2328C35.0462 51.1424 34.8718 51.0927 34.6934 51.0885C33.5368 51.0885 33.3921 52.5312 33.3921 53.3966C33.3921 54.3341 33.5368 55.5603 34.7658 55.5603C34.8444 55.5703 34.9242 55.5625 34.9993 55.5375C35.0744 55.5125 35.143 55.471 35.1998 55.416V54.9107C35.0891 54.9701 34.9634 54.9962 34.8381 54.9859C34.0431 54.9859 33.9708 53.9041 33.9708 53.3267C33.9708 52.7493 33.9708 51.5975 34.7658 51.5975C34.8999 51.6002 35.0285 51.6515 35.1275 51.7418V51.2366L35.1998 51.2328Z" fill="black"/>
<path fill-rule="evenodd" clip-rule="evenodd" d="M37.6572 51.1607V55.4889H38.2359V53.3252H39.1033V55.4889H39.682V51.1607H39.1033V52.82H38.2359V51.1607H37.6572Z" fill="black"/>
<path d="M42.4287 51.1607H43.0074V55.5611H42.4287V51.1607Z" fill="black"/>
<path fill-rule="evenodd" clip-rule="evenodd" d="M46.2613 52.1704V52.0952L47.2733 55.4859H47.7796V51.1607H47.2009V52.6756L47.3456 54.4048V54.48L46.3336 51.1607H45.7549V55.4889H46.3336V53.9018L46.2583 52.4591L46.2613 52.1704Z" fill="black"/>
<path fill-rule="evenodd" clip-rule="evenodd" d="M51.6112 53.1808V53.686H52.1176V53.9026C52.1176 54.9123 51.8282 54.9844 51.6112 54.9844C51.3218 54.9844 51.1048 54.8401 51.1048 53.3252C51.1048 52.2433 51.1048 51.596 51.6112 51.596C51.9729 51.596 52.0452 51.8847 52.1176 52.1734L52.6963 51.9568C52.6827 51.8285 52.6438 51.7042 52.5818 51.591C52.5198 51.4777 52.4359 51.3779 52.335 51.2972C52.2342 51.2164 52.1183 51.1564 51.994 51.1206C51.8698 51.0848 51.7397 51.0739 51.6112 51.0885C50.6022 51.0885 50.5269 52.0982 50.5269 53.3244C50.5269 54.5506 50.6715 55.5603 51.6835 55.5603C52.8402 55.5603 52.6955 54.1176 52.6955 53.2522V53.1771L51.6112 53.1808Z" fill="black"/>
<path fill-rule="evenodd" clip-rule="evenodd" d="M58.48 51.1607V55.4889H60.0707V54.9837H59.0587V51.1607H58.48Z" fill="black"/>
<path d="M62.457 51.1607H63.0357V55.5611H62.457V51.1607Z" fill="black"/>
<path fill-rule="evenodd" clip-rule="evenodd" d="M65.4214 51.1607L66.2887 55.4889H66.7951L67.5901 51.1607H67.0837L66.7943 52.6756L66.5773 54.1183V54.407H66.502L66.0001 51.1607H65.4214Z" fill="black"/>
<path fill-rule="evenodd" clip-rule="evenodd" d="M70.0479 51.1607V55.4889H71.6386V54.9837H70.6266V53.5409H71.4939V53.0357H70.6266V51.6659H71.6386V51.1607H70.0479Z" fill="black"/>
<path fill-rule="evenodd" clip-rule="evenodd" d="M75.4713 51.2329C75.2781 51.1096 75.0475 51.0585 74.8202 51.0885C74.6751 51.0898 74.5319 51.1218 74.4 51.1822C74.2681 51.2426 74.1505 51.3302 74.055 51.4392C73.9594 51.5482 73.888 51.6761 73.8455 51.8145C73.8029 51.953 73.7902 52.0989 73.8082 52.2425C73.8082 53.3966 75.0372 53.5409 75.0372 54.407C75.0372 54.7679 74.8926 54.9844 74.5309 54.9844C74.3171 54.9902 74.1094 54.9125 73.9521 54.7679V55.3453C74.1371 55.4912 74.3675 55.5678 74.6032 55.5618C74.7483 55.5605 74.8915 55.5286 75.0234 55.4681C75.1553 55.4077 75.2729 55.3201 75.3685 55.2111C75.464 55.1021 75.5354 54.9742 75.5779 54.8358C75.6205 54.6973 75.6332 54.5515 75.6152 54.4078C75.614 54.156 75.5546 53.9079 75.4417 53.6827C75.3288 53.4575 75.1654 53.2613 74.9641 53.1094L74.5301 52.6042C74.4697 52.5361 74.4254 52.4554 74.4003 52.3679C74.3753 52.2805 74.3702 52.1886 74.3854 52.0989C74.3798 51.9563 74.4291 51.817 74.5233 51.7096C74.6175 51.6022 74.7494 51.5349 74.8918 51.5216C74.9869 51.5189 75.0814 51.5368 75.1689 51.5742C75.2563 51.6116 75.3345 51.6675 75.3982 51.7381L75.4713 51.2329Z" fill="black"/>
</svg>
