<svg width="163" height="27" viewBox="0 0 163 27" fill="none" xmlns="http://www.w3.org/2000/svg">
<path d="M114.485 5.6522C114.774 5.6522 115.012 5.41356 115.012 5.1252V1.24722C115.012 0.958859 114.774 0.720215 114.485 0.720215H101.35C101.061 0.720215 100.823 0.958859 100.823 1.24722V5.11525C100.823 5.40362 101.061 5.64226 101.35 5.64226H104.81C105.098 5.64226 105.337 5.88091 105.337 6.16927V26.4441C105.337 26.7424 105.586 26.9711 105.864 26.9711H109.961C110.249 26.9711 110.488 26.7325 110.488 26.4441V6.17921C110.488 5.8809 110.727 5.6522 111.015 5.6522H114.485Z" fill="black"/>
<path d="M85.8881 26.9811C86.1765 26.9811 86.4151 26.7424 86.4151 26.4541L86.425 1.25717C86.425 0.95886 86.1864 0.720215 85.8881 0.720215H82.03C81.7317 0.720215 81.503 0.968803 81.503 1.25717V12.4635C81.503 12.7519 81.4135 12.7718 81.3041 12.4934L76.6307 1.22733C76.5312 0.958859 76.2031 0.720215 75.9048 0.720215H72.2555C71.9672 0.720215 71.7285 0.95886 71.7285 1.25717V26.4541C71.7285 26.7524 71.9672 26.9811 72.2555 26.9811H76.1037C76.402 26.9811 76.6406 26.7424 76.6406 26.4541V14.5914C76.6406 14.2931 76.7202 14.2832 76.8196 14.5616L81.6621 26.4839C81.7615 26.7524 82.0797 26.9811 82.378 26.9811H85.8881Z" fill="black"/>
<path d="M61.7649 16.3713C61.7649 16.083 61.8245 16.0233 62.1228 16.0233H65.7224C66.0108 16.0233 66.2494 15.7747 66.2494 15.4864V11.6979C66.2494 11.4095 66.0108 11.1709 65.7224 11.1709H62.1228C61.8245 11.1709 61.7649 11.1112 61.7649 10.8129V6.00023C61.7649 5.71187 61.8245 5.6522 62.1228 5.6522H68.3375C68.6259 5.6522 68.8646 5.45333 68.8646 5.16497V1.24722C68.8646 0.958859 68.6259 0.720215 68.3375 0.720215H57.1212C56.8329 0.720215 56.5942 0.958859 56.5942 1.24722V26.4541C56.5942 26.7524 56.8329 26.9811 57.1212 26.9811H68.3375C68.6259 26.9811 68.8646 26.7424 68.8646 26.4541V22.5661C68.8646 22.2678 68.6259 22.0292 68.3375 22.0292H62.1228C61.8245 22.0292 61.7649 21.9695 61.7649 21.6712V16.3713Z" fill="black"/>
<path d="M45.7061 16.5503C45.7061 16.2619 45.7856 16.2619 45.885 16.5304L49.773 26.4839C49.8624 26.7524 50.1806 26.9811 50.469 26.9811H54.6851C54.9834 26.9811 55.1425 26.7524 55.043 26.4839L50.0514 13.796C49.9519 13.5275 49.9519 13.0701 50.0613 12.8016L54.5458 1.21739C54.6552 0.948916 54.4961 0.720215 54.2078 0.720215H49.9917C49.6934 0.720215 49.3852 0.938972 49.2857 1.21739L45.9049 10.4549C45.8055 10.7234 45.716 10.7135 45.716 10.4251V1.24722C45.716 0.958859 45.4773 0.720215 45.189 0.720215H41.321C41.0326 0.720215 40.7939 0.958859 40.7939 1.24722V26.4541C40.7939 26.7524 41.0326 26.9811 41.321 26.9811H45.189C45.4873 26.9811 45.716 26.7424 45.716 26.4541L45.7061 16.5503Z" fill="black"/>
<path d="M150.929 16.5503C150.929 16.2619 151.008 16.2619 151.098 16.5304L154.986 26.4839C155.085 26.7524 155.393 26.9811 155.682 26.9811H159.898C160.186 26.9811 160.345 26.7524 160.246 26.4839L155.254 13.796C155.155 13.5275 155.165 13.0701 155.264 12.8016L159.749 1.21739C159.858 0.948916 159.699 0.720215 159.411 0.720215H155.195C154.896 0.720215 154.578 0.938972 154.479 1.21739L151.088 10.4549C150.988 10.7234 150.909 10.7135 150.909 10.4251V1.24722C150.909 0.958859 150.67 0.720215 150.382 0.720215H146.514C146.216 0.720215 145.987 0.958859 145.987 1.24722V26.4541C145.987 26.7524 146.225 26.9811 146.514 26.9811H150.382C150.67 26.9811 150.909 26.7424 150.909 26.4541V16.5503" fill="black"/>
<path d="M21.0759 1.24722C21.0759 0.958859 20.8372 0.720215 20.5488 0.720215H16.6808C16.3925 0.720215 16.1538 0.958859 16.1538 1.24722V26.4541C16.1538 26.7424 16.3925 26.9811 16.6808 26.9811H20.5488C20.8372 26.9811 21.0759 26.7424 21.0759 26.4541V1.24722Z" fill="black"/>
<path d="M96.7062 11.8868C95.1451 10.3257 93.5342 9.09266 93.5342 7.64091C93.5342 6.63661 94.3496 5.66215 95.3738 5.6522C95.6124 5.6522 97.5017 5.6522 98.2872 5.6522H98.2972C98.5955 5.6522 98.8341 5.41356 98.8341 5.11525V1.26711V1.25717C98.8341 0.95886 98.5955 0.720215 98.2972 0.720215H94.6678C90.6506 0.720215 88.4233 3.52429 88.473 7.48181C88.4929 10.6936 90.3722 12.8911 92.9973 15.3273C94.4888 16.6895 95.7119 17.8131 95.7119 19.6427C95.7119 21.1442 94.8468 21.9795 93.4149 22.0192H89.0099C88.7216 22.0292 88.4829 22.2678 88.4829 22.5661V26.4441C88.4829 26.7424 88.7216 26.9811 89.0199 26.9811H94.8169H94.8269C99.212 27.0706 100.833 23.3815 100.833 19.603C100.823 15.9736 98.9634 14.1837 96.7062 11.8868Z" fill="black"/>
<path d="M6.83675 22.3076H5.28556C4.98726 22.3076 4.92759 22.2479 4.92759 21.9496V16.3813C4.92759 16.083 4.9972 16.0233 5.28556 16.0233H6.83675C8.02998 16.0233 8.33822 17.0674 8.36806 19.0561C8.38794 21.6911 7.96037 22.3076 6.83675 22.3076ZM4.90771 5.75163C4.90771 5.45333 4.96737 5.40361 5.25573 5.40361H6.47879C7.59246 5.40361 8.04986 6.23886 8.04986 8.38667C8.04986 10.7831 7.40353 11.1609 6.47879 11.1609H5.25573C4.96737 11.1609 4.90771 11.1012 4.90771 10.8129V5.75163ZM11.4108 13.3584C11.4108 13.3584 11.2716 13.2689 11.2616 13.1198C11.2616 12.9806 11.4307 12.8414 11.4307 12.8414C12.6239 11.5785 12.9122 10.3058 12.9122 9.04294V5.99028C12.8725 2.28134 11.6196 0.720207 7.5328 0.720207H0.532556C0.23425 0.720207 -0.00439453 0.958852 -0.00439453 1.25716V26.4441C-0.00439453 26.7424 0.23425 26.9811 0.532556 26.9811H7.90071C11.7489 26.9811 13.2404 24.2367 13.2404 20.3885V18.2308C13.2503 15.6852 12.8625 14.4124 11.4108 13.3584Z" fill="black"/>
<path d="M32.67 8.42645C32.6998 11.0714 32.2623 11.6879 31.1387 11.6879H29.5974C29.2991 11.6879 29.2395 11.6283 29.2395 11.33V5.76158C29.2395 5.46328 29.3091 5.40362 29.5974 5.40362H31.1387C32.3319 5.40362 32.6402 6.43774 32.67 8.42645ZM38.6162 26.4839L34.3902 16.1029H34.4399L34.8377 15.9438C36.1303 15.2875 37.4528 13.8854 37.4528 11.1907V6.30848C37.4528 1.63502 34.7184 0.720215 31.3475 0.720215H24.8345C24.5362 0.720215 24.2876 0.95886 24.2876 1.25717V26.4441C24.2876 26.7424 24.5262 26.9811 24.8345 26.9811H28.6826C28.9809 26.9811 29.2196 26.7424 29.2196 26.4441V16.5503C29.2196 16.2619 29.2991 16.2619 29.3886 16.5304L33.3362 26.4839C33.4257 26.7524 33.7439 26.9811 34.0323 26.9811H38.2483C38.5566 26.991 38.7157 26.7623 38.6162 26.4839Z" fill="black"/>
<path d="M141.761 26.991C134.124 26.991 133.169 21.4923 133.169 13.8159C133.169 6.13946 134.124 0.730186 141.761 0.730186H143.491C143.789 0.730186 144.038 0.948944 144.038 1.23731V5.12522C144.038 5.42353 143.799 5.66217 143.501 5.66217H141.761C138.748 5.66217 138.261 7.06421 138.261 13.8258C138.261 20.6172 138.758 22.0392 141.761 22.0392H143.501C143.799 22.0392 144.038 22.2778 144.038 22.5761V26.464C144.038 26.7623 143.799 27.001 143.501 27.001H141.761" fill="black"/>
<path d="M123.345 22.059C126.358 22.059 126.418 20.5874 126.418 13.796C126.418 7.03435 126.358 5.37379 123.345 5.37379C120.342 5.37379 120.273 7.03435 120.273 13.796C120.273 20.5874 120.332 22.059 123.345 22.059ZM123.345 0.720215C130.982 0.720215 131.509 6.11955 131.509 13.796C131.509 21.4724 130.982 26.9811 123.345 26.9811C115.709 26.9811 115.182 21.4724 115.182 13.796C115.182 6.12949 115.699 0.720215 123.345 0.720215Z" fill="black"/>
<path d="M160.802 12.8911C160.802 12.6524 160.663 12.5232 160.355 12.5232H159.778C159.738 12.5232 159.728 12.5331 159.728 12.5729V13.2292C159.728 13.259 159.738 13.2789 159.778 13.2789H160.355C160.663 13.2789 160.802 13.1397 160.802 12.8911ZM159.34 14.8002C159.291 14.8002 159.251 14.7704 159.251 14.7107V12.1851C159.251 12.1254 159.291 12.0956 159.34 12.0956H160.365C160.951 12.0956 161.299 12.3939 161.299 12.901C161.299 13.2689 161.091 13.5374 160.762 13.6567L161.309 14.7207C161.339 14.7704 161.309 14.8102 161.26 14.8102H160.902C160.852 14.8102 160.812 14.7804 160.782 14.7207L160.275 13.7263H159.788C159.748 13.7263 159.738 13.7363 159.738 13.7761V14.7207C159.738 14.7804 159.698 14.8102 159.649 14.8102H159.34V14.8002ZM162.194 13.4579C162.194 12.2945 161.339 11.4393 160.186 11.4393C159.032 11.4393 158.177 12.2945 158.177 13.4579C158.177 14.6213 159.032 15.4863 160.186 15.4863C161.339 15.4863 162.194 14.6213 162.194 13.4579ZM157.75 13.4579C157.75 12.0757 158.813 11.0217 160.186 11.0217C161.578 11.0217 162.622 12.0857 162.622 13.4579C162.622 14.85 161.578 15.9139 160.186 15.9139C158.813 15.9139 157.75 14.85 157.75 13.4579Z" fill="black"/>
</svg>
