<svg width="172" height="27" viewBox="0 0 172 27" fill="none" xmlns="http://www.w3.org/2000/svg">
<path d="M26.4135 0.984688C26.5102 0.984688 26.6041 0.984688 26.6951 0.984688H27.2299C27.3152 0.984688 27.3977 0.984688 27.4773 0.984688H27.9239C27.9922 0.984688 28.0576 0.984688 28.1202 0.984688H28.581C28.6208 0.984688 28.655 0.984688 28.6863 0.984688H28.8256L28.9081 1.05865V1.77263C28.9081 1.96891 28.7972 2.06847 28.5782 2.06847C27.5058 2.12252 27.2867 2.22776 26.8942 2.79383C26.6809 3.10105 26.257 3.76383 25.819 4.50911L22.0585 11.5409C22.0585 11.5409 22.0215 11.6177 21.9533 11.7599L26.55 21.1698L26.8288 21.2466L34.0709 4.05967C34.3241 3.36559 34.2843 2.87633 33.96 2.58618C33.6357 2.30457 33.4053 2.13674 32.569 2.1026L31.8892 2.06847C31.8067 2.06847 31.7271 2.03718 31.6503 1.98029C31.5763 1.92624 31.5365 1.85797 31.5365 1.77263V1.05865L31.6389 0.984688H39.8197L39.9022 1.05865V1.77548C39.9022 1.96891 39.7913 2.06847 39.5723 2.06847C38.4999 2.11683 37.7091 2.35008 37.1914 2.76254C36.6765 3.1807 36.2726 3.7553 35.9853 4.50627C35.9853 4.50627 33.8092 9.48711 31.5222 14.6955L31.1411 15.566C29.5481 19.1956 27.9524 22.8111 27.0478 24.8165C26.1745 26.4806 25.3126 26.3241 24.5645 24.7681C23.9786 23.562 23 21.4514 22.0045 19.2753L21.3388 17.8189C20.9491 16.9655 20.5708 16.1263 20.2209 15.3611C18.6849 18.5357 16.5771 22.8481 15.5246 24.788C14.5063 26.5517 13.6757 26.3241 13.0044 24.8336C10.6861 19.3691 5.93288 9.74881 3.69993 4.40955C3.28463 3.41964 2.97457 2.78814 2.67874 2.53213C2.38291 2.28181 1.76849 2.13389 0.832645 2.08269C0.485613 2.04571 0.314941 1.96322 0.314941 1.82668V1.07856L0.397433 1.0046C0.576638 1.0046 0.838334 1.00176 1.15692 1.00176H2.27198C2.37722 1.00176 2.48247 1.00176 2.59056 1.00176H3.97016C4.08963 1.00176 4.2091 1.00176 4.33141 1.00176H6.79762C6.90571 1.00176 7.0138 1.00176 7.11905 1.00176H8.4702C8.54416 1.00176 8.61243 1.00176 8.67501 1.00176H9.29227L9.37476 1.07571V1.7897C9.37476 1.98598 9.2496 2.08269 9.00497 2.08269L8.07766 2.12252C7.28119 2.15665 6.88295 2.39559 6.88295 2.8365C6.88295 3.04131 6.96545 3.37697 7.15034 3.82641C8.92817 8.16723 15.0923 21.1897 15.0866 21.1442L15.3113 21.2039L19.2766 13.2903C18.7901 12.2207 18.4829 11.5409 18.4829 11.5324L15.755 6.17318C15.755 6.17318 15.226 5.10078 15.0467 4.74521C13.8492 2.36999 13.8748 2.23914 12.663 2.08554C12.3245 2.04002 12.1482 1.99735 12.1482 1.82953V1.07571L12.2506 1.00176H12.9788C13.067 1.00176 13.158 1.00176 13.249 1.00176H15.3653C15.4706 1.00176 15.5758 1.00176 15.6782 1.00176H19.305L19.4927 1.06434V1.80961C19.4927 1.98029 19.3704 2.06847 19.123 2.06847L18.6109 2.14243C17.3167 2.24199 17.53 2.77108 18.3891 4.48351L21.006 9.83414L23.8989 4.06251C24.3512 3.07545 24.2943 2.77961 24.1236 2.54636L24.0838 2.498C23.97 2.36146 23.5832 2.13958 22.7469 2.10829L22.4169 2.07131C22.3344 2.07131 22.2548 2.04287 22.1808 1.98598C22.1069 1.93193 22.0699 1.86366 22.0699 1.77548V1.06434L22.1723 0.990377C22.525 0.987532 22.9545 0.987532 23.4239 0.984688H26.4135ZM41.3046 8.55124H41.4724C42.4822 8.55124 45.358 8.47728 45.358 8.47728L45.395 8.55124V9.37332C45.395 9.48426 45.321 9.56107 45.1703 9.56107L44.3852 9.63787C43.2275 9.74881 42.8207 10.0503 42.815 10.7985V23.2378C42.815 24.0598 43.1877 24.5463 44.3852 24.6572L45.1703 24.734C45.2812 24.734 45.395 24.808 45.395 24.9559V25.741L45.358 25.8178C45.358 25.8178 42.5249 25.741 41.3615 25.741C40.3147 25.741 37.4047 25.8178 37.4019 25.8178L37.3279 25.741V24.9559C37.3279 24.8051 37.4389 24.734 37.5896 24.734L38.3377 24.6572C39.5694 24.5463 39.9449 23.9461 39.9449 23.2378V10.7956C39.9449 9.97637 39.4955 9.74881 38.3377 9.63787L37.5896 9.56107C37.4389 9.56107 37.3279 9.52693 37.3279 9.4103V8.55124L37.3649 8.47728C37.3649 8.47728 40.053 8.54555 41.3046 8.55124ZM53.8432 23.2349C53.8432 24.057 54.3297 24.4666 55.4134 24.6544L55.823 24.7312C55.934 24.7681 56.0478 24.8051 56.0478 24.953V25.7381L56.0108 25.8149C56.0108 25.8149 53.664 25.7381 52.5376 25.7381C51.4908 25.7381 48.4244 25.8149 48.4273 25.8149L48.3533 25.7381V24.953C48.3533 24.8023 48.4643 24.7312 48.615 24.7312L49.3631 24.6544C50.4839 24.5434 50.9703 23.9432 50.9703 23.2349V10.7956C50.9703 9.97637 50.5578 9.74881 49.3631 9.63787L48.615 9.56107C48.4643 9.56107 48.3533 9.52693 48.3533 9.4103V8.55124L48.3903 8.47728C48.3903 8.47728 51.451 8.55124 52.6116 8.55124C53.6584 8.55124 56.0136 8.47728 56.0108 8.47728L56.0478 8.55124V9.37332C56.0478 9.48426 55.9738 9.52409 55.823 9.56107L55.4134 9.63787C54.2557 9.85975 53.8489 10.0503 53.8432 10.7985V16.4421C55.0749 16.4421 55.7775 15.8106 57.4302 14.0526C58.9236 12.4028 60.0785 11.0346 60.0813 10.3149C60.0813 10.0134 59.7456 9.68054 58.9975 9.56675C58.8468 9.53262 58.7728 9.4928 58.7728 9.37901V8.51711L58.8098 8.48297C58.8098 8.48297 61.8421 8.55693 62.9201 8.55693C63.8901 8.55693 65.5399 8.48297 65.5343 8.48297L65.6452 8.51711V9.37901C65.6452 9.48995 65.5343 9.56675 65.3465 9.56675C63.8958 9.67769 62.8832 9.7545 61.5377 11.2849L58.3262 14.98C57.6919 15.657 57.4672 16.0638 57.4672 16.3624C57.4672 16.5872 57.6179 16.772 57.8028 16.9968L63.4435 23.7953C63.893 24.3158 64.789 24.5434 65.5343 24.6913L65.722 24.7283C65.8329 24.7653 65.9837 24.8392 65.9837 24.9502V25.7353L65.8728 25.7723C65.8728 25.7723 63.8958 25.7353 62.8462 25.7353C61.9132 25.7353 60.5706 25.7723 60.5677 25.7723L60.5307 25.7353V25.2858C60.5307 24.7994 60.4938 24.3898 59.9704 23.7924L55.823 18.6352C55.2627 17.8871 54.6653 17.7022 53.8432 17.7022V23.2349ZM73.9797 23.2349C73.9797 24.057 74.3523 24.5434 75.5498 24.6544L76.3349 24.7312C76.4459 24.7312 76.5596 24.8051 76.5596 24.953V25.7381L76.5227 25.8149C76.5227 25.8149 73.6895 25.7381 72.5261 25.7381C71.4793 25.7381 68.5694 25.8149 68.5665 25.8149L68.4926 25.7381V24.953C68.4926 24.8023 68.6035 24.7312 68.7543 24.7312L69.5024 24.6544C70.7341 24.5434 71.1095 23.9432 71.1095 23.2349V10.7956C71.1095 9.97637 70.6601 9.74881 69.5024 9.63787L68.7543 9.56107C68.6035 9.56107 68.4926 9.52693 68.4926 9.4103V8.55124L68.5295 8.47728C68.5295 8.47728 71.4765 8.55124 72.6399 8.55124C73.6497 8.55124 76.5255 8.47728 76.5255 8.47728L76.5625 8.55124V9.37332C76.5625 9.48426 76.4885 9.56107 76.3378 9.56107L75.5527 9.63787C74.395 9.74881 73.9882 10.0503 73.9825 10.7985L73.9797 23.2349ZM82.0524 10.8696C82.0524 9.71183 81.566 9.67485 79.8109 9.56107C79.5862 9.56107 79.5492 9.45013 79.5492 9.37332V8.51426L79.6232 8.47728C80.1836 8.47728 82.3852 8.55124 83.4718 8.55124C84.5186 8.55124 86.0063 8.47728 87.3944 8.47728C92.7023 8.47728 93.6695 11.0971 93.6666 13.0371C93.6666 15.2843 92.5829 18.786 87.2807 18.7888C86.3477 18.7888 85.6024 18.712 84.9254 18.4162V23.4198C84.9254 24.239 85.3748 24.4296 86.5695 24.6145L87.3176 24.7255C87.4684 24.7624 87.5822 24.8023 87.5793 24.9473V25.7324L87.5452 25.8092C87.5452 25.8092 84.5556 25.7324 83.3979 25.7324C82.3511 25.7324 79.5549 25.8092 79.5492 25.8092L79.5151 25.7324V24.9473C79.5151 24.7966 79.5891 24.7596 79.7398 24.7255L80.5249 24.6145C81.6826 24.4638 82.061 24.1281 82.0553 23.4198L82.0524 10.8696ZM84.9282 17.3694C85.6764 17.6709 86.6065 17.7051 87.3575 17.7051C89.6046 17.7051 90.6742 16.3567 90.6799 13.4837C90.6799 10.2665 89.2292 9.55538 87.1726 9.56107C85.3805 9.56107 84.9254 9.89672 84.9311 10.8696L84.9282 17.3694ZM100.101 25.7381C98.9802 25.7381 96.4002 25.8149 96.4031 25.8149L96.3632 25.7381V24.9161C96.3632 24.8421 96.4031 24.7312 96.588 24.7312L97.4499 24.6544C98.6104 24.5434 98.9432 23.7953 98.9461 23.05V10.7216C98.9461 9.85975 98.4966 9.71183 97.4499 9.63787L96.588 9.56107C96.3632 9.52693 96.3632 9.45013 96.3632 9.4103V8.55124L96.4031 8.47728C96.4031 8.47728 99.3216 8.55124 100.437 8.55124H105.927C107.047 8.55124 109.698 8.47728 109.701 8.47728L109.778 8.55124C109.812 10.1584 110.074 11.612 110.338 13.0343L109.408 13.185C108.999 11.8026 108.29 9.82561 105.898 9.82277H102.909C102.197 9.82277 101.825 10.0845 101.825 10.7188V16.1377H104.624C105.671 16.1377 105.932 15.6883 106.083 14.943L106.305 14.1579C106.305 14.047 106.382 13.9701 106.53 13.9701H107.161C107.238 13.9701 107.238 14.01 107.238 14.0811C107.161 14.9003 107.013 15.9443 107.013 16.846C107.013 17.779 107.164 18.567 107.238 19.4232L107.161 19.5H106.53C106.345 19.5 106.265 19.4232 106.265 19.3123L106.077 18.493C105.927 17.7449 105.591 17.3324 104.615 17.3324H101.816V23.05C101.816 23.7583 102.223 24.4666 102.9 24.4666H106.45C108.356 24.4666 109.411 23.2719 109.849 21.3262L110.779 21.4371L110.031 25.7324L109.957 25.8064C109.957 25.8064 107.753 25.7324 106.632 25.7324L100.101 25.7381ZM114.15 24.7312L115.009 24.6544C116.13 24.5434 116.502 24.2049 116.505 23.05V10.7216C116.505 9.74596 116.241 9.74596 115.009 9.63787L114.19 9.56107C114.039 9.56107 113.925 9.48711 113.925 9.37332V8.55124L113.962 8.47728C113.962 8.47728 117.251 8.55124 117.925 8.55124C118.633 8.55124 121.881 8.47728 122.854 8.47728C129.087 8.47728 132.162 12.363 132.156 17.3296C132.156 23.8607 127.517 25.8121 123.378 25.8092C120.388 25.8092 119.08 25.7324 117.925 25.7324C116.804 25.7324 113.968 25.8092 113.962 25.8092L113.928 25.7324V24.9473C113.925 24.8421 114.002 24.7312 114.15 24.7312ZM122.482 24.7312C126.595 24.7312 128.913 23.2093 128.907 17.9696C128.907 14.0839 128.046 9.55822 121.771 9.56391C120.32 9.56391 119.381 9.78863 119.381 10.7245V23.0529C119.381 24.094 119.64 24.7283 122.482 24.7312ZM140.974 23.2349C140.974 24.057 141.347 24.5434 142.544 24.6544L143.329 24.7312C143.44 24.7312 143.554 24.8051 143.554 24.953V25.7381L143.517 25.8149C143.517 25.8149 140.684 25.7381 139.52 25.7381C138.474 25.7381 135.564 25.8149 135.561 25.8149L135.484 25.7381V24.953C135.484 24.8023 135.595 24.7312 135.746 24.7312L136.494 24.6544C137.726 24.5434 138.101 23.9432 138.101 23.2349V10.7956C138.101 9.97637 137.652 9.74881 136.494 9.63787L135.746 9.56107C135.595 9.56107 135.484 9.52693 135.484 9.4103V8.55124L135.521 8.47728C135.521 8.47728 138.468 8.55124 139.629 8.55124C140.635 8.55124 143.514 8.47728 143.514 8.47728L143.548 8.55124V9.37332C143.548 9.48426 143.471 9.56107 143.324 9.56107L142.538 9.63787C141.378 9.74881 140.974 10.0503 140.968 10.7985L140.974 23.2349ZM152.483 24.6544L153.567 24.7312C153.717 24.7312 153.865 24.8421 153.865 25.0298V25.741L153.791 25.8178C153.791 25.8178 149.721 25.741 148.822 25.741C147.849 25.741 145.463 25.8178 145.46 25.8178L145.383 25.741V25.0298C145.383 24.8449 145.494 24.7312 145.684 24.7312C147.334 24.6202 148.262 24.3187 149.306 21.9293L157.597 2.50084C158.007 1.53085 158.309 1.15536 158.872 1.15536C159.392 1.15536 159.58 1.53085 159.879 2.27612L167.536 22.5238C168.062 23.9745 168.808 24.5434 170.304 24.6913L170.713 24.7283C170.901 24.7283 171.089 24.8392 171.089 25.0298V25.7324L170.978 25.8092C170.978 25.8092 168.102 25.7324 166.643 25.7324C165.334 25.7324 161.676 25.8092 161.674 25.8092L161.634 25.7324V25.0241C161.634 24.8336 161.708 24.7226 161.898 24.7226L162.945 24.6458C164.362 24.5349 164.894 24.0826 164.515 23.0415L162.237 16.7265H154.463C153.567 16.7265 153.342 16.8773 153.157 17.358L150.99 22.7769C150.617 23.7185 151.1 24.5434 152.483 24.6544ZM161.637 15.162L158.013 5.18896H157.939L154.204 14.6784C154.053 15.0568 154.315 15.1649 155.137 15.1649L161.637 15.162Z" fill="black"/>
</svg>
