<svg width="75" height="59" viewBox="0 0 75 59" fill="none" xmlns="http://www.w3.org/2000/svg">
<path d="M37.9377 33.8217C37.9377 32.2279 37.8893 30.7105 37.9759 29.2008C37.9963 28.8647 38.4393 28.4497 38.7881 28.2562C41.8788 26.5351 44.7787 24.5748 47.1974 21.9575C48.0579 21.0257 48.7886 20.0582 48.3125 18.5256H37.925C37.869 18.4161 37.8104 18.3092 37.7544 18.1997C39.3431 16.7332 40.9292 15.2642 42.5281 13.8104C42.635 13.7137 42.8489 13.7061 43.0143 13.7061C46.3546 13.701 49.6949 13.701 53.0785 13.701C53.519 18.5256 53.6641 23.0294 49.4454 26.5351C46.0593 29.3484 42.5026 31.8053 38.536 33.6816C38.3934 33.7504 38.2203 33.758 37.9428 33.8217H37.9377Z" fill="black"/>
<path d="M9.47125 46.9639H15.9354C15.9609 47.1319 16.0093 47.2669 15.9787 47.2872C14.6166 48.186 14.5937 49.5455 14.6319 50.9712C14.6803 52.7941 14.6956 54.6196 14.6064 56.4399C14.5861 56.8473 14.1634 57.4507 13.7866 57.5933C11.2712 58.5404 8.67182 58.7084 6.03421 58.1534C3.40933 57.6035 1.91994 55.8798 1.314 53.3797C0.484021 49.9478 0.478929 46.4751 1.30891 43.0457C2.15926 39.5272 4.44044 37.5413 8.0557 37.3758C10.0212 37.2867 12.0096 37.6508 13.9827 37.8672C14.2806 37.9003 14.777 38.244 14.7872 38.4629C14.8585 39.9192 14.8254 41.3806 14.8254 42.842C14.6981 42.8827 14.5683 42.9209 14.441 42.9616C14.2627 42.7071 14.0718 42.4601 13.9114 42.1953C13.4557 41.4392 13.1272 40.5684 12.5417 39.9371C10.2503 37.4624 6.75471 38.2287 5.93237 41.4799C4.84525 45.7724 4.8758 50.1438 5.95528 54.4465C6.49503 56.6029 7.71709 57.359 9.6291 57.1808C10.342 57.1146 10.6755 56.8804 10.6577 56.0937C10.6093 53.9755 10.7417 51.8445 10.5813 49.7364C10.5151 48.8428 9.89897 47.9899 9.4687 46.9639H9.47125Z" fill="black"/>
<path d="M21.8677 4.11033C23.4589 5.21019 24.8439 6.10127 26.1373 7.10947C26.4504 7.35388 26.5955 7.98019 26.5981 8.43337C26.6337 11.8246 26.6745 15.2158 26.5828 18.6045C26.5446 19.9946 26.9902 21.0359 27.9169 22.0135C30.3381 24.5646 33.1666 26.558 36.2523 28.19C36.955 28.5617 37.2122 28.9843 37.1714 29.7634C37.1052 31.0669 37.1536 32.3756 37.1536 34.0355C35.2492 33.0019 33.5231 32.149 31.8835 31.1586C28.6017 29.1753 25.5797 26.8712 23.2603 23.7549C22.2929 22.4565 21.827 21.041 21.8473 19.3835C21.9084 14.3884 21.8702 9.39065 21.8702 4.10779L21.8677 4.11033Z" fill="black"/>
<path d="M53.1673 3.63425C51.9579 4.77993 50.8759 5.85432 49.7251 6.84979C49.4935 7.04838 48.9435 7.06874 48.6253 6.94654C41.6977 4.27837 34.7218 4.23764 27.6797 6.46281C27.336 6.57228 26.8243 6.54173 26.5366 6.35333C25.1541 5.45715 23.8226 4.4846 22.4478 3.52222C28.9629 -0.53094 43.9585 -1.38638 53.1673 3.63425Z" fill="black"/>
<path d="M40.4302 42.0731C42.2989 41.5283 44.4757 41.7931 44.9085 42.623C46.0771 42.259 47.2228 41.7981 48.4143 41.5537C50.8406 41.0547 52.4827 42.4295 52.5031 44.9093C52.526 47.58 52.4802 50.2533 52.5209 52.9214C52.5464 54.5967 52.0499 56.3839 53.7939 57.9217H48.2412C49.8859 53.7005 48.7402 49.3367 49.0253 45.0697C49.1093 43.7993 48.3761 43.1551 47.3017 43.1831C45.741 43.2213 44.7634 44.0259 44.7609 45.2861C44.7558 47.5342 44.6845 49.7848 44.7812 52.0278C44.8652 53.9831 44.1269 56.081 45.8963 57.9319H40.5422C42.0087 53.2753 40.9623 48.5042 41.2067 43.812C41.2372 43.2442 40.7026 42.6485 40.4327 42.0706L40.4302 42.0731Z" fill="black"/>
<path d="M34.6712 47.5087C34.4191 45.9684 35.3611 43.9597 33.2429 42.9897C31.6898 42.2793 30.6842 43.0228 28.9046 45.7037C28.9046 44.6471 28.8664 43.588 28.9377 42.5365C28.9529 42.3226 29.3705 41.9891 29.6276 41.9662C31.4276 41.7982 33.2454 41.4977 35.0301 41.6276C37.24 41.788 38.1362 42.954 38.1642 45.1792C38.1973 47.9772 38.1642 50.7752 38.1795 53.5707C38.1871 55.0142 37.8231 56.5494 39.2259 57.6646C37.5328 58.3851 34.941 58.1152 34.4573 57.2012C32.9781 58.0464 31.3843 58.5225 29.732 57.9319C28.9886 57.6671 28.1841 57.1299 27.7563 56.4858C25.9487 53.7616 27.2471 49.6524 30.2921 48.5042C31.6135 48.0052 33.0647 47.8601 34.6712 47.5062V47.5087ZM34.6661 49.105C30.9592 49.4004 29.0522 52.7941 30.7529 55.8569C31.0406 56.3763 32.0081 56.888 32.5631 56.7989C33.3142 56.6767 34.5108 56.0326 34.5693 55.5056C34.801 53.4204 34.6661 51.292 34.6661 49.105Z" fill="black"/>
<path d="M64.7392 52.5624C64.8742 52.9571 65.0218 53.3491 65.144 53.7489C65.615 55.2917 66.4399 56.5265 68.0795 56.9822C69.7471 57.4456 71.2467 56.3661 70.9743 54.6756C70.791 53.5401 70.1647 52.3639 69.4263 51.4549C68.4742 50.2838 67.2037 49.3724 66.0911 48.326C64.9658 47.2694 64.09 46.0855 64.5814 44.4103C65.0702 42.7452 66.3457 41.8567 67.9344 41.6836C69.5995 41.5028 71.3053 41.6479 72.9881 41.7294C73.2198 41.7396 73.6017 42.1953 73.617 42.4601C73.6857 43.677 73.6475 44.9017 73.6475 46.1237C73.5432 46.1695 73.4388 46.2154 73.3344 46.2637C73.1205 45.9862 72.8914 45.7189 72.6979 45.4261C72.2116 44.6903 71.8424 43.8476 71.2416 43.2264C70.4116 42.3735 68.8815 42.3812 68.0872 43.0686C67.2877 43.7585 67.1808 45.0035 68.0974 46.0422C69.0725 47.1472 70.2665 48.0535 71.3587 49.0567C71.8577 49.5149 72.3669 49.9681 72.8252 50.4671C75.5545 53.4255 74.4928 57.2063 70.5389 57.9802C68.6804 58.3443 66.6767 57.9726 64.7392 57.9089C64.5788 57.9039 64.2911 57.69 64.2886 57.5678C64.258 55.918 64.2682 54.2682 64.2682 52.6184C64.4235 52.5981 64.5788 52.5777 64.7341 52.5573L64.7392 52.5624Z" fill="black"/>
<path d="M62.9616 56.8982C62.8649 57.1834 62.8547 57.4278 62.7579 57.4685C60.991 58.2094 59.1605 58.5964 57.3503 57.7486C55.7998 57.0204 55.7235 55.5132 55.7285 54.0264C55.7362 50.3424 55.7285 46.6558 55.7285 42.9031C55.0564 42.8165 54.4581 42.7376 53.5518 42.6205C53.9871 42.2844 54.1653 42.0426 54.3919 41.9891C56.1257 41.5741 57.2943 40.5048 58.1065 38.9569C58.2567 38.6717 58.6106 38.4935 58.8703 38.2644C59.0052 38.5775 59.2343 38.883 59.2547 39.2038C59.3107 40.0364 59.2725 40.874 59.2725 41.8516H63.2137C63.1093 43.2035 62.1775 42.7045 61.5868 42.7682C60.8816 42.842 60.1636 42.786 59.2725 42.786C59.2725 43.8986 59.2725 44.8991 59.2725 45.8997C59.2725 48.6137 59.2725 51.3277 59.2725 54.0442C59.2751 56.5087 59.9447 57.0943 62.4422 56.8397C62.5594 56.8269 62.6816 56.8651 62.9616 56.9008V56.8982Z" fill="black"/>
<path d="M22.5957 57.9497H17.1372C18.7819 55.6889 17.9901 53.2397 18.1021 50.9101C18.2167 48.5424 18.1683 46.1645 18.0868 43.7942C18.0665 43.229 17.6311 42.6816 17.3842 42.1215C18.6215 41.5614 21.366 41.7803 21.8523 42.567C23.4843 41.4519 25.4039 40.7467 26.9748 42.1088C27.6673 42.7096 27.3465 44.479 27.484 45.7189C27.3363 45.7444 27.1886 45.7698 27.041 45.7953C26.9111 45.472 26.7864 45.1461 26.6464 44.8278C26.1015 43.593 24.9457 42.9871 23.6523 43.2493C22.4939 43.4861 21.6843 44.4256 21.6716 45.7087C21.6436 49.0134 21.6155 52.3206 21.7047 55.6227C21.725 56.3432 22.2368 57.051 22.5932 57.9497H22.5957Z" fill="black"/>
<path d="M64.4616 41.7447V40.4819C64.1637 40.3215 63.736 40.2324 63.6112 39.9905C63.349 39.4737 62.9824 38.7735 63.1504 38.3407C63.3185 37.9105 64.1153 37.4471 64.5889 37.4929C65.0752 37.5413 65.6735 38.1065 65.9103 38.5953C66.2641 39.3235 65.3425 41.1565 64.4591 41.7447H64.4616Z" fill="black"/>
</svg>
