<svg width="127" height="35" viewBox="0 0 127 35" fill="none" xmlns="http://www.w3.org/2000/svg">
<path d="M120.048 16.9817L126.77 34.7752C124.8 34.505 122.791 34.119 120.782 33.8102L116.995 23.9679L113.093 32.9997C111.2 32.6909 109.307 32.5751 107.375 32.3435L114.214 16.7888L108.032 0.809395H113.789L117.266 9.72541L120.975 0.809395H126.77L120.048 16.9817ZM103.511 0.809395H98.2956V31.6488C99.9955 31.7646 101.773 31.8418 103.511 32.0348V0.809395ZM93.8138 31.3014C89.0615 30.9926 84.3093 30.6838 79.4798 30.6066V0.809395H84.7729V25.589C87.8252 25.6662 90.8774 25.8978 93.8138 26.0521V31.3014ZM73.8003 12.8904V18.1783H66.5367V30.2593H61.2822V0.809395H76.1571V6.09725H66.5367V12.8518H73.8003V12.8904ZM52.3572 6.09725V30.5295C50.58 30.5295 48.7641 30.5295 47.0254 30.6066V6.09725H41.5391V0.809395H57.8822V6.09725H52.3572ZM35.821 18.4484C33.5028 18.4484 30.721 18.4484 28.7506 18.5642V26.4381C31.8801 26.2065 34.971 25.975 38.1391 25.8592V30.954L23.4574 32.112V0.809395H38.1391V6.09725H28.7506V13.2378C30.7983 13.2378 33.9664 13.122 35.821 13.122V18.4484ZM6.38025 15.4764V34.0032C4.48708 34.2348 2.78709 34.505 0.971191 34.7752V0.809395H6.03252L12.9484 20.1081V0.809395H18.2802V32.5751C16.387 32.8839 14.4938 32.9997 12.4848 33.2699L6.38025 15.4764Z" fill="black"/>
</svg>
