<svg width="128" height="42" viewBox="0 0 128 42" fill="none" xmlns="http://www.w3.org/2000/svg">
<path d="M127.272 0.283081L100.791 41.1923L51.033 31.3544L0.494629 39.3887L14.1248 18.3602C14.5764 18.6061 15.069 18.8111 15.6849 18.8931L3.86111 37.2161L51.1151 29.7148L100.011 39.3477L110.275 23.4841H110.357C111.219 23.4841 111.917 23.1562 112.246 22.8692L111.917 22.1724L111.301 21.7215L123.741 2.5376L61.4609 14.671C61.9125 13.8922 62.323 13.1953 62.5693 12.7854L127.272 0.283081ZM86.7505 16.2287C87.5306 16.2287 88.1464 15.4498 88.1464 14.671C88.1464 13.9741 87.6948 13.7282 87.2021 13.7282C86.34 13.7282 85.7242 14.589 85.7242 15.2859C85.7242 15.7778 86.0526 16.2287 86.7505 16.2287ZM18.5997 10.7768C18.6819 10.7768 18.8461 10.7768 18.9282 10.7768H19.0103L25.579 0.774975L58.8744 13.5232C58.9565 13.4413 58.9565 13.3593 59.0386 13.2773C59.4902 12.4985 59.8187 11.9656 59.8187 11.9656L62.323 11.8016C60.5166 14.835 57.068 20.4098 56.8217 20.8607C55.3437 23.3611 54.6458 24.5499 54.6458 25.2467C54.6458 25.4927 54.7279 25.6976 54.9742 25.6976C55.7542 25.6976 57.3964 24.5089 60.6808 20.3688C60.9271 20.0408 61.7072 18.8931 62.0767 18.4832L64.4168 18.4012C63.103 20.3688 61.2966 23.0332 60.5166 24.4269C60.1882 24.9598 59.9829 25.2877 59.9829 25.4517C59.9829 25.6976 60.1471 25.7796 60.3113 25.7796C61.1735 25.7796 62.8978 24.3859 65.32 20.9426C65.9358 20.0818 66.3464 19.385 66.9622 18.5242L69.3023 18.4422C68.6044 19.467 67.3317 21.6395 67.1264 21.8854C66.0179 23.6891 65.4021 24.7958 65.4021 25.3287C65.4021 25.5746 65.4842 25.7796 65.8537 25.7796C67.578 25.7796 69.9181 22.6643 70.4929 21.0246C70.4929 19.9179 70.6571 18.9751 71.1087 18.4422C71.2729 18.1962 71.5603 17.9093 72.053 17.9093C72.3814 17.9093 72.6688 18.0733 72.6688 18.3602C72.6688 18.8111 72.1351 19.9998 71.2729 21.4755C71.5193 22.0904 72.053 22.4183 72.6688 22.5823C73.613 20.8607 75.7889 18.0323 78.6217 18.0323C79.6481 18.0323 80.0997 18.3602 80.0997 19.139C80.0997 20.6147 77.8417 22.6643 74.7626 23.1152C74.5162 23.6481 74.2289 24.2219 74.2289 24.8368C74.2289 25.3697 74.4752 25.7796 75.2552 25.7796C77.7596 25.7796 80.7566 22.0084 82.3987 19.8359C82.4809 19.6719 83.1788 18.8111 83.343 18.5242L85.6831 18.3602C83.7125 21.4755 83.0967 22.5003 83.0967 22.5003C82.4809 23.5251 81.7008 24.8368 81.7008 25.2467C81.7008 25.4927 81.865 25.6976 82.1524 25.6976C83.0967 25.6976 84.821 24.14 87.2432 21.6395C88.2696 20.6147 89.4191 19.385 90.1581 18.5242C90.4044 17.5814 90.9381 17.1305 91.5539 17.1305C92.0877 17.1305 92.2519 17.3764 92.2519 17.8273C92.2519 18.3602 91.8003 18.6881 91.3897 18.7701C91.3897 18.8521 91.3897 19.0161 91.3897 19.221C91.3897 20.1638 91.4718 20.8607 91.4718 21.8854C91.4718 22.8282 91.3076 23.6891 90.7739 24.5499C91.9645 23.6071 94.3867 21.2706 95.8647 19.9998C97.3427 18.6061 98.7796 18.1143 99.9291 18.1143C100.873 18.1143 101.407 18.4422 101.407 19.221C101.407 21.1066 98.2048 22.9102 96.07 23.1972C95.8236 23.6481 95.5362 24.3859 95.5362 25.0008C95.5362 25.5337 95.8647 25.8616 96.3984 25.8616C98.1227 25.8616 99.847 24.058 101.243 22.4183C103.419 19.7539 104.363 18.2782 106.005 18.2782C106.867 18.2782 107.319 18.7291 107.319 19.303C107.319 20.0818 106.991 20.7787 106.21 22.1314C108.715 18.9341 109.905 18.2372 110.768 18.2372C111.383 18.2372 111.794 18.5652 111.794 19.0161C110.932 19.262 110.07 20.4917 110.07 21.3526C110.07 21.5985 110.152 21.8035 110.234 21.9674C110.316 22.0494 110.48 22.1314 110.768 22.1314C111.055 22.1314 111.301 22.0494 111.63 21.8854L111.794 22.3363C111.342 22.5823 110.932 22.6643 110.316 22.6643C109.207 22.6643 108.592 22.1314 108.592 21.2706C108.592 20.7377 108.838 20.1638 109.207 19.6309C107.729 20.9426 104.732 24.7958 103.706 26.5174L101.366 26.5994C101.694 26.0665 103.706 23.1562 105.061 20.7377C105.513 19.9589 105.759 19.6309 105.759 19.262C105.759 19.098 105.677 19.0161 105.513 19.0161C104.733 19.0161 103.542 20.5737 101.9 22.6233C100.709 24.1809 98.5332 26.7634 95.7005 26.7634C94.2225 26.7634 93.5246 25.9846 93.5246 24.9598C93.5246 24.017 93.853 23.1562 94.3867 22.3773C93.6888 22.9922 92.9909 23.5661 92.334 24.1809C91.0202 25.3697 89.2959 26.7634 86.9969 26.7634C85.8063 26.7634 85.1084 26.2305 85.1084 25.6566C85.1084 25.3287 85.3547 25.0418 85.6421 25.0418C86.4221 25.0418 86.1758 26.1485 87.2021 26.1485C88.3927 26.1485 89.378 25.0418 89.9528 21.5985C90.0349 21.1476 90.1991 20.2048 90.4044 19.6309C88.598 21.5165 87.2843 22.8282 86.7916 23.4021C85.2315 24.9598 83.4251 26.6814 81.7008 26.6814C80.7566 26.6814 80.1407 26.1485 80.1407 25.3697C80.1407 24.8368 80.3871 24.1809 81.0029 22.9512C79.607 24.4269 77.4722 26.6404 74.8036 26.6404C73.2435 26.6404 72.5456 25.8616 72.5456 24.7548C72.5456 24.2219 72.7098 23.6481 72.9972 23.0332C72.3814 22.8692 71.8887 22.5003 71.5193 22.0084C70.8213 23.1152 69.9592 24.2629 68.7686 25.2877C67.578 26.3945 66.4285 26.7634 65.4842 26.7634C64.54 26.7634 63.9241 26.3125 63.9241 25.4517C63.9241 24.8368 64.2526 24.14 64.54 23.5661C63.2262 25.1237 61.6251 26.7634 59.7776 26.7634C58.9976 26.7634 58.2996 26.4355 58.2996 25.4517C58.2996 24.8368 58.6281 24.2629 59.1618 23.2791C58.0533 24.4679 56.2469 26.7224 54.1531 26.7224C53.2089 26.7224 52.6751 26.1895 52.6751 25.4107C52.6751 24.7138 53.0036 24.017 53.291 23.5251C53.0446 23.853 52.7573 24.14 52.593 24.3859C51.1151 26.0256 49.9245 26.7224 48.6107 26.7224C47.6665 26.7224 47.0507 26.1895 47.0507 25.2467C47.0507 24.7958 47.2149 24.2219 47.3791 23.771C45.9832 25.2467 44.4642 26.6814 42.7399 26.6814C41.7957 26.6814 41.3441 26.1485 41.3441 25.4927C41.3441 25.0418 41.5083 24.5499 41.8778 23.853L41.303 24.4679C40.1124 25.6566 38.6344 26.7224 37.2386 26.7224C36.3764 26.7224 35.7606 26.2715 35.7606 25.4107C35.7606 24.7958 36.2122 23.771 37.3207 22.2134L36.6228 22.9512C33.1742 26.2305 29.7256 28.1981 26.0307 28.1981C23.28 28.1981 22.4178 27.0093 22.4178 25.5337C22.4178 25.2057 22.4999 24.8368 22.4999 24.8368L21.9662 25.4517C20.5704 27.1733 19.544 28.1161 18.1892 28.1161C17.0807 28.1161 16.1365 27.5832 16.1365 26.5584C16.1365 25.9436 16.4649 25.3697 16.9165 24.5909C17.8608 23.0332 20.4472 19.262 22.3357 16.5156C21.1451 17.2944 19.4208 17.9093 17.1628 17.9093C13.9606 17.9093 12.4005 16.5976 12.4005 14.712C12.3184 12.4985 14.6585 10.8588 18.5997 10.7768ZM96.2342 22.5823C98.0406 22.3363 100.299 20.4098 100.299 19.057C100.299 18.8111 100.216 18.6061 99.9702 18.6061C98.9027 18.7291 97.63 20.0818 96.2342 22.5823ZM75.091 22.5823C76.8974 22.3363 79.1554 20.5327 79.1554 19.057C79.1554 18.8111 78.9912 18.6061 78.7038 18.6061C77.5953 18.7291 76.2405 20.6147 75.091 22.5823ZM24.1421 20.9426C25.8664 18.4422 27.5907 15.7778 28.6992 14.1381C28.1655 13.8922 27.6728 13.6052 27.2212 13.3593C26.6465 14.1381 19.4619 24.7548 18.9692 25.6156C18.5176 26.3125 18.4355 26.6404 18.4355 26.8044C18.4355 26.9683 18.5176 27.1323 18.764 27.1323C19.0103 27.1323 19.3798 26.9683 19.7903 26.5994C20.8578 25.7796 22.2126 23.812 24.1421 20.9426ZM27.5907 18.6061L28.1244 17.7453C29.7666 17.7453 31.0393 17.7453 31.9015 17.2944C33.9542 16.3516 35.0216 14.0151 35.0216 12.9084C35.0216 12.1295 34.6932 11.4327 33.6258 11.4327C32.0657 11.4327 30.5877 12.9904 29.7256 14.0971C30.5056 14.548 31.1214 14.9579 31.4499 15.2859L31.2035 15.7368C30.6698 15.2859 30.0951 14.9579 29.4792 14.548C28.4529 15.8597 26.1949 19.385 24.6348 21.5985C25.6612 20.9017 26.9749 20.7377 27.8371 20.7377V21.3526C24.799 21.4345 22.9926 23.4021 22.9926 25.4927C22.9926 26.5994 23.6084 27.3783 25.2506 27.3783C29.0276 27.3783 31.532 23.3201 31.532 20.7377C31.532 19.5489 31.0804 18.4832 29.1919 18.4832H28.3297C28.0013 18.5242 27.7549 18.6061 27.5907 18.6061ZM55.0153 19.5899C55.0153 19.139 54.6868 18.8111 54.1531 18.8111C53.2089 18.8111 52.3467 19.426 51.033 20.9836C50.0066 22.3773 48.8571 24.3449 48.8571 25.2057C48.8571 25.4517 48.9392 25.7386 49.3908 25.7386C49.8424 25.7386 50.5814 25.4107 51.7309 24.1809C52.7573 23.0742 53.9889 21.5165 54.851 19.9589C55.0153 19.8359 55.0153 19.6719 55.0153 19.5899ZM20.9399 10.9818C21.2683 10.9818 21.7199 11.0638 22.0483 11.1457C23.4442 11.3917 24.5527 11.7606 25.579 12.0885C25.7433 11.8426 25.9075 11.5557 26.1128 11.3097L28.8634 11.2277C28.6171 11.5557 28.1655 12.2525 27.5497 12.9494C28.0834 13.1953 28.576 13.4822 29.1098 13.7282C30.834 11.5557 32.4762 10.5309 34.57 10.5309C36.828 10.5309 37.6902 11.8426 37.6902 13.1133C37.6902 14.3021 36.9923 15.6958 36.1301 16.4746C35.0216 17.5814 33.4616 18.1143 32.2299 18.3602C32.9278 18.6881 34.1184 19.303 34.1184 21.2706C34.1184 22.9102 33.1742 24.4679 32.1478 25.6566C34.2005 24.4679 37.1565 21.6805 38.4292 20.0408C38.6755 19.7129 39.2913 18.9341 39.5376 18.4832L41.9599 18.3192C41.9599 18.3192 38.8397 22.9512 38.1828 24.1809C37.8544 24.8778 37.6491 25.1237 37.6491 25.2877C37.6491 25.4517 37.7312 25.6156 37.9776 25.6156C38.9218 25.6156 40.7282 24.058 41.9599 22.3363C42.5757 21.5575 44.6284 18.4422 44.6284 18.4422L47.1328 18.2782C45.1621 21.3935 44.4642 22.4183 44.4642 22.4183C43.7663 23.4431 43.2736 24.3859 43.1505 24.9188C43.0683 25.0828 43.0683 25.1647 43.0683 25.2467C43.0683 25.4927 43.1505 25.5746 43.3968 25.5746C44.8748 25.5746 47.4612 22.2134 48.2412 21.1886C49.7192 19.303 51.6077 17.9913 53.5784 17.9913C54.4405 17.9913 55.0563 18.3192 55.3026 18.9341C55.8364 18.0733 56.7806 16.5976 57.5607 15.2449C57.6428 15.0809 57.7249 14.9989 57.807 14.9169L26.1949 2.78354L20.9399 10.9818ZM13.3447 14.9169C13.3447 15.5318 13.509 16.0237 13.9606 16.4746C14.2069 16.7206 14.5764 17.0075 14.9869 17.0895L18.1071 12.3345C18.4355 12.3345 18.8871 12.2525 19.2977 12.2525C19.544 12.2525 19.8314 12.2525 20.0777 12.2525L16.7933 17.3354C16.9576 17.3354 17.1218 17.3354 17.3271 17.3354C17.5734 17.3354 17.8608 17.3354 18.1071 17.3354C21.1862 17.0895 23.0747 15.4498 23.7726 14.589C23.7726 14.589 25.2506 12.5394 25.3327 12.4165C23.8548 11.8836 21.802 11.3097 19.2977 11.3097C15.5206 11.4737 13.3447 12.9494 13.3447 14.9169ZM105.389 40.3315C105.389 40.5774 105.307 40.8644 105.143 41.0283C104.979 41.1923 104.691 41.2743 104.445 41.2743C104.199 41.2743 103.911 41.1923 103.747 41.0283C103.583 40.8644 103.501 40.5774 103.501 40.3315C103.501 40.0855 103.583 39.7986 103.747 39.6346C103.911 39.4707 104.199 39.3887 104.445 39.3887C104.691 39.3887 104.979 39.4707 105.143 39.6346C105.307 39.7986 105.389 39.9626 105.389 40.3315ZM105.184 40.3315C105.184 40.0855 105.102 39.8806 104.938 39.7166C104.774 39.5526 104.609 39.4707 104.322 39.4707C104.076 39.4707 103.87 39.5526 103.706 39.7166C103.542 39.8806 103.46 40.0445 103.46 40.3315C103.46 40.6184 103.542 40.7824 103.706 40.9463C103.87 41.1103 104.035 41.1923 104.322 41.1923C104.609 41.1923 104.774 41.1103 104.938 40.9463C105.102 40.7414 105.184 40.4954 105.184 40.3315ZM104.856 40.8234H104.609L104.445 40.3725H104.199V40.8234H103.952V39.6346H104.486C104.65 39.6346 104.733 39.6346 104.815 39.7166C104.897 39.7986 104.897 39.8806 104.897 39.9626C104.897 40.1265 104.815 40.2085 104.65 40.2905L104.856 40.8234ZM104.158 40.2495H104.404C104.568 40.2495 104.65 40.1675 104.65 40.0855C104.65 40.0035 104.568 39.9216 104.486 39.9216H104.24V40.2495H104.158Z" fill="black"/>
</svg>
