<svg width="110" height="110" viewBox="0 0 110 110" fill="none" xmlns="http://www.w3.org/2000/svg">
<rect x="7" y="7" width="96.25" height="96.25" rx="48.125" fill="black"/>
<path d="M79.0625 36.0938C79.0625 38.9415 76.754 41.25 73.9062 41.25C71.0585 41.25 68.75 38.9415 68.75 36.0938C68.75 33.246 71.0585 30.9375 73.9062 30.9375C76.754 30.9375 79.0625 33.246 79.0625 36.0938Z" fill="white"/>
<path fill-rule="evenodd" clip-rule="evenodd" d="M55 72.1875C64.4924 72.1875 72.1875 64.4924 72.1875 55C72.1875 45.5076 64.4924 37.8125 55 37.8125C45.5076 37.8125 37.8125 45.5076 37.8125 55C37.8125 64.4924 45.5076 72.1875 55 72.1875ZM55 65.3125C60.6954 65.3125 65.3125 60.6954 65.3125 55C65.3125 49.3046 60.6954 44.6875 55 44.6875C49.3046 44.6875 44.6875 49.3046 44.6875 55C44.6875 60.6954 49.3046 65.3125 55 65.3125Z" fill="white"/>
<path fill-rule="evenodd" clip-rule="evenodd" d="M20.625 53.625C20.625 42.0739 20.625 36.2984 22.873 31.8864C24.8504 28.0056 28.0056 24.8504 31.8864 22.873C36.2984 20.625 42.0739 20.625 53.625 20.625H56.375C67.9261 20.625 73.7016 20.625 78.1136 22.873C81.9944 24.8504 85.1496 28.0056 87.127 31.8864C89.375 36.2984 89.375 42.0739 89.375 53.625V56.375C89.375 67.9261 89.375 73.7016 87.127 78.1136C85.1496 81.9944 81.9944 85.1496 78.1136 87.127C73.7016 89.375 67.9261 89.375 56.375 89.375H53.625C42.0739 89.375 36.2984 89.375 31.8864 87.127C28.0056 85.1496 24.8504 81.9944 22.873 78.1136C20.625 73.7016 20.625 67.9261 20.625 56.375V53.625ZM53.625 27.5H56.375C62.264 27.5 66.2672 27.5053 69.3616 27.7582C72.3757 28.0044 73.9171 28.4508 74.9924 28.9987C77.5796 30.3169 79.6831 32.4204 81.0013 35.0076C81.5492 36.0829 81.9956 37.6243 82.2418 40.6384C82.4947 43.7327 82.5 47.736 82.5 53.625V56.375C82.5 62.264 82.4947 66.2672 82.2418 69.3616C81.9956 72.3757 81.5492 73.9171 81.0013 74.9924C79.6831 77.5796 77.5796 79.6831 74.9924 81.0013C73.9171 81.5492 72.3757 81.9956 69.3616 82.2418C66.2672 82.4947 62.264 82.5 56.375 82.5H53.625C47.736 82.5 43.7327 82.4947 40.6384 82.2418C37.6243 81.9956 36.0829 81.5492 35.0076 81.0013C32.4204 79.6831 30.3169 77.5796 28.9987 74.9924C28.4508 73.9171 28.0044 72.3757 27.7582 69.3616C27.5053 66.2672 27.5 62.264 27.5 56.375V53.625C27.5 47.736 27.5053 43.7327 27.7582 40.6384C28.0044 37.6243 28.4508 36.0829 28.9987 35.0076C30.3169 32.4204 32.4204 30.3169 35.0076 28.9987C36.0829 28.4508 37.6243 28.0044 40.6384 27.7582C43.7327 27.5053 47.736 27.5 53.625 27.5Z" fill="white"/>
</svg>
