<svg width="110" height="110" viewBox="0 0 110 110" fill="none" xmlns="http://www.w3.org/2000/svg">
<rect x="6.875" y="6.875" width="96.25" height="96.25" rx="48.125" fill="black"/>
<path d="M43.3763 33.3168C43.3763 36.5293 40.5918 39.1335 37.1569 39.1335C33.722 39.1335 30.9375 36.5293 30.9375 33.3168C30.9375 30.1043 33.722 27.5 37.1569 27.5C40.5918 27.5 43.3763 30.1043 43.3763 33.3168Z" fill="white"/>
<path d="M31.788 43.4091H42.4195V75.625H31.788V43.4091Z" fill="white"/>
<path d="M59.5361 43.4091H48.9046V75.625H59.5361C59.5361 75.625 59.5361 65.483 59.5361 59.1417C59.5361 55.3356 60.8357 51.5128 66.0213 51.5128C71.8816 51.5128 71.8463 56.4937 71.819 60.3525C71.7833 65.3965 71.8686 70.5439 71.8686 75.625H82.5V58.6222C82.41 47.7654 79.5809 42.7628 70.2738 42.7628C64.7467 42.7628 61.3206 45.2721 59.5361 47.5423V43.4091Z" fill="white"/>
</svg>
